<svg width="531" height="121" viewBox="0 0 531 121" fill="none" xmlns="http://www.w3.org/2000/svg">
<rect width="531" height="121" rx="50" fill="white"/>
<path d="M215.245 55.3672H207.468C207.326 54.361 207.036 53.4673 206.598 52.6861C206.16 51.893 205.598 51.2183 204.911 50.6619C204.225 50.1056 203.432 49.6794 202.532 49.3835C201.644 49.0876 200.679 48.9396 199.638 48.9396C197.756 48.9396 196.116 49.4072 194.719 50.3423C193.323 51.2656 192.24 52.6151 191.47 54.3906C190.701 56.1544 190.316 58.2969 190.316 60.8182C190.316 63.4105 190.701 65.5885 191.47 67.3523C192.251 69.116 193.34 70.4477 194.737 71.3473C196.134 72.2469 197.75 72.6967 199.585 72.6967C200.614 72.6967 201.567 72.5606 202.443 72.2884C203.331 72.0161 204.118 71.6196 204.805 71.0987C205.491 70.5661 206.059 69.9209 206.509 69.1634C206.971 68.4058 207.29 67.5417 207.468 66.571L215.245 66.6065C215.044 68.2756 214.541 69.8854 213.736 71.4361C212.943 72.9749 211.871 74.3539 210.522 75.5732C209.184 76.7805 207.586 77.7393 205.728 78.4496C203.881 79.148 201.792 79.4972 199.46 79.4972C196.217 79.4972 193.317 78.7633 190.76 77.2955C188.215 75.8277 186.203 73.7029 184.723 70.9212C183.255 68.1394 182.521 64.7718 182.521 60.8182C182.521 56.8527 183.267 53.4792 184.759 50.6974C186.25 47.9157 188.274 45.7969 190.831 44.3409C193.388 42.8731 196.264 42.1392 199.46 42.1392C201.567 42.1392 203.52 42.4351 205.32 43.027C207.131 43.6188 208.735 44.483 210.131 45.6193C211.528 46.7438 212.665 48.1229 213.54 49.7564C214.428 51.3899 214.996 53.2602 215.245 55.3672ZM228.393 79.5149C226.653 79.5149 225.102 79.2131 223.741 78.6094C222.38 77.9938 221.303 77.0883 220.51 75.8928C219.728 74.6854 219.338 73.1821 219.338 71.3828C219.338 69.8677 219.616 68.5952 220.172 67.5653C220.729 66.5355 221.486 65.7069 222.445 65.0795C223.404 64.4522 224.493 63.9787 225.712 63.6591C226.943 63.3395 228.233 63.1146 229.583 62.9844C231.169 62.8187 232.447 62.6648 233.418 62.5227C234.389 62.3688 235.093 62.1439 235.531 61.848C235.969 61.5521 236.188 61.1141 236.188 60.5341V60.4276C236.188 59.303 235.833 58.433 235.123 57.8175C234.424 57.2019 233.43 56.8942 232.14 56.8942C230.778 56.8942 229.695 57.196 228.89 57.7997C228.085 58.3916 227.553 59.1373 227.292 60.0369L220.297 59.4688C220.652 57.8116 221.35 56.3793 222.392 55.1719C223.433 53.9527 224.777 53.0175 226.422 52.3665C228.079 51.7036 229.997 51.3722 232.175 51.3722C233.69 51.3722 235.14 51.5497 236.525 51.9048C237.922 52.2599 239.159 52.8104 240.236 53.5561C241.325 54.3018 242.183 55.2607 242.811 56.4325C243.438 57.5926 243.752 58.9834 243.752 60.6051V79H236.578V75.218H236.365C235.927 76.0703 235.342 76.822 234.608 77.473C233.874 78.1122 232.992 78.6153 231.962 78.9822C230.932 79.3374 229.743 79.5149 228.393 79.5149ZM230.559 74.2947C231.672 74.2947 232.654 74.0758 233.507 73.6378C234.359 73.188 235.028 72.5843 235.513 71.8267C235.998 71.0691 236.241 70.2109 236.241 69.2521V66.358C236.004 66.5118 235.679 66.6539 235.265 66.7841C234.862 66.9025 234.406 67.0149 233.897 67.1214C233.388 67.2161 232.879 67.3049 232.37 67.3878C231.861 67.4588 231.4 67.5239 230.985 67.5831C230.098 67.7133 229.322 67.9205 228.659 68.2045C227.997 68.4886 227.482 68.8733 227.115 69.3587C226.748 69.8321 226.564 70.424 226.564 71.1342C226.564 72.1641 226.937 72.9512 227.683 73.4957C228.44 74.0284 229.399 74.2947 230.559 74.2947ZM257.184 63.233V79H249.62V51.7273H256.829V56.5391H257.148C257.752 54.9529 258.764 53.6982 260.185 52.7749C261.605 51.8397 263.327 51.3722 265.352 51.3722C267.246 51.3722 268.897 51.7865 270.305 52.6151C271.714 53.4437 272.809 54.6274 273.59 56.1662C274.371 57.6932 274.762 59.5161 274.762 61.6349V79H267.198V62.9844C267.21 61.3153 266.784 60.0133 265.92 59.0781C265.056 58.1312 263.866 57.6577 262.351 57.6577C261.333 57.6577 260.433 57.8767 259.652 58.3146C258.883 58.7526 258.279 59.3918 257.841 60.2322C257.415 61.0608 257.196 62.0611 257.184 63.233ZM293.046 79.5327C290.252 79.5327 287.849 78.9408 285.837 77.7571C283.837 76.5616 282.298 74.9044 281.221 72.7855C280.155 70.6667 279.623 68.2282 279.623 65.4702C279.623 62.6766 280.161 60.2263 281.238 58.1193C282.327 56.0005 283.872 54.3492 285.873 53.1655C287.873 51.9699 290.252 51.3722 293.01 51.3722C295.39 51.3722 297.473 51.8042 299.26 52.6683C301.048 53.5324 302.462 54.7457 303.504 56.3082C304.546 57.8707 305.12 59.7055 305.226 61.8125H298.089C297.887 60.4512 297.355 59.3563 296.491 58.5277C295.638 57.6873 294.52 57.267 293.135 57.267C291.963 57.267 290.939 57.5866 290.063 58.2259C289.199 58.8532 288.524 59.7706 288.039 60.978C287.554 62.1854 287.311 63.6473 287.311 65.3636C287.311 67.1037 287.548 68.5833 288.021 69.8026C288.506 71.0218 289.187 71.951 290.063 72.5902C290.939 73.2294 291.963 73.549 293.135 73.549C293.999 73.549 294.774 73.3714 295.461 73.0163C296.159 72.6612 296.733 72.1463 297.183 71.4716C297.645 70.785 297.947 69.9624 298.089 69.0036H305.226C305.108 71.0869 304.54 72.9216 303.522 74.5078C302.516 76.0821 301.125 77.3132 299.349 78.201C297.574 79.0888 295.473 79.5327 293.046 79.5327ZM322.498 79.5327C319.693 79.5327 317.278 78.9645 315.254 77.8281C313.242 76.6799 311.691 75.0582 310.602 72.9631C309.513 70.8561 308.968 68.3643 308.968 65.4879C308.968 62.6825 309.513 60.2204 310.602 58.1016C311.691 55.9827 313.224 54.3314 315.201 53.1477C317.189 51.964 319.521 51.3722 322.196 51.3722C323.996 51.3722 325.671 51.6622 327.221 52.2422C328.784 52.8104 330.145 53.6686 331.305 54.8168C332.477 55.965 333.388 57.4091 334.039 59.1491C334.69 60.8774 335.016 62.9015 335.016 65.2216V67.299H311.987V62.6115H327.896C327.896 61.5225 327.659 60.5578 327.186 59.7173C326.712 58.8769 326.055 58.2199 325.215 57.7464C324.386 57.2611 323.422 57.0185 322.321 57.0185C321.172 57.0185 320.154 57.2848 319.267 57.8175C318.391 58.3383 317.704 59.0426 317.207 59.9304C316.71 60.8063 316.455 61.7829 316.444 62.8601V67.3168C316.444 68.6662 316.692 69.8321 317.189 70.8146C317.698 71.7971 318.414 72.5547 319.338 73.0874C320.261 73.62 321.356 73.8864 322.623 73.8864C323.463 73.8864 324.232 73.768 324.931 73.5312C325.629 73.2945 326.227 72.9394 326.724 72.4659C327.221 71.9924 327.6 71.4124 327.86 70.7259L334.856 71.1875C334.501 72.8684 333.773 74.3362 332.672 75.5909C331.583 76.8338 330.175 77.8045 328.446 78.5028C326.73 79.1894 324.747 79.5327 322.498 79.5327ZM347.516 42.6364V79H339.952V42.6364H347.516Z" fill="black"/>
</svg>
