<svg width="72" height="733" viewBox="0 0 72 733" fill="none" xmlns="http://www.w3.org/2000/svg">
<path d="M36.135 688.485C38.375 688.485 40.65 688.917 42.96 689.78C45.27 690.62 47.3933 691.903 49.33 693.63C51.2667 695.333 52.8417 697.503 54.055 700.14C55.245 702.753 55.84 705.857 55.84 709.45C55.84 714.233 54.7083 718.317 52.445 721.7C50.1583 725.083 47.0083 727.673 42.995 729.47C38.9817 731.243 34.3733 732.13 29.17 732.13C23.9667 732.13 19.37 731.243 15.38 729.47C11.39 727.673 8.26333 725.083 6 721.7C3.73666 718.317 2.605 714.233 2.605 709.45C2.605 705.46 3.32833 702.065 4.775 699.265C6.22167 696.442 8.1 694.19 10.41 692.51C12.72 690.807 15.1583 689.652 17.725 689.045C19.2883 688.672 20.7933 688.485 22.24 688.485V699.37C21.54 699.37 20.8633 699.428 20.21 699.545C18.5067 699.778 16.99 700.315 15.66 701.155C14.33 701.995 13.28 703.115 12.51 704.515C11.7167 705.892 11.32 707.537 11.32 709.45C11.32 711.69 11.9617 713.685 13.245 715.435C14.5283 717.185 16.4883 718.562 19.125 719.565C21.7617 720.568 25.11 721.07 29.17 721.07C33.2533 721.07 36.625 720.568 39.285 719.565C41.9217 718.562 43.8933 717.185 45.2 715.435C46.4833 713.685 47.125 711.69 47.125 709.45C47.125 707.84 46.8333 706.417 46.25 705.18C45.6667 703.92 44.8617 702.87 43.835 702.03C42.8083 701.167 41.63 700.513 40.3 700.07C38.97 699.603 37.5817 699.37 36.135 699.37V688.485ZM0.294997 671.575H55V682.285H0.294997L0.294997 671.575ZM55.805 645.697C55.805 649.71 54.9767 653.245 53.32 656.302C51.6633 659.359 49.3883 661.75 46.495 663.477C43.5783 665.18 40.2183 666.032 36.415 666.032C32.635 666.032 29.2983 665.18 26.405 663.477C23.4883 661.75 21.225 659.359 19.615 656.302C17.9817 653.245 17.165 649.71 17.165 645.697C17.165 641.684 17.9817 638.149 19.615 635.092C21.225 632.035 23.4883 629.655 26.405 627.952C29.2983 626.225 32.635 625.362 36.415 625.362C40.2183 625.362 43.5783 626.225 46.495 627.952C49.3883 629.655 51.6633 632.035 53.32 635.092C54.9767 638.149 55.805 641.684 55.805 645.697ZM47.195 645.697C47.195 643.807 46.7517 642.162 45.865 640.762C44.9783 639.362 43.73 638.277 42.12 637.507C40.4867 636.737 38.585 636.352 36.415 636.352C34.245 636.352 32.3667 636.737 30.78 637.507C29.17 638.277 27.9333 639.362 27.07 640.762C26.2067 642.162 25.775 643.807 25.775 645.697C25.775 647.564 26.2067 649.209 27.07 650.632C27.9333 652.032 29.17 653.117 30.78 653.887C32.3667 654.657 34.245 655.042 36.415 655.042C38.585 655.042 40.4867 654.657 42.12 653.887C43.73 653.117 44.9783 652.032 45.865 650.632C46.7517 649.209 47.195 647.564 47.195 645.697ZM55.84 604.515C55.84 606.731 55.5833 608.866 55.07 610.92C54.5567 612.973 53.7983 614.816 52.795 616.45C51.7917 618.06 50.5433 619.343 49.05 620.3C47.5333 621.233 45.7717 621.7 43.765 621.7C43.6717 621.7 43.5667 621.7 43.45 621.7C43.31 621.7 43.205 621.7 43.135 621.7V610.92C43.205 610.92 43.2867 610.92 43.38 610.92C43.45 610.92 43.5317 610.92 43.625 610.92C44.9783 610.92 45.97 610.325 46.6 609.135C47.23 607.921 47.545 606.288 47.545 604.235C47.545 603.161 47.44 602.135 47.23 601.155C46.9967 600.151 46.635 599.335 46.145 598.705C45.6317 598.051 44.99 597.725 44.22 597.725C42.9833 597.725 42.1083 598.413 41.595 599.79C41.0817 601.143 40.5683 603.325 40.055 606.335C39.775 608.038 39.3783 609.765 38.865 611.515C38.3517 613.265 37.675 614.875 36.835 616.345C35.9717 617.815 34.8867 618.993 33.58 619.88C32.25 620.766 30.64 621.21 28.75 621.21C26.23 621.21 24.1067 620.451 22.38 618.935C20.6533 617.395 19.3467 615.353 18.46 612.81C17.5733 610.266 17.13 607.466 17.13 604.41C17.13 601.493 17.62 598.775 18.6 596.255C19.5567 593.735 20.945 591.693 22.765 590.13C24.5617 588.566 26.7317 587.785 29.275 587.785C29.3217 587.785 29.3917 587.785 29.485 587.785C29.5783 587.785 29.6717 587.785 29.765 587.785L29.765 598.46C29.6717 598.46 29.59 598.46 29.52 598.46C29.45 598.46 29.3917 598.46 29.345 598.46C28.4117 598.46 27.6533 598.763 27.07 599.37C26.4867 599.953 26.055 600.7 25.775 601.61C25.4717 602.52 25.32 603.465 25.32 604.445C25.32 605.331 25.425 606.253 25.635 607.21C25.8217 608.143 26.1483 608.936 26.615 609.59C27.0583 610.243 27.6883 610.57 28.505 610.57C29.2983 610.57 29.9517 610.22 30.465 609.52C30.955 608.82 31.3633 607.84 31.69 606.58C31.9933 605.32 32.285 603.861 32.565 602.205C32.8217 600.641 33.1833 598.996 33.65 597.27C34.0933 595.52 34.735 593.886 35.575 592.37C36.3917 590.83 37.4767 589.593 38.83 588.66C40.16 587.703 41.8517 587.225 43.905 587.225C46.0283 587.225 47.8483 587.715 49.365 588.695C50.8817 589.675 52.1183 591.005 53.075 592.685C54.0083 594.341 54.6967 596.196 55.14 598.25C55.6067 600.28 55.84 602.368 55.84 604.515ZM39.67 577.708H32.495L32.495 553.068L34.315 554.118C34.1283 554.118 33.9533 554.118 33.79 554.118C33.6033 554.118 33.4283 554.118 33.265 554.118C31.935 554.118 30.6633 554.433 29.45 555.063C28.2133 555.693 27.21 556.673 26.44 558.003C25.6467 559.309 25.25 560.989 25.25 563.043C25.25 565.096 25.6933 566.869 26.58 568.363C27.4433 569.833 28.6917 570.964 30.325 571.758C31.9583 572.528 33.93 572.913 36.24 572.913C38.62 572.913 40.6617 572.539 42.365 571.793C44.045 571.023 45.34 569.891 46.25 568.398C47.16 566.881 47.615 565.003 47.615 562.763C47.615 561.316 47.4867 560.068 47.23 559.018C46.95 557.968 46.6 557.116 46.18 556.463C45.76 555.786 45.2933 555.273 44.78 554.923C44.2667 554.573 43.765 554.363 43.275 554.293V543.583C44.8383 543.723 46.3783 544.259 47.895 545.193C49.3883 546.126 50.7417 547.421 51.955 549.078C53.145 550.734 54.09 552.753 54.79 555.133C55.49 557.489 55.84 560.184 55.84 563.218C55.84 567.324 55.0233 570.906 53.39 573.963C51.7333 577.019 49.4583 579.388 46.565 581.068C43.6483 582.748 40.2883 583.588 36.485 583.588C32.635 583.588 29.2633 582.736 26.37 581.033C23.4533 579.306 21.19 576.914 19.58 573.858C17.9467 570.778 17.13 567.219 17.13 563.183C17.13 559.053 17.9583 555.483 19.615 552.473C21.2483 549.463 23.5467 547.141 26.51 545.508C29.45 543.874 32.88 543.058 36.8 543.058C37.3833 543.058 37.9433 543.069 38.48 543.093C39.0167 543.116 39.4133 543.151 39.67 543.198L39.67 577.708ZM55 537.677H17.83L17.83 526.792H30.64L29.24 529.032C27.49 528.775 25.88 528.309 24.41 527.632C22.94 526.955 21.6683 526.08 20.595 525.007C19.4983 523.934 18.6467 522.662 18.04 521.192C17.4333 519.699 17.13 517.995 17.13 516.082C17.13 514.589 17.2467 513.422 17.48 512.582C17.69 511.719 17.8533 511.182 17.97 510.972L27.7 512.757C27.5833 512.967 27.3967 513.434 27.14 514.157C26.8833 514.88 26.755 515.814 26.755 516.957C26.755 518.824 27.07 520.387 27.7 521.647C28.33 522.907 29.17 523.922 30.22 524.692C31.2467 525.439 32.39 525.975 33.65 526.302C34.91 526.629 36.1817 526.792 37.465 526.792H55V537.677ZM55.77 472.51C55.77 473.933 55.6417 475.403 55.385 476.92C55.1517 478.413 54.6733 479.813 53.95 481.12C53.2033 482.403 52.1183 483.442 50.695 484.235C49.2717 485.028 47.3933 485.425 45.06 485.425C44.5467 485.425 44.0217 485.425 43.485 485.425C42.9483 485.425 42.4117 485.425 41.875 485.425H26.23V494H17.83V491.585C17.83 490.185 17.7717 489.077 17.655 488.26C17.5383 487.42 17.2467 486.802 16.78 486.405C16.29 485.985 15.5317 485.717 14.505 485.6C13.4783 485.483 12.0667 485.425 10.27 485.425H5.58L5.58 474.54H17.83V463.725H26.23V474.54H39.6C40.02 474.54 40.4283 474.54 40.825 474.54C41.2217 474.54 41.6067 474.54 41.98 474.54C43.59 474.54 44.8967 474.353 45.9 473.98C46.9033 473.583 47.405 472.615 47.405 471.075C47.405 470.305 47.335 469.582 47.195 468.905C47.055 468.205 46.915 467.68 46.775 467.33H54.93C55.14 467.82 55.3267 468.508 55.49 469.395C55.6767 470.282 55.77 471.32 55.77 472.51ZM55 432.367H41.77C41.3033 432.367 40.6617 432.367 39.845 432.367C39.0283 432.367 38.2 432.367 37.36 432.367C36.52 432.367 35.8433 432.367 35.33 432.367C32.4833 432.367 30.29 432.88 28.75 433.907C27.1867 434.934 26.405 436.812 26.405 439.542C26.405 441.315 26.7667 442.809 27.49 444.022C28.19 445.235 29.1817 446.157 30.465 446.787C31.7483 447.394 33.2533 447.697 34.98 447.697L32.81 450.847C29.7067 450.847 26.9883 450.182 24.655 448.852C22.2983 447.522 20.455 445.69 19.125 443.357C17.795 441 17.13 438.282 17.13 435.202C17.13 430.652 18.4717 427.234 21.155 424.947C23.815 422.66 27.525 421.517 32.285 421.517C33.4983 421.517 34.9567 421.517 36.66 421.517C38.3633 421.517 40.335 421.517 42.575 421.517H55V432.367ZM55 458.547H0.294997L0.294997 447.697H55V458.547ZM55.77 402.23C55.77 404.937 55.3383 407.352 54.475 409.475C53.6117 411.575 52.3633 413.22 50.73 414.41C49.0967 415.6 47.1133 416.195 44.78 416.195C42.1433 416.195 39.9967 415.472 38.34 414.025C36.6833 412.578 35.4233 410.665 34.56 408.285C33.6733 405.882 33.09 403.28 32.81 400.48C32.4133 396.397 32.0517 393.585 31.725 392.045C31.3983 390.482 30.8267 389.7 30.01 389.7C29.9867 389.7 29.9633 389.7 29.94 389.7C28.5633 389.7 27.4783 390.365 26.685 391.695C25.8917 393.002 25.495 394.833 25.495 397.19C25.495 399.687 25.95 401.6 26.86 402.93C27.7467 404.237 29.1117 404.89 30.955 404.89V415.565C27.9683 415.565 25.4483 414.76 23.395 413.15C21.3417 411.517 19.79 409.312 18.74 406.535C17.6667 403.758 17.13 400.62 17.13 397.12C17.13 393.853 17.6317 390.832 18.635 388.055C19.615 385.278 21.0967 383.05 23.08 381.37C25.0633 379.667 27.5833 378.815 30.64 378.815C31.13 378.815 31.62 378.815 32.11 378.815C32.5767 378.815 33.055 378.815 33.545 378.815H46.705C47.6617 378.815 48.5833 378.792 49.47 378.745C50.3333 378.675 51.1267 378.535 51.85 378.325C52.6667 378.092 53.3433 377.8 53.88 377.45C54.4167 377.1 54.79 376.808 55 376.575L55 387.25C54.8367 387.413 54.4983 387.67 53.985 388.02C53.4717 388.347 52.8767 388.627 52.2 388.86C51.3833 389.14 50.5667 389.35 49.75 389.49C48.91 389.607 47.93 389.665 46.81 389.665L48.35 387.425C49.89 388.078 51.22 389.14 52.34 390.61C53.4367 392.057 54.2883 393.783 54.895 395.79C55.4783 397.773 55.77 399.92 55.77 402.23ZM47.65 399.325C47.65 397.622 47.3467 396.035 46.74 394.565C46.11 393.072 45.13 391.858 43.8 390.925C42.47 389.992 40.7317 389.525 38.585 389.525H34.84L37.465 386.83C38.025 388.37 38.4917 390.155 38.865 392.185C39.215 394.192 39.495 396.198 39.705 398.205C39.9383 400.585 40.3467 402.37 40.93 403.56C41.49 404.727 42.4467 405.31 43.8 405.31C45.0833 405.31 46.0517 404.808 46.705 403.805C47.335 402.802 47.65 401.308 47.65 399.325ZM55 346.095H39.215C38.3283 346.095 37.5233 346.095 36.8 346.095C36.0767 346.095 35.4233 346.095 34.84 346.095C33.3 346.095 31.9 346.293 30.64 346.69C29.3567 347.086 28.33 347.798 27.56 348.825C26.79 349.851 26.405 351.333 26.405 353.27C26.405 354.95 26.79 356.408 27.56 357.645C28.33 358.858 29.4033 359.791 30.78 360.445C32.1567 361.098 33.7433 361.425 35.54 361.425L33.37 364.435C30.15 364.435 27.3267 363.735 24.9 362.335C22.4733 360.935 20.5717 359.045 19.195 356.665C17.8183 354.261 17.13 351.601 17.13 348.685C17.13 345.628 17.7483 343.12 18.985 341.16C20.1983 339.176 21.9017 337.706 24.095 336.75C26.265 335.77 28.8083 335.28 31.725 335.28C32.915 335.28 34.245 335.28 35.715 335.28C37.185 335.28 38.69 335.28 40.23 335.28H55V346.095ZM55 372.275H17.83L17.83 361.425H55V372.275ZM71.065 309.378C71.065 310.544 71.0183 311.594 70.925 312.528C70.855 313.438 70.7733 314.009 70.68 314.243H62.455C62.595 313.939 62.7 313.414 62.77 312.668C62.8633 311.898 62.91 311.081 62.91 310.218C62.91 309.074 62.6767 308.048 62.21 307.138C61.7667 306.204 61.125 305.411 60.285 304.758C59.4683 304.081 58.5 303.556 57.38 303.183L55.49 302.553L17.83 315.363V304.058L48.315 295.973V297.233L17.83 289.463V278.298L56.855 291.073C59.795 292.029 62.3267 293.208 64.45 294.608C66.5733 296.008 68.2067 297.874 69.35 300.208C70.4933 302.541 71.065 305.598 71.065 309.378ZM55.805 257.366C55.805 261.38 54.9767 264.915 53.32 267.971C51.6633 271.028 49.3883 273.42 46.495 275.146C43.5783 276.85 40.2183 277.701 36.415 277.701C32.635 277.701 29.2983 276.85 26.405 275.146C23.4883 273.42 21.225 271.028 19.615 267.971C17.9817 264.915 17.165 261.38 17.165 257.366C17.165 253.353 17.9817 249.818 19.615 246.761C21.225 243.705 23.4883 241.325 26.405 239.621C29.2983 237.895 32.635 237.031 36.415 237.031C40.2183 237.031 43.5783 237.895 46.495 239.621C49.3883 241.325 51.6633 243.705 53.32 246.761C54.9767 249.818 55.805 253.353 55.805 257.366ZM47.195 257.366C47.195 255.476 46.7517 253.831 45.865 252.431C44.9783 251.031 43.73 249.946 42.12 249.176C40.4867 248.406 38.585 248.021 36.415 248.021C34.245 248.021 32.3667 248.406 30.78 249.176C29.17 249.946 27.9333 251.031 27.07 252.431C26.2067 253.831 25.775 255.476 25.775 257.366C25.775 259.233 26.2067 260.878 27.07 262.301C27.9333 263.701 29.17 264.786 30.78 265.556C32.3667 266.326 34.245 266.711 36.415 266.711C38.585 266.711 40.4867 266.326 42.12 265.556C43.73 264.786 44.9783 263.701 45.865 262.301C46.7517 260.878 47.195 259.233 47.195 257.366ZM55.7 218.459C55.7 221.096 55.28 223.266 54.44 224.969C53.5767 226.672 52.4217 228.014 50.975 228.994C49.5283 229.974 47.9183 230.662 46.145 231.059C44.3717 231.456 42.575 231.654 40.755 231.654C39.915 231.654 39.0283 231.654 38.095 231.654C37.1617 231.654 36.205 231.654 35.225 231.654H17.83V220.804H33.51C34.3033 220.804 35.0733 220.804 35.82 220.804C36.5667 220.804 37.255 220.804 37.885 220.804C39.4483 220.804 40.8833 220.629 42.19 220.279C43.4967 219.929 44.5467 219.287 45.34 218.354C46.1333 217.397 46.53 216.044 46.53 214.294C46.53 212.591 46.0517 211.144 45.095 209.954C44.115 208.764 42.8667 207.854 41.35 207.224C39.8333 206.594 38.27 206.279 36.66 206.279L39.145 203.234C41.4783 203.234 43.6483 203.596 45.655 204.319C47.6617 205.019 49.4233 206.022 50.94 207.329C52.4333 208.636 53.6 210.234 54.44 212.124C55.28 213.991 55.7 216.102 55.7 218.459ZM55 206.279H17.83V195.429H55V206.279ZM55.77 154.319C55.77 155.742 55.6417 157.212 55.385 158.729C55.1517 160.222 54.6733 161.622 53.95 162.929C53.2033 164.212 52.1183 165.251 50.695 166.044C49.2717 166.837 47.3933 167.234 45.06 167.234C44.5467 167.234 44.0217 167.234 43.485 167.234C42.9483 167.234 42.4117 167.234 41.875 167.234H26.23L26.23 175.809H17.83L17.83 173.394C17.83 171.994 17.7717 170.886 17.655 170.069C17.5383 169.229 17.2467 168.611 16.78 168.214C16.29 167.794 15.5317 167.526 14.505 167.409C13.4783 167.292 12.0667 167.234 10.27 167.234H5.58L5.58 156.349H17.83V145.534H26.23V156.349H39.6C40.02 156.349 40.4283 156.349 40.825 156.349C41.2217 156.349 41.6067 156.349 41.98 156.349C43.59 156.349 44.8967 156.162 45.9 155.789C46.9033 155.392 47.405 154.424 47.405 152.884C47.405 152.114 47.335 151.391 47.195 150.714C47.055 150.014 46.915 149.489 46.775 149.139H54.93C55.14 149.629 55.3267 150.317 55.49 151.204C55.6767 152.091 55.77 153.129 55.77 154.319ZM55 114.176H41.77C41.3033 114.176 40.6617 114.176 39.845 114.176C39.0283 114.176 38.2 114.176 37.36 114.176C36.52 114.176 35.8433 114.176 35.33 114.176C32.4833 114.176 30.29 114.689 28.75 115.716C27.1867 116.743 26.405 118.621 26.405 121.351C26.405 123.124 26.7667 124.618 27.49 125.831C28.19 127.044 29.1817 127.966 30.465 128.596C31.7483 129.203 33.2533 129.506 34.98 129.506L32.81 132.656C29.7067 132.656 26.9883 131.991 24.655 130.661C22.2983 129.331 20.455 127.499 19.125 125.166C17.795 122.809 17.13 120.091 17.13 117.011C17.13 112.461 18.4717 109.043 21.155 106.756C23.815 104.469 27.525 103.326 32.285 103.326C33.4983 103.326 34.9567 103.326 36.66 103.326C38.3633 103.326 40.335 103.326 42.575 103.326H55V114.176ZM55 140.356H0.294997L0.294997 129.506H55V140.356ZM55 97.0588H17.83V86.3138H55V97.0588ZM11.775 91.7038C11.775 93.3838 11.3317 94.8538 10.445 96.1138C9.55833 97.3505 8.31 97.9688 6.7 97.9688C5.06666 97.9688 3.80667 97.3505 2.92 96.1138C2.03333 94.8538 1.59 93.3838 1.59 91.7038C1.59 90.0005 2.03333 88.5305 2.92 87.2938C3.80667 86.0338 5.06666 85.4038 6.7 85.4038C8.33333 85.4038 9.59333 86.0338 10.48 87.2938C11.3433 88.5305 11.775 90.0005 11.775 91.7038ZM55 53.5385H39.215C38.3283 53.5385 37.5233 53.5385 36.8 53.5385C36.0767 53.5385 35.4233 53.5385 34.84 53.5385C33.3 53.5385 31.9 53.7368 30.64 54.1335C29.3567 54.5302 28.33 55.2418 27.56 56.2685C26.79 57.2952 26.405 58.7768 26.405 60.7135C26.405 62.3935 26.79 63.8518 27.56 65.0885C28.33 66.3018 29.4033 67.2352 30.78 67.8885C32.1567 68.5418 33.7433 68.8685 35.54 68.8685L33.37 71.8785C30.15 71.8785 27.3267 71.1785 24.9 69.7785C22.4733 68.3785 20.5717 66.4885 19.195 64.1085C17.8183 61.7052 17.13 59.0452 17.13 56.1285C17.13 53.0718 17.7483 50.5635 18.985 48.6035C20.1983 46.6202 21.9017 45.1502 24.095 44.1935C26.265 43.2135 28.8083 42.7235 31.725 42.7235C32.915 42.7235 34.245 42.7235 35.715 42.7235C37.185 42.7235 38.69 42.7235 40.23 42.7235H55V53.5385ZM55 79.7185H17.83L17.83 68.8685H55V79.7185ZM55 36.0013H0.294997L0.294997 25.7113H31.62L30.5 27.8463L17.83 13.6713V0.371326L34.28 18.7813L30.15 16.4713L55 0.686328V12.0963L35.855 23.5763L36.065 20.8113L41.525 26.8313L36.87 25.7113H55V36.0013Z" fill="#161616"/>
</svg>
