<svg width="167" height="165" viewBox="0 0 167 165" fill="none" xmlns="http://www.w3.org/2000/svg">
<g filter="url(#filter0_d_97_388)">
<path d="M27.1921 60.6992L15.1991 55.0076L15.8589 53.6173L27.421 59.1043L26.3352 59.3561L28.878 53.9978L30.0976 54.5766L27.1921 60.6992Z" fill="#FCF9FD"/>
<path d="M30.8633 45.5564L29.8107 44.6827L34.53 38.9971L34.7038 39.4923C34.6761 39.4693 34.6507 39.4482 34.6276 39.4291C34.5999 39.4061 34.5745 39.385 34.5515 39.3658C34.1267 39.0133 33.6642 38.7814 33.1638 38.6702C32.6627 38.5506 32.1604 38.5781 31.6568 38.7526C31.1531 38.9272 30.6867 39.2731 30.2575 39.7902C29.8245 40.3118 29.554 40.8632 29.446 41.4442C29.3381 42.0252 29.3953 42.5951 29.6176 43.1539C29.8353 43.7089 30.2235 44.2183 30.7821 44.6819C31.35 45.1533 31.9275 45.4533 32.5146 45.582C33.1056 45.7061 33.6767 45.6616 34.2279 45.4485C34.7791 45.2354 35.2808 44.8565 35.733 44.3117C36.0549 43.9239 36.2954 43.5543 36.4545 43.2029C36.609 42.8477 36.6959 42.5222 36.7153 42.2264C36.7339 41.9221 36.7027 41.6544 36.6216 41.4234C36.5405 41.1923 36.4268 41.0004 36.2805 40.8479L37.2577 39.6706C37.534 39.9389 37.7506 40.2746 37.9073 40.6776C38.064 41.0806 38.1398 41.5295 38.1346 42.0243C38.1248 42.5152 38.0133 43.0347 37.8 43.5829C37.5867 44.131 37.2482 44.6844 36.7845 45.243C36.1714 45.9817 35.4695 46.4986 34.6788 46.7935C33.8881 47.0885 33.0724 47.16 32.2316 47.008C31.3947 46.8514 30.6046 46.4646 29.8613 45.8476C29.1088 45.2229 28.5827 44.5134 28.2831 43.7188C27.9789 42.9205 27.9009 42.1032 28.0491 41.2671C28.1972 40.431 28.5741 39.6482 29.1796 38.9188C29.7965 38.1755 30.4927 37.6656 31.2681 37.389C32.0435 37.1125 32.8354 37.0603 33.6439 37.2323C34.4478 37.4005 35.2075 37.7817 35.9231 38.3756C35.997 38.437 36.092 38.5197 36.2082 38.624C36.3244 38.7282 36.3995 38.8022 36.4334 38.846L30.8633 45.5564Z" fill="#FCF9FD"/>
<path d="M47.9867 34.7364C47.3925 35.1536 46.8065 35.4257 46.2286 35.5529C45.6557 35.6766 45.124 35.6504 44.6337 35.4741C44.1399 35.293 43.7207 34.9569 43.3759 34.4658C43.0173 33.9552 42.8516 33.4373 42.8789 32.9123C42.9027 32.3824 43.088 31.8527 43.4347 31.3233C43.7815 30.7939 44.2516 30.2732 44.8451 29.7611C45.7386 28.9871 46.3564 28.4104 46.6984 28.0309C47.037 27.6465 47.1305 27.3463 46.9788 27.1303C46.9753 27.1254 46.9736 27.1229 46.9736 27.1229C46.9701 27.118 46.9667 27.1131 46.9632 27.1082C46.646 26.6564 46.2257 26.4494 45.7023 26.487C45.1754 26.5197 44.5633 26.7809 43.866 27.2705C43.1393 27.7808 42.6643 28.3049 42.4409 28.843C42.2141 29.3762 42.2989 29.9251 42.6954 30.4898L41.458 31.3587C41.0477 30.7743 40.8493 30.1732 40.8626 29.5553C40.8725 28.9325 41.0668 28.3269 41.4454 27.7385C41.8289 27.1466 42.3693 26.6059 43.0666 26.1163C43.7049 25.668 44.3484 25.3628 44.997 25.2007C45.6471 25.0301 46.2563 25.0312 46.8248 25.2039C47.3947 25.3682 47.8762 25.7303 48.2693 26.2901C48.3417 26.3932 48.4141 26.4963 48.4865 26.5994C48.5555 26.6976 48.6262 26.7983 48.6986 26.9014L51.0104 30.1938C51.1311 30.3657 51.2557 30.5275 51.3842 30.6792C51.5127 30.8309 51.6372 30.956 51.7578 31.0547C51.9054 31.1709 52.039 31.2568 52.1585 31.3121C52.2746 31.3626 52.3619 31.3929 52.4204 31.4032L51.1609 32.2876C51.1191 32.2803 51.0426 32.2496 50.9315 32.1957C50.8168 32.1369 50.6943 32.0616 50.564 31.9699C50.4606 31.8958 50.3474 31.792 50.2243 31.6585C50.0978 31.5201 49.9777 31.3699 49.8639 31.2078L50.1684 31.203C50.2023 31.575 50.1427 31.9651 49.9894 32.3733C49.8411 32.7781 49.6003 33.1817 49.2672 33.5843C48.934 33.9869 48.5072 34.3709 47.9867 34.7364ZM47.3942 33.4698C47.9 33.1147 48.3032 32.7179 48.6039 32.2795C48.9011 31.8362 49.0632 31.3778 49.09 30.9044C49.1168 30.431 48.9716 29.9685 48.6544 29.5167L47.5632 27.9626L48.1741 28.2374C47.946 28.5809 47.6239 28.9574 47.2076 29.3669C46.7929 29.7681 46.3474 30.1726 45.8712 30.5803C45.178 31.1697 44.7096 31.6928 44.4659 32.1498C44.2272 32.6034 44.2665 33.056 44.5837 33.5078C44.8836 33.935 45.2659 34.1505 45.7304 34.1542C46.1914 34.1531 46.7461 33.9249 47.3942 33.4698Z" fill="#FCF9FD"/>
<path d="M58.5282 28.3859L54.9955 19.5047L56.4172 18.9392L57.5016 21.6655L56.9667 21.6845C56.8694 21.3423 56.8244 20.9856 56.8318 20.6146C56.8369 20.2381 56.9056 19.875 57.0377 19.5254C57.1732 19.168 57.3895 18.8431 57.6864 18.5506C57.9811 18.2526 58.3682 18.0082 58.8477 17.8175C59.2045 17.6756 59.5066 17.5909 59.754 17.5635C60.0047 17.5283 60.1646 17.5164 60.2337 17.5277L60.4212 19.0706C60.35 19.0538 60.2157 19.049 60.0185 19.0565C59.8269 19.0617 59.5749 19.1264 59.2627 19.2505C58.8 19.4346 58.4486 19.6713 58.2085 19.9605C57.9739 20.2475 57.8229 20.5659 57.7554 20.9156C57.6912 21.2575 57.6872 21.6046 57.7434 21.9567C57.7995 22.3089 57.8908 22.6439 58.0172 22.9617L59.9499 27.8204L58.5282 28.3859Z" fill="#FCF9FD"/>
<path d="M77.3051 23.3854L76.6798 18.8473C76.6421 18.5739 76.6114 18.351 76.5876 18.1786C76.563 18.0003 76.5397 17.8309 76.5176 17.6705C76.4496 17.1771 76.307 16.7577 76.0898 16.4121C75.8726 16.0665 75.5717 15.8172 75.1873 15.6643C74.8028 15.5113 74.3223 15.4746 73.7457 15.554C73.2405 15.6236 72.789 15.8191 72.3911 16.1404C71.9984 16.455 71.7015 16.8502 71.5006 17.3261C71.3048 17.7952 71.2442 18.3002 71.3187 18.8411L70.4084 18.6304C70.306 17.8874 70.3944 17.1878 70.6734 16.5316C70.9584 15.8745 71.3794 15.3259 71.9366 14.8857C72.4988 14.4388 73.1395 14.1658 73.8587 14.0667C74.5898 13.9659 75.248 14.0176 75.8334 14.2216C76.4187 14.4256 76.896 14.7686 77.2653 15.2507C77.6397 15.7261 77.8772 16.3293 77.978 17.0604C78.014 17.3219 78.0533 17.6072 78.0959 17.9163C78.1385 18.2254 78.1782 18.5137 78.2151 18.7811L78.8208 23.1766L77.3051 23.3854ZM70.5291 24.3192L69.2244 14.8506L70.7401 14.6418L72.0448 24.1103L70.5291 24.3192Z" fill="#FCF9FD"/>
<path d="M109.733 14.6268L112.242 15.4647L108.039 28.0566L106.656 27.5949L110.472 16.164L110.509 16.1953L103.489 26.5376L101.406 25.8422L101.992 13.3426L102.04 13.3398L98.2215 24.7792L96.8385 24.3175L101.042 11.7256L103.552 12.5635L102.829 25.0175L102.812 25.0118L109.733 14.6268Z" fill="#FCF9FD"/>
<path d="M118.478 34.5044C117.697 33.9464 117.13 33.2796 116.777 32.504C116.432 31.727 116.305 30.9137 116.396 30.0642C116.495 29.2133 116.822 28.3996 117.376 27.6233C117.931 26.847 118.591 26.2789 119.357 25.919C120.127 25.5626 120.933 25.4262 121.772 25.5099C122.617 25.5971 123.43 25.9196 124.211 26.4776C124.992 27.0356 125.559 27.6982 125.91 28.4654C126.267 29.2361 126.399 30.0421 126.307 30.8832C126.22 31.7279 125.899 32.5384 125.344 33.3147C124.79 34.091 124.124 34.6623 123.346 35.0284C122.577 35.3932 121.766 35.5369 120.915 35.4595C120.071 35.3807 119.259 35.0623 118.478 34.5044ZM119.294 33.3619C119.831 33.7455 120.39 33.9641 120.971 34.0178C121.552 34.0715 122.113 33.9631 122.652 33.6924C123.197 33.4253 123.677 33.0012 124.092 32.4202C124.507 31.8392 124.749 31.2526 124.818 30.6604C124.895 30.0669 124.811 29.5089 124.565 28.9865C124.322 28.4592 123.932 28.0037 123.395 27.6201C122.863 27.24 122.306 27.0189 121.723 26.9568C121.149 26.8934 120.592 26.9928 120.05 27.255C119.517 27.5159 119.043 27.9368 118.628 28.5178C118.214 29.0988 117.966 29.6886 117.885 30.287C117.809 30.8889 117.89 31.456 118.129 31.9882C118.374 32.5238 118.762 32.9817 119.294 33.3619Z" fill="#FCF9FD"/>
<path d="M127.738 42.3034L134.993 36.0811L135.989 37.2424L133.762 39.1525L133.571 38.6527C133.863 38.4496 134.186 38.2914 134.539 38.178C134.897 38.0608 135.263 38.008 135.636 38.0196C136.018 38.0318 136.396 38.131 136.769 38.317C137.146 38.4991 137.503 38.786 137.839 39.1777C138.089 39.4692 138.267 39.7275 138.373 39.9526C138.488 40.1784 138.551 40.3258 138.563 40.3948L137.164 41.0727C137.157 40.9998 137.118 40.8713 137.047 40.6871C136.98 40.5075 136.837 40.2902 136.618 40.0351C136.294 39.6571 135.956 39.4014 135.604 39.2681C135.257 39.1394 134.907 39.0998 134.554 39.1493C134.21 39.1996 133.88 39.3083 133.565 39.4757C133.25 39.643 132.963 39.838 132.703 40.0607L128.734 43.4648L127.738 42.3034Z" fill="#FCF9FD"/>
<path d="M139.422 50.9008L140.643 50.2846L143.971 56.8816L143.448 56.8432C143.48 56.827 143.51 56.8121 143.536 56.7986C143.569 56.7824 143.598 56.7675 143.625 56.754C144.118 56.5054 144.515 56.1739 144.817 55.7596C145.126 55.3479 145.302 54.8764 145.343 54.3449C145.384 53.8135 145.253 53.2478 144.95 52.6478C144.645 52.0425 144.247 51.5743 143.758 51.2434C143.268 50.9124 142.723 50.7373 142.122 50.718C141.526 50.696 140.904 50.8485 140.256 51.1755C139.597 51.508 139.091 51.9177 138.739 52.4046C138.389 52.8969 138.202 53.4383 138.177 54.0287C138.153 54.6191 138.3 55.2304 138.619 55.8625C138.846 56.3124 139.088 56.6805 139.347 56.9667C139.611 57.2502 139.875 57.4599 140.138 57.5958C140.41 57.7343 140.668 57.8125 140.912 57.8304C141.156 57.8483 141.377 57.8207 141.576 57.7475L142.265 59.1135C141.908 59.2597 141.514 59.3242 141.082 59.307C140.65 59.2898 140.208 59.18 139.757 58.9777C139.311 58.7727 138.879 58.463 138.461 58.0486C138.044 57.6342 137.672 57.1029 137.345 56.4547C136.912 55.5976 136.719 54.7477 136.764 53.905C136.809 53.0623 137.069 52.2859 137.544 51.5758C138.022 50.871 138.692 50.3011 139.555 49.8659C140.428 49.4254 141.289 49.2264 142.137 49.269C142.99 49.3088 143.771 49.5636 144.478 50.0333C145.185 50.503 145.753 51.161 146.18 52.0074C146.615 52.8699 146.804 53.7117 146.748 54.533C146.692 55.3543 146.424 56.1013 145.943 56.7738C145.468 57.4437 144.815 57.9881 143.985 58.407C143.899 58.4502 143.785 58.5043 143.643 58.5692C143.501 58.6341 143.404 58.6734 143.35 58.687L139.422 50.9008Z" fill="#FCF9FD"/>
<path d="M80.906 106.097C82.2728 107.464 84.4889 107.464 85.8557 106.097L108.13 83.8231C109.496 82.4562 109.496 80.2402 108.13 78.8733C106.763 77.5065 104.547 77.5065 103.18 78.8733L83.3809 98.6723L63.5819 78.8733C62.215 77.5065 59.999 77.5065 58.6321 78.8733C57.2653 80.2402 57.2653 82.4562 58.6321 83.8231L80.906 106.097ZM79.8809 53.6221L79.8809 103.622H86.8809L86.8809 53.6221H79.8809Z" fill="white" fill-opacity="0.7"/>
<path d="M139.571 96.545L151.564 102.236L150.904 103.627L139.342 98.1399L140.428 97.8881L137.885 103.246L136.665 102.668L139.571 96.545Z" fill="#FCF9FD"/>
<path d="M135.9 111.688L136.953 112.561L132.234 118.247L132.06 117.752C132.088 117.775 132.113 117.796 132.136 117.815C132.164 117.838 132.189 117.859 132.212 117.878C132.637 118.231 133.099 118.463 133.6 118.574C134.101 118.694 134.603 118.666 135.107 118.491C135.611 118.317 136.077 117.971 136.506 117.454C136.939 116.932 137.21 116.381 137.318 115.8C137.426 115.219 137.368 114.649 137.146 114.09C136.928 113.535 136.54 113.026 135.982 112.562C135.414 112.091 134.836 111.791 134.249 111.662C133.658 111.538 133.087 111.583 132.536 111.796C131.985 112.009 131.483 112.388 131.031 112.932C130.709 113.32 130.468 113.69 130.309 114.041C130.155 114.396 130.068 114.722 130.048 115.018C130.03 115.322 130.061 115.59 130.142 115.821C130.223 116.052 130.337 116.244 130.483 116.396L129.506 117.574C129.23 117.305 129.013 116.97 128.856 116.567C128.7 116.164 128.624 115.715 128.629 115.22C128.639 114.729 128.75 114.209 128.964 113.661C129.177 113.113 129.515 112.56 129.979 112.001C130.592 111.262 131.294 110.746 132.085 110.451C132.876 110.156 133.691 110.084 134.532 110.236C135.369 110.393 136.159 110.78 136.902 111.397C137.655 112.021 138.181 112.731 138.481 113.525C138.785 114.324 138.863 115.141 138.715 115.977C138.566 116.813 138.19 117.596 137.584 118.325C136.967 119.069 136.271 119.579 135.496 119.855C134.72 120.132 133.928 120.184 133.12 120.012C132.316 119.844 131.556 119.462 130.841 118.869C130.767 118.807 130.672 118.724 130.555 118.62C130.439 118.516 130.364 118.442 130.33 118.398L135.9 111.688Z" fill="#FCF9FD"/>
<path d="M118.776 122.508C119.37 122.091 119.956 121.818 120.534 121.691C121.107 121.568 121.639 121.594 122.129 121.77C122.623 121.951 123.042 122.287 123.387 122.778C123.745 123.289 123.911 123.807 123.884 124.332C123.86 124.862 123.675 125.391 123.328 125.921C122.981 126.45 122.511 126.971 121.918 127.483C121.024 128.257 120.406 128.834 120.064 129.213C119.726 129.598 119.632 129.898 119.784 130.114C119.787 130.119 119.789 130.121 119.789 130.121C119.793 130.126 119.796 130.131 119.799 130.136C120.117 130.588 120.537 130.795 121.06 130.757C121.587 130.724 122.199 130.463 122.897 129.974C123.623 129.463 124.098 128.939 124.322 128.401C124.549 127.868 124.464 127.319 124.067 126.754L125.305 125.885C125.715 126.47 125.913 127.071 125.9 127.689C125.89 128.312 125.696 128.917 125.317 129.506C124.934 130.098 124.393 130.638 123.696 131.128C123.058 131.576 122.414 131.881 121.766 132.043C121.116 132.214 120.506 132.213 119.938 132.04C119.368 131.876 118.886 131.514 118.493 130.954C118.421 130.851 118.349 130.748 118.276 130.645C118.207 130.547 118.137 130.446 118.064 130.343L115.752 127.05C115.632 126.878 115.507 126.717 115.379 126.565C115.25 126.413 115.125 126.288 115.005 126.189C114.857 126.073 114.724 125.987 114.604 125.932C114.488 125.882 114.401 125.851 114.342 125.841L115.602 124.957C115.644 124.964 115.72 124.994 115.831 125.048C115.946 125.107 116.068 125.182 116.199 125.274C116.302 125.348 116.415 125.452 116.538 125.586C116.665 125.724 116.785 125.874 116.899 126.036L116.594 126.041C116.56 125.669 116.62 125.279 116.773 124.871C116.922 124.466 117.162 124.062 117.496 123.66C117.829 123.257 118.256 122.873 118.776 122.508ZM119.368 123.774C118.863 124.129 118.459 124.526 118.159 124.965C117.862 125.408 117.7 125.866 117.673 126.34C117.646 126.813 117.791 127.276 118.108 127.727L119.2 129.282L118.589 129.007C118.817 128.663 119.139 128.287 119.555 127.877C119.97 127.476 120.415 127.072 120.892 126.664C121.585 126.074 122.053 125.551 122.297 125.094C122.535 124.641 122.496 124.188 122.179 123.736C121.879 123.309 121.497 123.094 121.032 123.09C120.571 123.091 120.017 123.319 119.368 123.774Z" fill="#FCF9FD"/>
<path d="M108.234 128.858L111.766 137.739L110.345 138.305L109.26 135.579L109.795 135.56C109.892 135.902 109.937 136.258 109.93 136.629C109.925 137.006 109.856 137.369 109.724 137.719C109.588 138.076 109.372 138.401 109.075 138.694C108.781 138.992 108.394 139.236 107.914 139.427C107.557 139.569 107.255 139.653 107.008 139.681C106.757 139.716 106.597 139.728 106.528 139.716L106.34 138.174C106.412 138.19 106.546 138.195 106.743 138.188C106.935 138.182 107.187 138.118 107.499 137.994C107.962 137.81 108.313 137.573 108.553 137.284C108.788 136.997 108.939 136.678 109.006 136.329C109.07 135.987 109.075 135.64 109.018 135.287C108.962 134.935 108.871 134.6 108.745 134.282L106.812 129.424L108.234 128.858Z" fill="#FCF9FD"/>
<path d="M89.4576 133.859L90.0829 138.397C90.1206 138.67 90.1513 138.893 90.1751 139.065C90.1997 139.244 90.223 139.413 90.2451 139.574C90.3131 140.067 90.4557 140.486 90.6729 140.832C90.8901 141.178 91.1909 141.427 91.5754 141.58C91.9599 141.733 92.4404 141.77 93.017 141.69C93.5222 141.621 93.9737 141.425 94.3716 141.104C94.7643 140.789 95.0612 140.394 95.2621 139.918C95.4579 139.449 95.5185 138.944 95.444 138.403L96.3543 138.614C96.4566 139.357 96.3683 140.056 96.0893 140.713C95.8043 141.37 95.3833 141.918 94.8261 142.358C94.2639 142.805 93.6232 143.078 92.9039 143.177C92.1729 143.278 91.5146 143.227 90.9293 143.023C90.344 142.819 89.8667 142.476 89.4974 141.993C89.123 141.518 88.8855 140.915 88.7847 140.184C88.7487 139.922 88.7094 139.637 88.6668 139.328C88.6242 139.019 88.5845 138.73 88.5476 138.463L87.9419 134.068L89.4576 133.859ZM96.2336 132.925L97.5383 142.394L96.0226 142.602L94.7179 133.134L96.2336 132.925Z" fill="#FCF9FD"/>
<path d="M57.0301 142.617L54.5202 141.779L58.7238 129.188L60.1068 129.649L56.2908 141.08L56.2538 141.049L63.274 130.707L65.357 131.402L64.7707 143.902L64.7224 143.904L68.5412 132.465L69.9242 132.927L65.7206 145.519L63.2108 144.681L63.9336 132.227L63.9506 132.232L57.0301 142.617Z" fill="#FCF9FD"/>
<path d="M48.2838 122.74C49.065 123.298 49.632 123.965 49.985 124.74C50.3296 125.517 50.4565 126.33 50.3658 127.18C50.2668 128.031 49.9401 128.845 49.3856 129.621C48.8311 130.397 48.1709 130.965 47.4051 131.325C46.6344 131.682 45.8291 131.818 44.9893 131.734C44.1447 131.647 43.3318 131.325 42.5506 130.767C41.7694 130.209 41.203 129.546 40.8515 128.779C40.495 128.008 40.3629 127.202 40.4549 126.361C40.5421 125.516 40.8629 124.706 41.4174 123.929C41.9719 123.153 42.638 122.582 43.4157 122.216C44.185 121.851 44.9955 121.707 45.8471 121.785C46.6904 121.863 47.5026 122.182 48.2838 122.74ZM47.4677 123.882C46.9307 123.499 46.3716 123.28 45.7906 123.226C45.2096 123.173 44.6492 123.281 44.1093 123.552C43.5646 123.819 43.0848 124.243 42.6698 124.824C42.2548 125.405 42.0127 125.992 41.9437 126.584C41.8663 127.177 41.9507 127.735 42.1969 128.258C42.4396 128.785 42.8295 129.24 43.3666 129.624C43.8988 130.004 44.4561 130.225 45.0385 130.287C45.6125 130.351 46.1702 130.251 46.7114 129.989C47.2443 129.728 47.7182 129.307 48.1332 128.726C48.5482 128.145 48.7962 127.556 48.8771 126.957C48.9531 126.355 48.8715 125.788 48.6322 125.256C48.3881 124.72 47.9999 124.262 47.4677 123.882Z" fill="#FCF9FD"/>
<path d="M39.0235 114.941L31.7683 121.163L30.7723 120.002L32.9994 118.092L33.1909 118.591C32.8987 118.795 32.576 118.953 32.2226 119.066C31.8647 119.183 31.499 119.236 31.1254 119.225C30.7434 119.212 30.3659 119.113 29.993 118.927C29.6155 118.745 29.2588 118.458 28.9228 118.066C28.6728 117.775 28.4948 117.517 28.3886 117.292C28.274 117.066 28.2109 116.918 28.1991 116.849L29.5978 116.171C29.605 116.244 29.6441 116.373 29.7151 116.557C29.7821 116.737 29.9251 116.954 30.1438 117.209C30.468 117.587 30.8058 117.843 31.1573 117.976C31.5049 118.105 31.855 118.144 32.2077 118.095C32.552 118.045 32.8816 117.936 33.1965 117.768C33.5114 117.601 33.7987 117.406 34.0583 117.183L38.0275 113.779L39.0235 114.941Z" fill="#FCF9FD"/>
<path d="M27.342 106.343L26.1206 106.96L22.7923 100.363L23.3157 100.401C23.2835 100.417 23.2541 100.432 23.2273 100.446C23.1951 100.462 23.1657 100.477 23.1389 100.49C22.6461 100.739 22.2488 101.07 21.9471 101.485C21.6373 101.896 21.4619 102.368 21.4209 102.899C21.3799 103.431 21.5107 103.996 21.8134 104.596C22.1188 105.202 22.5163 105.67 23.0059 106.001C23.4954 106.332 24.0408 106.507 24.6419 106.526C25.2377 106.548 25.8596 106.396 26.5078 106.069C27.1667 105.736 27.6724 105.326 28.0248 104.84C28.3745 104.347 28.5618 103.806 28.5865 103.215C28.6112 102.625 28.464 102.014 28.1451 101.382C27.9181 100.932 27.6753 100.564 27.4167 100.277C27.1527 99.994 26.8889 99.7843 26.6255 99.6484C26.354 99.5098 26.0961 99.4316 25.8519 99.4137C25.6076 99.3958 25.3863 99.4234 25.188 99.4966L24.4989 98.1306C24.8552 97.9844 25.2494 97.9199 25.6815 97.9372C26.1136 97.9544 26.5554 98.0642 27.0069 98.2664C27.4531 98.4715 27.8848 98.7812 28.3023 99.1956C28.7197 99.61 29.0919 100.141 29.4189 100.789C29.8513 101.647 30.0449 102.496 29.9997 103.339C29.9544 104.182 29.6942 104.958 29.2192 105.668C28.7414 106.373 28.0713 106.943 27.2089 107.378C26.3357 107.819 25.4751 108.018 24.627 107.975C23.7736 107.935 22.9932 107.681 22.2857 107.211C21.5783 106.741 21.0111 106.083 20.5841 105.237C20.149 104.374 19.9595 103.532 20.0155 102.711C20.0716 101.89 20.3399 101.143 20.8205 100.47C21.2957 99.8005 21.9484 99.2561 22.7787 98.8372C22.8644 98.7939 22.9783 98.7399 23.1203 98.6749C23.2622 98.61 23.36 98.5708 23.4137 98.5572L27.342 106.343Z" fill="#FCF9FD"/>
</g>
<defs>
<filter id="filter0_d_97_388" x="-1" y="-2" width="168.763" height="169.244" filterUnits="userSpaceOnUse" color-interpolation-filters="sRGB">
<feFlood flood-opacity="0" result="BackgroundImageFix"/>
<feColorMatrix in="SourceAlpha" type="matrix" values="0 0 0 0 0 0 0 0 0 0 0 0 0 0 0 0 0 0 127 0" result="hardAlpha"/>
<feOffset dy="4"/>
<feGaussianBlur stdDeviation="7.5"/>
<feComposite in2="hardAlpha" operator="out"/>
<feColorMatrix type="matrix" values="0 0 0 0 0 0 0 0 0 0 0 0 0 0 0 0 0 0 0.5 0"/>
<feBlend mode="normal" in2="BackgroundImageFix" result="effect1_dropShadow_97_388"/>
<feBlend mode="normal" in="SourceGraphic" in2="effect1_dropShadow_97_388" result="shape"/>
</filter>
</defs>
</svg>
