<svg width="179" height="66" viewBox="0 0 179 66" fill="none" xmlns="http://www.w3.org/2000/svg">
<rect width="179" height="66" rx="33" fill="black"/>
<path d="M33.65 24.5625L35.4 22.7125V30.475L34.2 29.5H41.7375V32.5H34.2L35.4 31.45V40H31.525V21.5625H42.85V24.5625H33.65ZM44.942 40V26.725H48.8295V31.3L48.0295 30.8C48.1212 30.175 48.2878 29.6 48.5295 29.075C48.7712 28.55 49.0837 28.0958 49.467 27.7125C49.8503 27.3208 50.3045 27.0167 50.8295 26.8C51.3628 26.5833 51.9712 26.475 52.6545 26.475C53.1878 26.475 53.6045 26.5167 53.9045 26.6C54.2128 26.675 54.4045 26.7333 54.4795 26.775L53.842 30.25C53.767 30.2083 53.6003 30.1417 53.342 30.05C53.0837 29.9583 52.7503 29.9125 52.342 29.9125C51.6753 29.9125 51.117 30.025 50.667 30.25C50.217 30.475 49.8545 30.775 49.5795 31.15C49.3128 31.5167 49.1212 31.925 49.0045 32.375C48.8878 32.825 48.8295 33.2792 48.8295 33.7375V40H44.942ZM57.7594 34.525V31.9625H66.5594L66.1844 32.6125C66.1844 32.5458 66.1844 32.4833 66.1844 32.425C66.1844 32.3583 66.1844 32.2958 66.1844 32.2375C66.1844 31.7625 66.0719 31.3083 65.8469 30.875C65.6219 30.4333 65.2719 30.075 64.7969 29.8C64.3302 29.5167 63.7302 29.375 62.9969 29.375C62.2635 29.375 61.6302 29.5333 61.0969 29.85C60.5719 30.1583 60.1677 30.6042 59.8844 31.1875C59.6094 31.7708 59.4719 32.475 59.4719 33.3C59.4719 34.15 59.6052 34.8792 59.8719 35.4875C60.1469 36.0875 60.551 36.55 61.0844 36.875C61.626 37.2 62.2969 37.3625 63.0969 37.3625C63.6135 37.3625 64.0594 37.3167 64.4344 37.225C64.8094 37.125 65.1135 37 65.3469 36.85C65.5885 36.7 65.7719 36.5333 65.8969 36.35C66.0219 36.1667 66.0969 35.9875 66.1219 35.8125H69.9469C69.8969 36.3708 69.7052 36.9208 69.3719 37.4625C69.0385 37.9958 68.576 38.4792 67.9844 38.9125C67.3927 39.3375 66.6719 39.675 65.8219 39.925C64.9802 40.175 64.0177 40.3 62.9344 40.3C61.4677 40.3 60.1885 40.0083 59.0969 39.425C58.0052 38.8333 57.1594 38.0208 56.5594 36.9875C55.9594 35.9458 55.6594 34.7458 55.6594 33.3875C55.6594 32.0125 55.9635 30.8083 56.5719 29.775C57.1885 28.7333 58.0427 27.925 59.1344 27.35C60.2344 26.7667 61.5052 26.475 62.9469 26.475C64.4219 26.475 65.6969 26.7708 66.7719 27.3625C67.8469 27.9458 68.676 28.7667 69.2594 29.825C69.8427 30.875 70.1344 32.1 70.1344 33.5C70.1344 33.7083 70.1302 33.9083 70.1219 34.1C70.1135 34.2917 70.101 34.4333 70.0844 34.525H57.7594ZM74.1186 34.525V31.9625H82.9186L82.5436 32.6125C82.5436 32.5458 82.5436 32.4833 82.5436 32.425C82.5436 32.3583 82.5436 32.2958 82.5436 32.2375C82.5436 31.7625 82.4311 31.3083 82.2061 30.875C81.9811 30.4333 81.6311 30.075 81.1561 29.8C80.6894 29.5167 80.0894 29.375 79.3561 29.375C78.6227 29.375 77.9894 29.5333 77.4561 29.85C76.9311 30.1583 76.5269 30.6042 76.2436 31.1875C75.9686 31.7708 75.8311 32.475 75.8311 33.3C75.8311 34.15 75.9644 34.8792 76.2311 35.4875C76.5061 36.0875 76.9102 36.55 77.4436 36.875C77.9852 37.2 78.6561 37.3625 79.4561 37.3625C79.9727 37.3625 80.4186 37.3167 80.7936 37.225C81.1686 37.125 81.4727 37 81.7061 36.85C81.9477 36.7 82.1311 36.5333 82.2561 36.35C82.3811 36.1667 82.4561 35.9875 82.4811 35.8125H86.3061C86.2561 36.3708 86.0644 36.9208 85.7311 37.4625C85.3977 37.9958 84.9352 38.4792 84.3436 38.9125C83.7519 39.3375 83.0311 39.675 82.1811 39.925C81.3394 40.175 80.3769 40.3 79.2936 40.3C77.8269 40.3 76.5477 40.0083 75.4561 39.425C74.3644 38.8333 73.5186 38.0208 72.9186 36.9875C72.3186 35.9458 72.0186 34.7458 72.0186 33.3875C72.0186 32.0125 72.3227 30.8083 72.9311 29.775C73.5477 28.7333 74.4019 27.925 75.4936 27.35C76.5936 26.7667 77.8644 26.475 79.3061 26.475C80.7811 26.475 82.0561 26.7708 83.1311 27.3625C84.2061 27.9458 85.0352 28.7667 85.6186 29.825C86.2019 30.875 86.4936 32.1 86.4936 33.5C86.4936 33.7083 86.4894 33.9083 86.4811 34.1C86.4727 34.2917 86.4602 34.4333 86.4436 34.525H74.1186ZM107.565 24.5625H101.478L103.028 22.7125V40H99.1652V22.7125L100.765 24.5625H94.6402V21.5625H107.565V24.5625ZM108.501 40V26.725H112.388V31.3L111.588 30.8C111.68 30.175 111.846 29.6 112.088 29.075C112.33 28.55 112.642 28.0958 113.026 27.7125C113.409 27.3208 113.863 27.0167 114.388 26.8C114.921 26.5833 115.53 26.475 116.213 26.475C116.746 26.475 117.163 26.5167 117.463 26.6C117.771 26.675 117.963 26.7333 118.038 26.775L117.401 30.25C117.326 30.2083 117.159 30.1417 116.901 30.05C116.642 29.9583 116.309 29.9125 115.901 29.9125C115.234 29.9125 114.676 30.025 114.226 30.25C113.776 30.475 113.413 30.775 113.138 31.15C112.871 31.5167 112.68 31.925 112.563 32.375C112.446 32.825 112.388 33.2792 112.388 33.7375V40H108.501ZM119.925 40V26.725H123.762V40H119.925ZM121.837 24.5625C121.237 24.5625 120.712 24.4042 120.262 24.0875C119.82 23.7708 119.6 23.325 119.6 22.75C119.6 22.1667 119.82 21.7167 120.262 21.4C120.712 21.0833 121.237 20.925 121.837 20.925C122.445 20.925 122.97 21.0833 123.412 21.4C123.862 21.7167 124.087 22.1667 124.087 22.75C124.087 23.3333 123.862 23.7833 123.412 24.1C122.97 24.4083 122.445 24.5625 121.837 24.5625ZM131.193 40.275C130.226 40.275 129.363 40.1208 128.605 39.8125C127.855 39.5042 127.268 39.0583 126.843 38.475C126.418 37.8917 126.205 37.1833 126.205 36.35C126.205 35.4083 126.463 34.6417 126.98 34.05C127.497 33.4583 128.18 33.0083 129.03 32.7C129.888 32.3833 130.818 32.175 131.818 32.075C133.276 31.9333 134.28 31.8042 134.83 31.6875C135.388 31.5708 135.668 31.3667 135.668 31.075C135.668 31.0667 135.668 31.0583 135.668 31.05C135.668 30.5583 135.43 30.1708 134.955 29.8875C134.488 29.6042 133.834 29.4625 132.993 29.4625C132.101 29.4625 131.418 29.625 130.943 29.95C130.476 30.2667 130.243 30.7542 130.243 31.4125H126.43C126.43 30.3458 126.718 29.4458 127.293 28.7125C127.876 27.9792 128.663 27.425 129.655 27.05C130.647 26.6667 131.768 26.475 133.018 26.475C134.184 26.475 135.263 26.6542 136.255 27.0125C137.247 27.3625 138.043 27.8917 138.643 28.6C139.251 29.3083 139.555 30.2083 139.555 31.3C139.555 31.475 139.555 31.65 139.555 31.825C139.555 31.9917 139.555 32.1625 139.555 32.3375V37.0375C139.555 37.3792 139.563 37.7083 139.58 38.025C139.605 38.3333 139.655 38.6167 139.73 38.875C139.813 39.1667 139.918 39.4083 140.043 39.6C140.168 39.7917 140.272 39.925 140.355 40H136.543C136.484 39.9417 136.393 39.8208 136.268 39.6375C136.151 39.4542 136.051 39.2417 135.968 39C135.868 38.7083 135.793 38.4167 135.743 38.125C135.701 37.825 135.68 37.475 135.68 37.075L136.48 37.625C136.247 38.175 135.868 38.65 135.343 39.05C134.826 39.4417 134.209 39.7458 133.493 39.9625C132.784 40.1708 132.018 40.275 131.193 40.275ZM132.23 37.375C132.838 37.375 133.405 37.2667 133.93 37.05C134.463 36.825 134.897 36.475 135.23 36C135.563 35.525 135.73 34.9042 135.73 34.1375V32.8L136.693 33.7375C136.143 33.9375 135.505 34.1042 134.78 34.2375C134.063 34.3625 133.347 34.4625 132.63 34.5375C131.78 34.6208 131.143 34.7667 130.718 34.975C130.301 35.175 130.093 35.5167 130.093 36C130.093 36.4583 130.272 36.8042 130.63 37.0375C130.988 37.2625 131.522 37.375 132.23 37.375ZM146.478 20.4625V40H142.653V20.4625H146.478Z" fill="white"/>
</svg>
