<svg width="270" height="100" viewBox="0 0 270 100" fill="none" xmlns="http://www.w3.org/2000/svg">
<g filter="url(#filter0_i_183_328)">
<path d="M0 0H220C247.614 0 270 22.3858 270 50V50C270 77.6142 247.614 100 220 100H0V0Z" fill="white"/>
<path d="M55.225 51.525C55.225 53.125 54.9167 54.75 54.3 56.4C53.7 58.05 52.7833 59.5667 51.55 60.95C50.3333 62.3333 48.7833 63.4583 46.9 64.325C45.0333 65.175 42.8167 65.6 40.25 65.6C36.8333 65.6 33.9167 64.7917 31.5 63.175C29.0833 61.5417 27.2333 59.2917 25.95 56.425C24.6833 53.5583 24.05 50.2667 24.05 46.55C24.05 42.8333 24.6833 39.55 25.95 36.7C27.2333 33.85 29.0833 31.6167 31.5 30C33.9167 28.3833 36.8333 27.575 40.25 27.575C43.1 27.575 45.525 28.0917 47.525 29.125C49.5417 30.1583 51.15 31.5 52.35 33.15C53.5667 34.8 54.3917 36.5417 54.825 38.375C55.0917 39.4917 55.225 40.5667 55.225 41.6H47.45C47.45 41.1 47.4083 40.6167 47.325 40.15C47.1583 38.9333 46.775 37.85 46.175 36.9C45.575 35.95 44.775 35.2 43.775 34.65C42.7917 34.0833 41.6167 33.8 40.25 33.8C38.65 33.8 37.225 34.2583 35.975 35.175C34.725 36.0917 33.7417 37.4917 33.025 39.375C32.3083 41.2583 31.95 43.65 31.95 46.55C31.95 49.4667 32.3083 51.875 33.025 53.775C33.7417 55.6583 34.725 57.0667 35.975 58C37.225 58.9167 38.65 59.375 40.25 59.375C41.4 59.375 42.4167 59.1667 43.3 58.75C44.2 58.3333 44.95 57.7583 45.55 57.025C46.1667 56.2917 46.6333 55.45 46.95 54.5C47.2833 53.55 47.45 52.5583 47.45 51.525H55.225ZM70.3039 25.925V65H62.6539V25.925H70.3039ZM91.7879 65.575C88.9212 65.575 86.3962 64.9833 84.2129 63.8C82.0296 62.6167 80.3212 60.9917 79.0879 58.925C77.8712 56.8417 77.2629 54.4417 77.2629 51.725C77.2629 49.025 77.8712 46.6417 79.0879 44.575C80.3212 42.4917 82.0296 40.875 84.2129 39.725C86.3962 38.5583 88.9212 37.975 91.7879 37.975C94.6546 37.975 97.1796 38.5583 99.3629 39.725C101.546 40.875 103.246 42.4917 104.463 44.575C105.696 46.6417 106.313 49.025 106.313 51.725C106.313 54.4417 105.696 56.8417 104.463 58.925C103.246 60.9917 101.546 62.6167 99.3629 63.8C97.1796 64.9833 94.6546 65.575 91.7879 65.575ZM91.7879 59.425C93.1379 59.425 94.3129 59.1083 95.3129 58.475C96.3129 57.8417 97.0879 56.95 97.6379 55.8C98.1879 54.6333 98.4629 53.275 98.4629 51.725C98.4629 50.175 98.1879 48.8333 97.6379 47.7C97.0879 46.55 96.3129 45.6667 95.3129 45.05C94.3129 44.4333 93.1379 44.125 91.7879 44.125C90.4546 44.125 89.2796 44.4333 88.2629 45.05C87.2629 45.6667 86.4879 46.55 85.9379 47.7C85.3879 48.8333 85.1129 50.175 85.1129 51.725C85.1129 53.275 85.3879 54.6333 85.9379 55.8C86.4879 56.95 87.2629 57.8417 88.2629 58.475C89.2796 59.1083 90.4546 59.425 91.7879 59.425ZM124.204 65.6C122.621 65.6 121.096 65.4167 119.629 65.05C118.162 64.6833 116.846 64.1417 115.679 63.425C114.529 62.7083 113.612 61.8167 112.929 60.75C112.262 59.6667 111.929 58.4083 111.929 56.975C111.929 56.9083 111.929 56.8333 111.929 56.75C111.929 56.65 111.929 56.575 111.929 56.525H119.629C119.629 56.575 119.629 56.6333 119.629 56.7C119.629 56.75 119.629 56.8083 119.629 56.875C119.629 57.8417 120.054 58.55 120.904 59C121.771 59.45 122.937 59.675 124.404 59.675C125.171 59.675 125.904 59.6 126.604 59.45C127.321 59.2833 127.904 59.025 128.354 58.675C128.821 58.3083 129.054 57.85 129.054 57.3C129.054 56.4167 128.562 55.7917 127.579 55.425C126.612 55.0583 125.054 54.6917 122.904 54.325C121.687 54.125 120.454 53.8417 119.204 53.475C117.954 53.1083 116.804 52.625 115.754 52.025C114.704 51.4083 113.862 50.6333 113.229 49.7C112.596 48.75 112.279 47.6 112.279 46.25C112.279 44.45 112.821 42.9333 113.904 41.7C115.004 40.4667 116.462 39.5333 118.279 38.9C120.096 38.2667 122.096 37.95 124.279 37.95C126.362 37.95 128.304 38.3 130.104 39C131.904 39.6833 133.362 40.675 134.479 41.975C135.596 43.2583 136.154 44.8083 136.154 46.625C136.154 46.6583 136.154 46.7083 136.154 46.775C136.154 46.8417 136.154 46.9083 136.154 46.975H128.529C128.529 46.9083 128.529 46.85 128.529 46.8C128.529 46.75 128.529 46.7083 128.529 46.675C128.529 46.0083 128.312 45.4667 127.879 45.05C127.462 44.6333 126.929 44.325 126.279 44.125C125.629 43.9083 124.954 43.8 124.254 43.8C123.621 43.8 122.962 43.875 122.279 44.025C121.612 44.1583 121.046 44.3917 120.579 44.725C120.112 45.0417 119.879 45.4917 119.879 46.075C119.879 46.6417 120.129 47.1083 120.629 47.475C121.129 47.825 121.829 48.1167 122.729 48.35C123.629 48.5667 124.671 48.775 125.854 48.975C126.971 49.1583 128.146 49.4167 129.379 49.75C130.629 50.0667 131.796 50.525 132.879 51.125C133.979 51.7083 134.862 52.4833 135.529 53.45C136.212 54.4 136.554 55.6083 136.554 57.075C136.554 58.5917 136.204 59.8917 135.504 60.975C134.804 62.0583 133.854 62.9417 132.654 63.625C131.471 64.2917 130.146 64.7833 128.679 65.1C127.229 65.4333 125.737 65.6 124.204 65.6ZM146.352 54.05V48.925H163.952L163.202 50.225C163.202 50.0917 163.202 49.9667 163.202 49.85C163.202 49.7167 163.202 49.5917 163.202 49.475C163.202 48.525 162.977 47.6167 162.527 46.75C162.077 45.8667 161.377 45.15 160.427 44.6C159.493 44.0333 158.293 43.75 156.827 43.75C155.36 43.75 154.093 44.0667 153.027 44.7C151.977 45.3167 151.168 46.2083 150.602 47.375C150.052 48.5417 149.777 49.95 149.777 51.6C149.777 53.3 150.043 54.7583 150.577 55.975C151.127 57.175 151.935 58.1 153.002 58.75C154.085 59.4 155.427 59.725 157.027 59.725C158.06 59.725 158.952 59.6333 159.702 59.45C160.452 59.25 161.06 59 161.527 58.7C162.01 58.4 162.377 58.0667 162.627 57.7C162.877 57.3333 163.027 56.975 163.077 56.625H170.727C170.627 57.7417 170.243 58.8417 169.577 59.925C168.91 60.9917 167.985 61.9583 166.802 62.825C165.618 63.675 164.177 64.35 162.477 64.85C160.793 65.35 158.868 65.6 156.702 65.6C153.768 65.6 151.21 65.0167 149.027 63.85C146.843 62.6667 145.152 61.0417 143.952 58.975C142.752 56.8917 142.152 54.4917 142.152 51.775C142.152 49.025 142.76 46.6167 143.977 44.55C145.21 42.4667 146.918 40.85 149.102 39.7C151.302 38.5333 153.843 37.95 156.727 37.95C159.677 37.95 162.227 38.5417 164.377 39.725C166.527 40.8917 168.185 42.5333 169.352 44.65C170.518 46.75 171.102 49.2 171.102 52C171.102 52.4167 171.093 52.8167 171.077 53.2C171.06 53.5833 171.035 53.8667 171.002 54.05H146.352ZM177.945 65V38.45H185.72V47.6L184.12 46.6C184.303 45.35 184.637 44.2 185.12 43.15C185.603 42.1 186.228 41.1917 186.995 40.425C187.762 39.6417 188.67 39.0333 189.72 38.6C190.787 38.1667 192.003 37.95 193.37 37.95C194.437 37.95 195.27 38.0333 195.87 38.2C196.487 38.35 196.87 38.4667 197.02 38.55L195.745 45.5C195.595 45.4167 195.262 45.2833 194.745 45.1C194.228 44.9167 193.562 44.825 192.745 44.825C191.412 44.825 190.295 45.05 189.395 45.5C188.495 45.95 187.77 46.55 187.22 47.3C186.687 48.0333 186.303 48.85 186.07 49.75C185.837 50.65 185.72 51.5583 185.72 52.475V65H177.945Z" fill="black"/>
<path d="M0.5 0.5H220C247.338 0.5 269.5 22.6619 269.5 50C269.5 77.3381 247.338 99.5 220 99.5H0.5V0.5Z" stroke="#AE16F7"/>
</g>
<defs>
<filter id="filter0_i_183_328" x="0" y="0" width="270" height="104" filterUnits="userSpaceOnUse" color-interpolation-filters="sRGB">
<feFlood flood-opacity="0" result="BackgroundImageFix"/>
<feBlend mode="normal" in="SourceGraphic" in2="BackgroundImageFix" result="shape"/>
<feColorMatrix in="SourceAlpha" type="matrix" values="0 0 0 0 0 0 0 0 0 0 0 0 0 0 0 0 0 0 127 0" result="hardAlpha"/>
<feOffset dy="4"/>
<feGaussianBlur stdDeviation="5"/>
<feComposite in2="hardAlpha" operator="arithmetic" k2="-1" k3="1"/>
<feColorMatrix type="matrix" values="0 0 0 0 0 0 0 0 0 0 0 0 0 0 0 0 0 0 0.2 0"/>
<feBlend mode="normal" in2="shape" result="effect1_innerShadow_183_328"/>
</filter>
</defs>
</svg>
