<svg width="167" height="165" viewBox="0 0 167 165" fill="none" xmlns="http://www.w3.org/2000/svg">
<g filter="url(#filter0_d_58_286)">
<path d="M27.1921 60.6993L15.1991 55.0078L15.8589 53.6174L27.421 59.1044L26.3352 59.3562L28.878 53.9979L30.0976 54.5767L27.1921 60.6993Z" fill="#191319"/>
<path d="M30.8628 45.5564L29.8102 44.6827L34.5295 38.9972L34.7033 39.4923C34.6756 39.4693 34.6502 39.4483 34.6271 39.4291C34.5994 39.4061 34.574 39.385 34.551 39.3659C34.1262 39.0133 33.6637 38.7814 33.1634 38.6702C32.6622 38.5506 32.1599 38.5781 31.6563 38.7527C31.1526 38.9273 30.6862 39.2731 30.257 39.7902C29.824 40.3119 29.5535 40.8632 29.4455 41.4442C29.3376 42.0252 29.3948 42.5951 29.6171 43.1539C29.8348 43.7089 30.223 44.2183 30.7816 44.682C31.3495 45.1533 31.927 45.4534 32.5142 45.5821C33.1052 45.7061 33.6762 45.6616 34.2274 45.4485C34.7786 45.2354 35.2803 44.8565 35.7325 44.3117C36.0544 43.9239 36.2949 43.5543 36.454 43.2029C36.6085 42.8477 36.6954 42.5222 36.7148 42.2264C36.7334 41.9221 36.7022 41.6545 36.6211 41.4234C36.54 41.1923 36.4263 41.0005 36.28 40.8479L37.2572 39.6706C37.5335 39.939 37.7501 40.2746 37.9068 40.6776C38.0635 41.0807 38.1393 41.5295 38.1341 42.0243C38.1243 42.5152 38.0128 43.0347 37.7995 43.5829C37.5862 44.131 37.2477 44.6844 36.784 45.2431C36.1709 45.9817 35.469 46.4986 34.6783 46.7936C33.8876 47.0886 33.0719 47.1601 32.2311 47.008C31.3942 46.8514 30.6041 46.4646 29.8608 45.8476C29.1083 45.223 28.5822 44.5134 28.2826 43.7189C27.9784 42.9205 27.9004 42.1033 28.0486 41.2671C28.1968 40.431 28.5736 39.6483 29.1791 38.9188C29.796 38.1755 30.4922 37.6656 31.2676 37.3891C32.043 37.1125 32.8349 37.0603 33.6434 37.2324C34.4473 37.4006 35.207 37.7817 35.9226 38.3757C35.9965 38.437 36.0915 38.5198 36.2077 38.624C36.3239 38.7283 36.399 38.8023 36.4329 38.846L30.8628 45.5564Z" fill="#191319"/>
<path d="M47.9867 34.7363C47.3925 35.1535 46.8065 35.4257 46.2286 35.5528C45.6557 35.6766 45.124 35.6503 44.6337 35.4741C44.1399 35.2929 43.7207 34.9568 43.3759 34.4658C43.0173 33.9551 42.8516 33.4373 42.8789 32.9123C42.9027 32.3823 43.088 31.8527 43.4347 31.3233C43.7815 30.7939 44.2516 30.2731 44.8451 29.7611C45.7386 28.9871 46.3564 28.4103 46.6984 28.0309C47.037 27.6465 47.1305 27.3463 46.9788 27.1302C46.9753 27.1253 46.9736 27.1228 46.9736 27.1228C46.9701 27.1179 46.9667 27.113 46.9632 27.1081C46.646 26.6564 46.2257 26.4493 45.7023 26.4869C45.1754 26.5196 44.5633 26.7808 43.866 27.2704C43.1393 27.7807 42.6643 28.3049 42.4409 28.8429C42.2141 29.3761 42.2989 29.925 42.6954 30.4897L41.458 31.3586C41.0477 30.7743 40.8493 30.1731 40.8626 29.5553C40.8725 28.9325 41.0668 28.3269 41.4454 27.7384C41.8289 27.1465 42.3693 26.6058 43.0666 26.1162C43.7049 25.668 44.3484 25.3628 44.997 25.2006C45.6471 25.0301 46.2563 25.0312 46.8248 25.2038C47.3947 25.3682 47.8762 25.7302 48.2693 26.29C48.3417 26.3931 48.4141 26.4962 48.4865 26.5994C48.5555 26.6976 48.6262 26.7982 48.6986 26.9014L51.0104 30.1938C51.1311 30.3656 51.2557 30.5274 51.3842 30.6791C51.5127 30.8308 51.6372 30.956 51.7578 31.0546C51.9054 31.1709 52.039 31.2567 52.1585 31.3121C52.2746 31.3625 52.3619 31.3929 52.4204 31.4031L51.1609 32.2875C51.1191 32.2802 51.0426 32.2496 50.9315 32.1957C50.8168 32.1369 50.6943 32.0616 50.564 31.9699C50.4606 31.8958 50.3474 31.792 50.2243 31.6585C50.0978 31.52 49.9777 31.3698 49.8639 31.2078L50.1684 31.2029C50.2023 31.5749 50.1427 31.9651 49.9894 32.3733C49.8411 32.778 49.6003 33.1817 49.2672 33.5842C48.934 33.9868 48.5072 34.3708 47.9867 34.7363ZM47.3942 33.4697C47.9 33.1146 48.3032 32.7178 48.6039 32.2794C48.9011 31.8361 49.0632 31.3778 49.09 30.9044C49.1168 30.431 48.9716 29.9684 48.6544 29.5167L47.5632 27.9625L48.1741 28.2374C47.946 28.5808 47.6239 28.9573 47.2076 29.3669C46.7929 29.7681 46.3474 30.1725 45.8712 30.5802C45.178 31.1696 44.7096 31.6928 44.4659 32.1498C44.2272 32.6033 44.2665 33.056 44.5837 33.5077C44.8836 33.9349 45.2659 34.1504 45.7304 34.1542C46.1914 34.153 46.7461 33.9249 47.3942 33.4697Z" fill="#191319"/>
<path d="M58.5287 28.3859L54.996 19.5047L56.4176 18.9392L57.5021 21.6654L56.9672 21.6844C56.8698 21.3422 56.8248 20.9856 56.8322 20.6146C56.8374 20.238 56.9061 19.8749 57.0382 19.5253C57.1737 19.1679 57.3899 18.843 57.6869 18.5505C57.9816 18.2525 58.3687 18.0081 58.8481 17.8174C59.205 17.6755 59.5071 17.5908 59.7545 17.5635C60.0052 17.5283 60.1651 17.5163 60.2342 17.5276L60.4217 19.0705C60.3505 19.0537 60.2162 19.049 60.019 19.0564C59.8273 19.0616 59.5754 19.1263 59.2632 19.2505C58.8005 19.4346 58.4491 19.6712 58.2089 19.9604C57.9744 20.2474 57.8234 20.5658 57.7559 20.9155C57.6917 21.2574 57.6877 21.6045 57.7438 21.9567C57.8 22.3089 57.8913 22.6439 58.0177 22.9616L59.9503 27.8204L58.5287 28.3859Z" fill="#191319"/>
<path d="M77.3051 23.3854L76.6798 18.8472C76.6421 18.5738 76.6114 18.3509 76.5876 18.1786C76.563 18.0002 76.5397 17.8308 76.5176 17.6704C76.4496 17.177 76.307 16.7576 76.0898 16.412C75.8726 16.0664 75.5717 15.8171 75.1873 15.6642C74.8028 15.5112 74.3223 15.4745 73.7457 15.5539C73.2405 15.6235 72.789 15.819 72.3911 16.1403C71.9984 16.4549 71.7015 16.8501 71.5006 17.326C71.3048 17.7951 71.2442 18.3001 71.3187 18.841L70.4084 18.6303C70.306 17.8873 70.3944 17.1877 70.6734 16.5315C70.9584 15.8744 71.3794 15.3258 71.9366 14.8856C72.4988 14.4387 73.1395 14.1657 73.8587 14.0666C74.5898 13.9658 75.248 14.0175 75.8334 14.2215C76.4187 14.4255 76.896 14.7685 77.2653 15.2506C77.6397 15.726 77.8772 16.3292 77.978 17.0603C78.014 17.3218 78.0533 17.6071 78.0959 17.9162C78.1385 18.2253 78.1782 18.5136 78.2151 18.781L78.8208 23.1765L77.3051 23.3854ZM70.5291 24.3191L69.2244 14.8505L70.7401 14.6417L72.0448 24.1102L70.5291 24.3191Z" fill="#191319"/>
<path d="M109.733 14.6269L112.242 15.4647L108.039 28.0566L106.656 27.595L110.472 16.1641L110.509 16.1954L103.489 26.5376L101.406 25.8423L101.992 13.3427L102.04 13.3399L98.2215 24.7793L96.8385 24.3176L101.042 11.7257L103.552 12.5636L102.829 25.0176L102.812 25.0119L109.733 14.6269Z" fill="#191319"/>
<path d="M118.478 34.5043C117.697 33.9463 117.13 33.2795 116.777 32.5039C116.433 31.7269 116.306 30.9136 116.396 30.0641C116.495 29.2132 116.822 28.3995 117.377 27.6232C117.931 26.8469 118.591 26.2788 119.357 25.9189C120.128 25.5625 120.933 25.4261 121.773 25.5098C122.618 25.597 123.43 25.9195 124.212 26.4775C124.993 27.0355 125.559 27.6981 125.911 28.4653C126.267 29.236 126.399 30.042 126.307 30.8832C126.22 31.7278 125.899 32.5383 125.345 33.3146C124.79 34.0909 124.124 34.6622 123.347 35.0284C122.577 35.3932 121.767 35.5368 120.915 35.4594C120.072 35.3806 119.26 35.0622 118.478 34.5043ZM119.294 33.3618C119.832 33.7454 120.391 33.964 120.972 34.0177C121.553 34.0714 122.113 33.963 122.653 33.6923C123.198 33.4252 123.677 33.0011 124.092 32.4201C124.507 31.8391 124.749 31.2525 124.819 30.6603C124.896 30.0668 124.812 29.5088 124.565 28.9864C124.323 28.4591 123.933 28.0036 123.396 27.62C122.863 27.2399 122.306 27.0188 121.724 26.9567C121.15 26.8933 120.592 26.9927 120.051 27.2549C119.518 27.5158 119.044 27.9367 118.629 28.5177C118.214 29.0988 117.966 29.6885 117.885 30.2869C117.809 30.8889 117.891 31.4559 118.13 31.9881C118.374 32.5238 118.762 32.9816 119.294 33.3618Z" fill="#191319"/>
<path d="M127.739 42.3035L134.994 36.0811L135.99 37.2425L133.763 39.1526L133.571 38.6528C133.863 38.4497 134.186 38.2915 134.54 38.1781C134.897 38.0609 135.263 38.0081 135.637 38.0197C136.019 38.0319 136.396 38.1311 136.769 38.3171C137.147 38.4992 137.503 38.7861 137.839 39.1778C138.089 39.4693 138.267 39.7276 138.374 39.9527C138.488 40.1785 138.551 40.3259 138.563 40.3949L137.164 41.0727C137.157 40.9999 137.118 40.8713 137.047 40.6872C136.98 40.5076 136.837 40.2903 136.618 40.0352C136.294 39.6572 135.956 39.4015 135.605 39.2682C135.257 39.1395 134.907 39.0999 134.554 39.1494C134.21 39.1996 133.881 39.3084 133.566 39.4757C133.251 39.6431 132.964 39.8381 132.704 40.0607L128.735 43.4648L127.739 42.3035Z" fill="#191319"/>
<path d="M139.421 50.901L140.643 50.2847L143.971 56.8817L143.448 56.8433C143.48 56.8271 143.509 56.8122 143.536 56.7987C143.568 56.7825 143.597 56.7677 143.624 56.7541C144.117 56.5055 144.514 56.174 144.816 55.7597C145.126 55.348 145.301 54.8765 145.342 54.345C145.383 53.8136 145.252 53.2479 144.95 52.6479C144.644 52.0426 144.247 51.5745 143.757 51.2435C143.268 50.9125 142.722 50.7374 142.121 50.7181C141.526 50.6961 140.904 50.8486 140.255 51.1757C139.596 51.5081 139.091 51.9178 138.738 52.4047C138.389 52.897 138.201 53.4384 138.177 54.0288C138.152 54.6192 138.299 55.2305 138.618 55.8626C138.845 56.3126 139.088 56.6806 139.347 56.9668C139.611 57.2503 139.874 57.46 140.138 57.5959C140.409 57.7344 140.667 57.8127 140.911 57.8306C141.156 57.8485 141.377 57.8208 141.575 57.7477L142.264 59.1136C141.908 59.2598 141.514 59.3243 141.082 59.3071C140.65 59.2899 140.208 59.1801 139.756 58.9778C139.31 58.7728 138.878 58.4631 138.461 58.0487C138.044 57.6343 137.671 57.103 137.344 56.4548C136.912 55.5977 136.718 54.7478 136.764 53.9051C136.809 53.0624 137.069 52.286 137.544 51.5759C138.022 50.8711 138.692 50.3012 139.554 49.8661C140.427 49.4255 141.288 49.2265 142.136 49.2691C142.99 49.3089 143.77 49.5637 144.477 50.0334C145.185 50.5031 145.752 51.1612 146.179 52.0075C146.614 52.87 146.804 53.7119 146.748 54.5332C146.692 55.3544 146.423 56.1014 145.943 56.7739C145.468 57.4438 144.815 57.9882 143.984 58.4071C143.899 58.4503 143.785 58.5044 143.643 58.5693C143.501 58.6342 143.403 58.6735 143.35 58.6871L139.421 50.901Z" fill="#191319"/>
<path d="M80.9065 106.097C82.2733 107.464 84.4894 107.464 85.8562 106.097L108.13 83.823C109.497 82.4562 109.497 80.2401 108.13 78.8733C106.763 77.5065 104.547 77.5065 103.18 78.8733L83.3813 98.6723L63.5824 78.8733C62.2155 77.5065 59.9994 77.5065 58.6326 78.8733C57.2658 80.2401 57.2658 82.4562 58.6326 83.823L80.9065 106.097ZM79.8813 53.622L79.8813 103.622H86.8813L86.8813 53.622H79.8813Z" fill="black" fill-opacity="0.7"/>
<path d="M139.57 96.5448L151.563 102.236L150.903 103.627L139.341 98.1397L140.427 97.8879L137.884 103.246L136.665 102.667L139.57 96.5448Z" fill="#191319"/>
<path d="M135.899 111.688L136.952 112.561L132.233 118.247L132.059 117.752C132.087 117.775 132.112 117.796 132.135 117.815C132.163 117.838 132.188 117.859 132.211 117.878C132.636 118.231 133.099 118.463 133.599 118.574C134.1 118.693 134.602 118.666 135.106 118.491C135.61 118.317 136.076 117.971 136.505 117.454C136.938 116.932 137.209 116.381 137.317 115.8C137.425 115.219 137.367 114.649 137.145 114.09C136.927 113.535 136.539 113.026 135.981 112.562C135.413 112.091 134.835 111.791 134.248 111.662C133.657 111.538 133.086 111.582 132.535 111.796C131.984 112.009 131.482 112.388 131.03 112.932C130.708 113.32 130.467 113.69 130.308 114.041C130.154 114.396 130.067 114.722 130.047 115.018C130.029 115.322 130.06 115.59 130.141 115.821C130.222 116.052 130.336 116.244 130.482 116.396L129.505 117.573C129.229 117.305 129.012 116.969 128.855 116.566C128.699 116.163 128.623 115.715 128.628 115.22C128.638 114.729 128.749 114.209 128.963 113.661C129.176 113.113 129.514 112.56 129.978 112.001C130.591 111.262 131.293 110.746 132.084 110.451C132.875 110.156 133.69 110.084 134.531 110.236C135.368 110.393 136.158 110.779 136.901 111.396C137.654 112.021 138.18 112.731 138.48 113.525C138.784 114.324 138.862 115.141 138.714 115.977C138.565 116.813 138.189 117.596 137.583 118.325C136.966 119.069 136.27 119.579 135.495 119.855C134.719 120.132 133.927 120.184 133.119 120.012C132.315 119.844 131.555 119.462 130.84 118.868C130.766 118.807 130.671 118.724 130.554 118.62C130.438 118.516 130.363 118.442 130.329 118.398L135.899 111.688Z" fill="#191319"/>
<path d="M118.776 122.508C119.37 122.091 119.956 121.818 120.534 121.691C121.107 121.568 121.638 121.594 122.129 121.77C122.622 121.951 123.042 122.287 123.386 122.778C123.745 123.289 123.911 123.807 123.883 124.332C123.86 124.862 123.674 125.391 123.328 125.921C122.981 126.45 122.511 126.971 121.917 127.483C121.024 128.257 120.406 128.834 120.064 129.213C119.725 129.598 119.632 129.898 119.783 130.114C119.787 130.119 119.789 130.121 119.789 130.121C119.792 130.126 119.796 130.131 119.799 130.136C120.116 130.588 120.536 130.795 121.06 130.757C121.587 130.724 122.199 130.463 122.896 129.974C123.623 129.463 124.098 128.939 124.321 128.401C124.548 127.868 124.463 127.319 124.067 126.754L125.304 125.886C125.714 126.47 125.913 127.071 125.9 127.689C125.89 128.312 125.695 128.917 125.317 129.506C124.933 130.098 124.393 130.638 123.696 131.128C123.057 131.576 122.414 131.881 121.765 132.043C121.115 132.214 120.506 132.213 119.937 132.04C119.367 131.876 118.886 131.514 118.493 130.954C118.421 130.851 118.348 130.748 118.276 130.645C118.207 130.547 118.136 130.446 118.064 130.343L115.752 127.05C115.631 126.878 115.507 126.717 115.378 126.565C115.25 126.413 115.125 126.288 115.004 126.19C114.857 126.073 114.723 125.987 114.604 125.932C114.488 125.882 114.4 125.851 114.342 125.841L115.601 124.957C115.643 124.964 115.72 124.995 115.831 125.048C115.945 125.107 116.068 125.183 116.198 125.274C116.302 125.348 116.415 125.452 116.538 125.586C116.664 125.724 116.785 125.874 116.898 126.036L116.594 126.041C116.56 125.669 116.62 125.279 116.773 124.871C116.921 124.466 117.162 124.062 117.495 123.66C117.828 123.257 118.255 122.873 118.776 122.508ZM119.368 123.774C118.862 124.13 118.459 124.526 118.158 124.965C117.861 125.408 117.699 125.866 117.672 126.34C117.645 126.813 117.791 127.276 118.108 127.727L119.199 129.282L118.588 129.007C118.816 128.663 119.138 128.287 119.555 127.877C119.969 127.476 120.415 127.072 120.891 126.664C121.584 126.074 122.053 125.551 122.296 125.094C122.535 124.641 122.496 124.188 122.179 123.736C121.879 123.309 121.496 123.094 121.032 123.09C120.571 123.091 120.016 123.319 119.368 123.774Z" fill="#191319"/>
<path d="M108.234 128.858L111.766 137.739L110.345 138.305L109.26 135.579L109.795 135.56C109.892 135.902 109.937 136.259 109.93 136.63C109.925 137.006 109.856 137.369 109.724 137.719C109.588 138.076 109.372 138.401 109.075 138.694C108.781 138.992 108.394 139.236 107.914 139.427C107.557 139.569 107.255 139.653 107.008 139.681C106.757 139.716 106.597 139.728 106.528 139.716L106.34 138.174C106.412 138.19 106.546 138.195 106.743 138.188C106.935 138.182 107.187 138.118 107.499 137.994C107.962 137.81 108.313 137.573 108.553 137.284C108.788 136.997 108.939 136.678 109.006 136.329C109.07 135.987 109.075 135.64 109.018 135.287C108.962 134.935 108.871 134.6 108.745 134.282L106.812 129.424L108.234 128.858Z" fill="#191319"/>
<path d="M89.4571 133.859L90.0825 138.397C90.1201 138.67 90.1508 138.893 90.1746 139.066C90.1992 139.244 90.2225 139.413 90.2446 139.574C90.3126 140.067 90.4552 140.487 90.6724 140.832C90.8896 141.178 91.1905 141.427 91.5749 141.58C91.9594 141.733 92.4399 141.77 93.0165 141.69C93.5217 141.621 93.9733 141.425 94.3711 141.104C94.7639 140.789 95.0607 140.394 95.2616 139.918C95.4574 139.449 95.518 138.944 95.4435 138.403L96.3538 138.614C96.4562 139.357 96.3678 140.056 96.0888 140.713C95.8038 141.37 95.3828 141.918 94.8256 142.358C94.2634 142.805 93.6227 143.078 92.9035 143.178C92.1724 143.278 91.5142 143.227 90.9288 143.023C90.3435 142.819 89.8662 142.476 89.4969 141.993C89.1225 141.518 88.885 140.915 88.7842 140.184C88.7482 139.922 88.7089 139.637 88.6663 139.328C88.6237 139.019 88.584 138.731 88.5471 138.463L87.9414 134.068L89.4571 133.859ZM96.2331 132.925L97.5378 142.394L96.0221 142.602L94.7174 133.134L96.2331 132.925Z" fill="#191319"/>
<path d="M57.0296 142.617L54.5197 141.779L58.7233 129.187L60.1063 129.649L56.2903 141.08L56.2533 141.049L63.2735 130.706L65.3565 131.402L64.7702 143.901L64.7219 143.904L68.5407 132.465L69.9237 132.927L65.7201 145.518L63.2103 144.681L63.9331 132.227L63.9501 132.232L57.0296 142.617Z" fill="#191319"/>
<path d="M48.2838 122.74C49.065 123.298 49.632 123.965 49.985 124.74C50.3296 125.517 50.4565 126.33 50.3658 127.18C50.2668 128.031 49.9401 128.845 49.3856 129.621C48.8311 130.397 48.1709 130.965 47.4051 131.325C46.6344 131.682 45.8291 131.818 44.9893 131.734C44.1447 131.647 43.3318 131.325 42.5506 130.767C41.7694 130.209 41.203 129.546 40.8515 128.779C40.495 128.008 40.3629 127.202 40.4549 126.361C40.5421 125.516 40.8629 124.706 41.4174 123.929C41.9719 123.153 42.638 122.582 43.4157 122.216C44.185 121.851 44.9955 121.707 45.8471 121.785C46.6904 121.863 47.5026 122.182 48.2838 122.74ZM47.4677 123.882C46.9307 123.499 46.3716 123.28 45.7906 123.226C45.2096 123.173 44.6492 123.281 44.1093 123.552C43.5646 123.819 43.0848 124.243 42.6698 124.824C42.2548 125.405 42.0127 125.992 41.9437 126.584C41.8663 127.177 41.9507 127.735 42.1969 128.258C42.4396 128.785 42.8295 129.24 43.3666 129.624C43.8988 130.004 44.4561 130.225 45.0385 130.287C45.6125 130.351 46.1702 130.251 46.7114 129.989C47.2443 129.728 47.7182 129.307 48.1332 128.726C48.5482 128.145 48.7962 127.556 48.8771 126.957C48.9531 126.355 48.8715 125.788 48.6322 125.256C48.3881 124.72 47.9999 124.262 47.4677 123.882Z" fill="#191319"/>
<path d="M39.0235 114.941L31.7683 121.163L30.7723 120.002L32.9994 118.092L33.1909 118.591C32.8987 118.794 32.576 118.953 32.2226 119.066C31.8647 119.183 31.499 119.236 31.1254 119.224C30.7434 119.212 30.3659 119.113 29.993 118.927C29.6155 118.745 29.2588 118.458 28.9228 118.066C28.6728 117.775 28.4948 117.517 28.3886 117.291C28.274 117.066 28.2109 116.918 28.1991 116.849L29.5978 116.171C29.605 116.244 29.6441 116.373 29.7151 116.557C29.7821 116.737 29.9251 116.954 30.1438 117.209C30.468 117.587 30.8058 117.843 31.1573 117.976C31.5049 118.105 31.855 118.144 32.2077 118.095C32.552 118.044 32.8816 117.936 33.1965 117.768C33.5114 117.601 33.7987 117.406 34.0583 117.183L38.0275 113.779L39.0235 114.941Z" fill="#191319"/>
<path d="M27.341 106.343L26.1196 106.959L22.7913 100.362L23.3147 100.401C23.2826 100.417 23.2531 100.432 23.2263 100.445C23.1942 100.462 23.1647 100.476 23.1379 100.49C22.6451 100.739 22.2478 101.07 21.9461 101.484C21.6363 101.896 21.4609 102.368 21.4199 102.899C21.3789 103.431 21.5098 103.996 21.8125 104.596C22.1179 105.201 22.5153 105.67 23.0049 106.001C23.4944 106.332 24.0398 106.507 24.6409 106.526C25.2367 106.548 25.8587 106.395 26.5068 106.068C27.1657 105.736 27.6714 105.326 28.0238 104.839C28.3736 104.347 28.5608 103.806 28.5855 103.215C28.6102 102.625 28.4631 102.014 28.1442 101.382C27.9171 100.932 27.6743 100.563 27.4157 100.277C27.1517 99.9938 26.888 99.7841 26.6245 99.6482C26.353 99.5097 26.0951 99.4314 25.8509 99.4135C25.6066 99.3956 25.3854 99.4233 25.1871 99.4964L24.4979 98.1304C24.8542 97.9843 25.2484 97.9198 25.6805 97.937C26.1126 97.9542 26.5544 98.064 27.0059 98.2663C27.4521 98.4713 27.8839 98.781 28.3013 99.1954C28.7187 99.6098 29.0909 100.141 29.4179 100.789C29.8504 101.646 30.0439 102.496 29.9987 103.339C29.9534 104.182 29.6933 104.958 29.2182 105.668C28.7404 106.373 28.0703 106.943 27.2079 107.378C26.3347 107.819 25.4741 108.018 24.626 107.975C23.7726 107.935 22.9922 107.68 22.2848 107.211C21.5774 106.741 21.0102 106.083 20.5831 105.237C20.148 104.374 19.9585 103.532 20.0145 102.711C20.0706 101.89 20.3389 101.143 20.8195 100.47C21.2947 99.8003 21.9474 99.2559 22.7778 98.837C22.8635 98.7938 22.9773 98.7397 23.1193 98.6748C23.2613 98.6099 23.3591 98.5706 23.4127 98.557L27.341 106.343Z" fill="#191319"/>
</g>
<defs>
<filter id="filter0_d_58_286" x="-1" y="-2" width="168.762" height="169.244" filterUnits="userSpaceOnUse" color-interpolation-filters="sRGB">
<feFlood flood-opacity="0" result="BackgroundImageFix"/>
<feColorMatrix in="SourceAlpha" type="matrix" values="0 0 0 0 0 0 0 0 0 0 0 0 0 0 0 0 0 0 127 0" result="hardAlpha"/>
<feOffset dy="4"/>
<feGaussianBlur stdDeviation="7.5"/>
<feComposite in2="hardAlpha" operator="out"/>
<feColorMatrix type="matrix" values="0 0 0 0 0 0 0 0 0 0 0 0 0 0 0 0 0 0 0.5 0"/>
<feBlend mode="normal" in2="BackgroundImageFix" result="effect1_dropShadow_58_286"/>
<feBlend mode="normal" in="SourceGraphic" in2="effect1_dropShadow_58_286" result="shape"/>
</filter>
</defs>
</svg>
