<svg width="242" height="161" viewBox="0 0 242 161" fill="none" xmlns="http://www.w3.org/2000/svg">
<path d="M113.033 129.76C114.148 129.029 115.247 128.562 116.33 128.36C117.407 128.162 118.416 128.257 119.358 128.646C120.298 129.045 121.114 129.771 121.804 130.824C121.877 130.935 121.943 131.036 122.003 131.127C122.067 131.224 122.135 131.329 122.208 131.44L118.958 133.573C118.889 133.468 118.828 133.374 118.773 133.29C118.722 133.214 118.663 133.123 118.594 133.019C118.124 132.301 117.56 131.883 116.905 131.765C116.249 131.647 115.524 131.848 114.73 132.369C113.929 132.895 113.394 133.425 113.127 133.959C112.864 134.5 112.925 135.064 113.309 135.649C113.578 136.06 113.98 136.315 114.513 136.414C115.039 136.517 115.661 136.508 116.378 136.386C117.093 136.276 117.877 136.095 118.729 135.845C119.663 135.582 120.591 135.431 121.513 135.394C122.436 135.357 123.3 135.513 124.107 135.861C124.906 136.214 125.6 136.839 126.19 137.738C126.784 138.644 127.049 139.572 126.984 140.521C126.924 141.478 126.589 142.395 125.979 143.273C125.374 144.159 124.549 144.944 123.503 145.63C122.41 146.347 121.332 146.81 120.272 147.017C119.21 147.235 118.22 147.162 117.303 146.797C116.383 146.444 115.594 145.765 114.936 144.762C114.863 144.65 114.794 144.546 114.73 144.448C114.671 144.358 114.602 144.253 114.525 144.135L117.765 142.009C117.815 142.086 117.868 142.166 117.923 142.25C117.977 142.333 118.03 142.413 118.08 142.49C118.524 143.166 119.052 143.562 119.666 143.677C120.273 143.797 120.974 143.597 121.768 143.076C122.535 142.573 123.039 142.043 123.281 141.485C123.516 140.932 123.444 140.367 123.065 139.788C122.791 139.37 122.408 139.113 121.916 139.017C121.418 138.925 120.828 138.938 120.148 139.056C119.467 139.173 118.714 139.339 117.887 139.552C116.757 139.835 115.723 140.005 114.784 140.063C113.843 140.132 112.992 139.998 112.232 139.659C111.476 139.328 110.803 138.712 110.214 137.814C109.61 136.894 109.333 135.955 109.382 134.996C109.431 134.037 109.771 133.106 110.405 132.202C111.035 131.31 111.911 130.496 113.033 129.76Z" fill="black"/>
<path d="M94.2578 137.995C94.7485 137.863 95.2673 137.77 95.8141 137.717C96.3507 137.658 96.878 137.693 97.3959 137.821C97.9079 137.958 98.367 138.236 98.7731 138.653C99.1793 139.069 99.4911 139.68 99.7085 140.484C99.7563 140.661 99.8052 140.842 99.8552 141.028C99.9052 141.213 99.9553 141.398 100.005 141.583L101.463 146.977L104.419 146.178L105.202 149.074L104.37 149.299C103.887 149.429 103.51 149.553 103.239 149.669C102.961 149.787 102.775 149.946 102.681 150.143C102.582 150.351 102.56 150.638 102.616 151.003C102.671 151.368 102.783 151.86 102.95 152.479L103.387 154.096L99.6343 155.11L98.4929 150.887L94.7641 151.895L93.9814 148.999L97.7102 147.991L96.4644 143.381C96.4252 143.236 96.3872 143.096 96.3502 142.959C96.3133 142.822 96.2774 142.689 96.2426 142.561C96.0926 142.006 95.9065 141.572 95.6843 141.261C95.454 140.952 95.0734 140.87 94.5425 141.013C94.277 141.085 94.0341 141.176 93.8139 141.288C93.5856 141.401 93.4176 141.498 93.31 141.579L92.5501 138.768C92.6995 138.65 92.9194 138.521 93.2099 138.382C93.4982 138.235 93.8475 138.106 94.2578 137.995Z" fill="black"/>
<path d="M79.067 139.677C80.0323 139.728 80.8855 139.928 81.6266 140.275C82.3593 140.623 82.9225 141.099 83.3162 141.704C83.7099 142.309 83.8848 143.027 83.841 143.859C83.7914 144.8 83.4931 145.552 82.946 146.115C82.3989 146.679 81.6928 147.093 80.8278 147.356C79.9539 147.627 79.0151 147.786 78.0112 147.833C76.5475 147.898 75.5379 147.974 74.9825 148.061C74.4188 148.149 74.1293 148.338 74.1139 148.629C74.1135 148.637 74.113 148.646 74.1126 148.654C74.0867 149.145 74.3035 149.544 74.7629 149.852C75.214 150.16 75.8598 150.336 76.7003 150.38C77.5908 150.427 78.2817 150.301 78.7732 150.001C79.2558 149.71 79.5145 149.235 79.5492 148.578L83.3564 148.778C83.3002 149.843 82.9658 150.727 82.353 151.429C81.7318 152.131 80.9162 152.643 79.9062 152.965C78.8957 153.296 77.7664 153.428 76.5181 153.362C75.3531 153.301 74.2848 153.065 73.3134 152.655C72.3415 152.253 71.5746 151.683 71.0128 150.944C70.4426 150.205 70.1862 149.29 70.2437 148.2C70.2529 148.025 70.2621 147.85 70.2713 147.675C70.2801 147.509 70.2891 147.338 70.2983 147.164L70.5457 142.47C70.5637 142.129 70.5727 141.8 70.5727 141.483C70.564 141.173 70.5289 140.888 70.4676 140.626C70.3998 140.33 70.3085 140.084 70.1937 139.886C70.079 139.688 69.982 139.549 69.9027 139.47L73.7099 139.67C73.7651 139.732 73.8503 139.857 73.9655 140.047C74.0723 140.236 74.161 140.454 74.2315 140.699C74.316 140.996 74.3756 141.291 74.4101 141.585C74.436 141.887 74.4383 142.237 74.4173 142.637L73.6473 142.045C73.9093 141.508 74.3129 141.054 74.8583 140.682C75.3948 140.318 76.0267 140.047 76.7537 139.868C77.4721 139.698 78.2431 139.634 79.067 139.677ZM77.8783 142.519C77.2708 142.487 76.6992 142.565 76.1635 142.754C75.6191 142.95 75.1679 143.277 74.8101 143.734C74.4522 144.191 74.2531 144.802 74.2127 145.567L74.1423 146.903L73.2305 145.916C73.7903 145.745 74.4357 145.613 75.1667 145.518C75.8889 145.431 76.6099 145.368 77.3295 145.331C78.1827 145.293 78.827 145.181 79.2624 144.995C79.689 144.817 79.915 144.487 79.9404 144.004C79.9646 143.547 79.8039 143.192 79.4583 142.94C79.1123 142.696 78.5856 142.556 77.8783 142.519Z" fill="black"/>
<path d="M64.4186 132.064C64.8047 132.22 65.1459 132.377 65.4423 132.533C65.734 132.678 65.9122 132.782 65.9769 132.844L64.8723 135.566C64.7907 135.479 64.6311 135.374 64.3934 135.251C64.1511 135.116 63.8871 134.991 63.6014 134.875C63.2231 134.722 62.852 134.661 62.4881 134.693C62.1197 134.715 61.771 134.82 61.442 135.011C61.1084 135.19 60.8046 135.44 60.5306 135.76L60.0683 136.301L59.2498 150.484L55.5087 148.966L56.9272 137.792L57.3442 137.961L50.6788 147.006L46.9839 145.507L56.4526 134.308C57.164 133.463 57.894 132.784 58.6424 132.269C59.3909 131.754 60.228 131.465 61.1537 131.4C62.0794 131.335 63.1677 131.556 64.4186 132.064Z" fill="black"/>
<path d="M22.3542 113.843C22.9952 113.364 23.7385 113.002 24.5841 112.755C25.4246 112.502 26.3065 112.415 27.2296 112.496C28.1478 112.569 29.0622 112.854 29.9728 113.349C30.8717 113.843 31.7051 114.604 32.4729 115.632C33.4949 117.001 34.0436 118.411 34.1188 119.863C34.1873 121.32 33.8393 122.734 33.0747 124.106C32.3051 125.471 31.1757 126.709 29.6867 127.821C28.1976 128.933 26.6927 129.661 25.172 130.006C23.6462 130.345 22.198 130.272 20.8274 129.787C19.4568 129.302 18.2604 128.376 17.2384 127.007C16.3858 125.865 15.8674 124.739 15.6832 123.628C15.4939 122.511 15.5503 121.466 15.8524 120.491C16.1495 119.51 16.6005 118.659 17.2054 117.937C17.573 117.496 17.9638 117.121 18.3778 116.812L20.7036 119.927C20.5033 120.076 20.3221 120.238 20.1601 120.411C19.7225 120.841 19.4031 121.319 19.202 121.844C19.0009 122.368 18.9397 122.913 19.0185 123.478C19.0856 124.042 19.3236 124.597 19.7324 125.145C20.211 125.786 20.8209 126.22 21.5621 126.446C22.3033 126.673 23.1583 126.648 24.1273 126.372C25.0962 126.095 26.1616 125.524 27.3235 124.656C28.492 123.784 29.3497 122.92 29.8965 122.064C30.4367 121.214 30.7068 120.398 30.7068 119.618C30.7001 118.843 30.4575 118.135 29.9789 117.494C29.6349 117.033 29.2473 116.688 28.8161 116.459C28.3799 116.223 27.9252 116.095 27.4519 116.074C26.9737 116.046 26.4968 116.111 26.0215 116.268C25.5412 116.419 25.094 116.649 24.68 116.958L22.3542 113.843Z" fill="black"/>
<path d="M23.0587 96.6824C23.4493 98.0615 23.5087 99.3568 23.237 100.568C22.9652 101.78 22.4163 102.823 21.5901 103.698C20.7537 104.567 19.682 105.187 18.3751 105.557C17.0762 105.925 15.8467 105.957 14.6867 105.654C13.5164 105.344 12.5059 104.743 11.6551 103.849C10.7964 102.958 10.1717 101.822 9.78105 100.443C9.39042 99.0643 9.32697 97.7701 9.59071 96.5608C9.84643 95.3537 10.3925 94.3156 11.229 93.4464C12.0551 92.5715 13.1176 91.95 14.4165 91.5821C15.7235 91.2119 16.9621 91.1815 18.1324 91.491C19.2924 91.7947 20.3058 92.3911 21.1726 93.2802C22.0393 94.1693 22.668 95.3033 23.0587 96.6824ZM20.1001 97.5205C19.9161 96.871 19.6037 96.3489 19.1627 95.9541C18.7218 95.5594 18.1872 95.308 17.559 95.2001C16.9228 95.0945 16.2319 95.1473 15.4862 95.3585C14.7406 95.5698 14.1326 95.8849 13.6623 96.3039C13.184 96.7252 12.8647 97.2184 12.7043 97.7835C12.5439 98.3486 12.5557 98.9559 12.7397 99.6053C12.9213 100.247 13.2298 100.77 13.665 101.175C14.0979 101.572 14.6285 101.825 15.2566 101.932C15.8768 102.043 16.5597 101.992 17.3054 101.781C18.051 101.57 18.667 101.252 19.1533 100.829C19.6316 100.407 19.955 99.9131 20.1234 99.3457C20.2895 98.7703 20.2818 98.1619 20.1001 97.5205Z" fill="black"/>
<path d="M20.815 72.9382L15.1961 72.4811C14.8805 72.4554 14.5939 72.4321 14.3364 72.4111C14.0789 72.3902 13.8464 72.3712 13.6387 72.3544C13.0905 72.3097 12.5864 72.3398 12.1264 72.4445C11.6581 72.5485 11.2721 72.7721 10.9682 73.1153C10.6644 73.4585 10.4844 73.9747 10.4283 74.6641C10.3797 75.2621 10.4745 75.7924 10.7128 76.2549C10.9517 76.7091 11.3068 77.0724 11.7779 77.3449C12.249 77.6173 12.8044 77.7796 13.4439 77.8316L12.5843 78.8402C11.4381 78.7469 10.4533 78.416 9.63007 77.8474C8.80681 77.2787 8.18462 76.5509 7.7635 75.6638C7.34306 74.7684 7.17508 73.8016 7.25955 72.7634C7.34808 71.6753 7.64083 70.8003 8.13781 70.1385C8.62716 69.4676 9.27606 68.9937 10.0845 68.7166C10.8854 68.4306 11.8049 68.3299 12.8431 68.4144C13.2667 68.4488 13.7402 68.4873 14.2634 68.5299C14.7867 68.5725 15.3224 68.6161 15.8706 68.6607L21.1282 69.0885L20.815 72.9382ZM20.0568 82.2574L6.82551 81.1809L7.13975 77.3187L20.371 78.3952L20.0568 82.2574Z" fill="black"/>
<path d="M27.0829 52.6231L21.9786 50.2301C21.6918 50.0957 21.4315 49.9736 21.1976 49.864C20.9637 49.7543 20.7524 49.6553 20.5638 49.5668C20.0658 49.3334 19.583 49.1853 19.1155 49.1225C18.6403 49.0562 18.2004 49.1307 17.7958 49.346C17.3912 49.5612 17.042 49.982 16.7484 50.6083C16.4938 51.1515 16.3972 51.6815 16.4587 52.1981C16.5237 52.7072 16.7293 53.1717 17.0754 53.5917C17.4216 54.0117 17.8851 54.3578 18.4661 54.6302L17.3081 55.2746C16.2668 54.7864 15.46 54.1321 14.8875 53.3115C14.315 52.4908 13.9866 51.5914 13.9023 50.6131C13.8214 49.6272 14.0021 48.6627 14.4443 47.7195C14.9077 46.7311 15.4879 46.0137 16.1849 45.5674C16.878 45.11 17.6516 44.8928 18.5059 44.916C19.3562 44.9281 20.2529 45.1552 21.1961 45.5974C21.5809 45.7778 22.011 45.9794 22.4863 46.2022C22.9617 46.4251 23.4484 46.6533 23.9463 46.8867L28.7225 49.1259L27.0829 52.6231ZM23.114 61.0889L11.0944 55.4539L12.7392 51.9454L24.7589 57.5804L23.114 61.0889Z" fill="black"/>
<path d="M30.611 37.374L28.8176 35.5437L35.1033 29.3849L35.2904 30.1117C35.2437 30.064 35.2 30.0194 35.1591 29.9777C35.1125 29.9301 35.0687 29.8855 35.0279 29.8438C34.6955 29.5045 34.2973 29.2589 33.8333 29.1068C33.3635 28.9488 32.8627 28.9378 32.3309 29.0738C31.7993 29.198 31.2716 29.5167 30.7478 30.03C30.224 30.5432 29.8824 31.0995 29.7231 31.699C29.5639 32.2866 29.5872 32.8879 29.7931 33.5029C30.0049 34.112 30.3995 34.7112 30.9769 35.3005C31.5718 35.9077 32.1773 36.3352 32.7935 36.5831C33.4099 36.8192 34.0223 36.8667 34.6307 36.7256C35.245 36.5786 35.8379 36.2252 36.4093 35.6653C36.7784 35.3037 37.0648 34.959 37.2685 34.631C37.4663 34.2972 37.5961 33.995 37.6578 33.7246C37.7254 33.4483 37.7397 33.2009 37.7007 32.9825C37.6617 32.7641 37.5899 32.5836 37.4853 32.4411L40.2174 29.7642C40.5724 30.198 40.8205 30.7249 40.9614 31.3451C41.0966 31.9594 41.1045 32.6283 40.9852 33.3519C40.86 34.0696 40.5813 34.8151 40.1491 35.5886C39.7229 36.3562 39.1229 37.1191 38.3491 37.8772C37.3015 38.9037 36.1837 39.5906 34.9957 39.938C33.8018 40.2793 32.629 40.291 31.4773 39.9728C30.3197 39.6486 29.2656 39.0015 28.3149 38.0312C27.3526 37.0491 26.7271 35.9761 26.4385 34.8123C26.1499 33.6366 26.1943 32.4615 26.5717 31.2867C26.9491 30.1002 27.6527 29.0025 28.6825 27.9935C29.7361 26.9612 30.8538 26.2802 32.0358 25.9505C33.2119 25.6148 34.3786 25.6208 35.5359 25.9685C36.6874 26.3103 37.7531 26.9812 38.7329 27.9812C38.8787 28.13 39.0157 28.2757 39.1439 28.4185C39.2721 28.5612 39.3623 28.6711 39.4145 28.7483L30.611 37.374Z" fill="black"/>
<path d="M55.8085 25.8894C54.4806 26.4922 53.1953 26.7553 51.9525 26.6788C50.7063 26.5947 49.5893 26.2004 48.6013 25.4957C47.621 24.7876 46.8466 23.8075 46.2783 22.5554C45.7031 21.2882 45.4786 20.0677 45.6047 18.894C45.735 17.7092 46.1838 16.6315 46.9512 15.6608C47.7186 14.6901 48.7663 13.9034 50.0943 13.3007C51.0883 12.8494 52.0357 12.5979 52.9364 12.5459C53.8337 12.4864 54.6489 12.5785 55.3819 12.8224C56.1149 13.0662 56.7433 13.4124 57.2672 13.8609C57.7912 14.3095 58.1806 14.8145 58.4354 15.3761C58.4389 15.3837 58.4458 15.3988 58.4561 15.4216C58.463 15.4368 58.4699 15.452 58.4768 15.4671L54.9824 17.0533C54.9618 17.0078 54.939 16.9677 54.9142 16.9332C54.8935 16.8877 54.8653 16.8456 54.8294 16.807C54.6241 16.5158 54.3552 16.2764 54.0229 16.0886C53.6906 15.9009 53.2989 15.8041 52.8478 15.7984C52.4009 15.7816 51.9043 15.8972 51.358 16.1452C50.7737 16.4104 50.3087 16.7771 49.9629 17.2452C49.6247 17.7098 49.4382 18.2566 49.4034 18.8856C49.3651 19.507 49.5148 20.1895 49.8523 20.9331C50.183 21.6616 50.6017 22.2311 51.1084 22.6417C51.6116 23.0448 52.1546 23.2833 52.7374 23.3574C53.3277 23.4281 53.915 23.3308 54.4993 23.0656C55.0987 22.7935 55.5469 22.4803 55.8436 22.1259C56.1369 21.764 56.3078 21.3844 56.3563 20.9872C56.4013 20.5824 56.3567 20.1817 56.2224 19.785L59.7168 18.1989C59.9717 18.7604 60.0989 19.3936 60.0985 20.0984C60.1023 20.7922 59.9547 21.4953 59.6557 22.2076C59.3643 22.9164 58.9026 23.5927 58.2705 24.2365C57.6384 24.8804 56.8178 25.4313 55.8085 25.8894Z" fill="black"/>
<path d="M75.24 20.8163C74.7348 20.8719 74.2079 20.8837 73.6594 20.8517C73.1202 20.8272 72.6045 20.712 72.1124 20.5062C71.6277 20.2912 71.2167 19.9466 70.8796 19.4723C70.5424 18.9979 70.3283 18.3466 70.2372 17.5182C70.2172 17.336 70.1967 17.1496 70.1757 16.9591C70.1548 16.7686 70.1338 16.5781 70.1129 16.3876L69.5023 10.8335L66.4582 11.1682L66.1303 8.18613L66.9877 8.09188C67.4847 8.03725 67.8759 7.97329 68.1612 7.9C68.4549 7.8258 68.663 7.69812 68.7856 7.51697C68.9156 7.32663 68.9813 7.04695 68.9826 6.67792C68.984 6.3089 68.9496 5.80547 68.8795 5.16765L68.6964 3.50268L72.5607 3.07788L73.0387 7.42668L76.8781 7.00461L77.2059 9.98665L73.3666 10.4087L73.8883 15.1551C73.9047 15.3042 73.9207 15.4492 73.9361 15.59C73.9516 15.7308 73.9666 15.8675 73.9812 16C74.044 16.5716 74.1613 17.0282 74.333 17.3698C74.513 17.7105 74.8763 17.8508 75.423 17.7907C75.6964 17.7607 75.9504 17.7076 76.1852 17.6315C76.4282 17.5545 76.6091 17.4843 76.7279 17.4209L77.0462 20.316C76.8804 20.4096 76.6434 20.5028 76.335 20.5954C76.0275 20.6962 75.6625 20.7699 75.24 20.8163Z" fill="black"/>
<path d="M88.7816 15.209L89.3289 12.7056L97.9258 14.5852L97.4207 15.1401C97.4349 15.075 97.4482 15.0139 97.4607 14.9569C97.4749 14.8918 97.4883 14.8307 97.5008 14.7737C97.6022 14.3097 97.5893 13.842 97.4621 13.3706C97.3366 12.8911 97.0712 12.4662 96.6659 12.0961C96.2705 11.7197 95.7146 11.4531 94.9982 11.2965C94.2818 11.1399 93.6292 11.1593 93.0406 11.3547C92.4618 11.5438 91.9718 11.893 91.5704 12.4024C91.1771 12.9135 90.8924 13.5721 90.7162 14.378C90.5347 15.2084 90.5092 15.9492 90.6398 16.6005C90.7803 17.2454 91.0763 17.7835 91.5279 18.2149C91.9877 18.6481 92.6083 18.9502 93.3899 19.121C93.8946 19.2314 94.34 19.2818 94.7259 19.2724C95.1136 19.2548 95.4374 19.1976 95.6974 19.1009C95.9656 19.006 96.1803 18.8823 96.3415 18.7299C96.5028 18.5775 96.6143 18.4185 96.6761 18.2529L100.413 19.0698C100.245 19.6046 99.9401 20.101 99.4987 20.559C99.0592 21.0088 98.5041 21.3822 97.8335 21.6792C97.1648 21.968 96.3885 22.1437 95.5047 22.2064C94.629 22.2709 93.6621 22.1874 92.6037 21.956C91.1709 21.6428 89.9835 21.0846 89.0417 20.2816C88.1016 19.4704 87.4488 18.496 87.0833 17.3584C86.7197 16.2126 86.6829 14.9762 86.973 13.6492C87.2667 12.306 87.821 11.1945 88.636 10.315C89.4609 9.42906 90.468 8.82181 91.6573 8.49324C92.8565 8.15831 94.1603 8.14481 95.5687 8.45273C97.0097 8.76776 98.1921 9.32909 99.1159 10.1367C100.042 10.9362 100.676 11.9152 101.02 13.0737C101.366 14.224 101.389 15.4831 101.09 16.8508C101.045 17.0543 100.999 17.2488 100.95 17.4342C100.901 17.6197 100.858 17.7554 100.822 17.8414L88.7816 15.209Z" fill="black"/>
<path d="M111.231 29.3582C110.3 28.7578 109.584 27.9842 109.084 27.0373C108.588 26.0834 108.384 25.0152 108.472 23.8326C108.56 22.65 109.017 21.4178 109.843 20.1359C110.633 18.9101 111.545 18.0256 112.579 17.4825C113.62 16.9439 114.675 16.7068 115.744 16.771C116.824 16.8328 117.817 17.1549 118.72 17.7372C119.603 18.306 120.264 19.0492 120.703 19.967C121.15 20.8893 121.343 21.8814 121.284 22.9433C121.228 23.9983 120.876 25.0301 120.226 26.0387C120.203 26.0738 120.181 26.1088 120.158 26.1438C120.14 26.1718 120.12 26.2034 120.097 26.2384L118.676 25.3521C118.689 25.331 118.703 25.31 118.716 25.289C118.734 25.261 118.75 25.2365 118.764 25.2155C119.102 24.6901 119.267 24.157 119.259 23.6163C119.25 23.0755 119.112 22.5749 118.844 22.1145C118.58 21.647 118.231 21.2734 117.796 20.9935C117.075 20.5285 116.296 20.3684 115.459 20.5132C114.627 20.651 113.872 21.2452 113.195 22.2959C112.518 23.3467 112.282 24.29 112.486 25.1259C112.703 25.9593 113.168 26.6062 113.883 27.0666C114.331 27.3555 114.823 27.5236 115.357 27.5707C115.896 27.6109 116.415 27.5138 116.913 27.2796C117.411 27.0453 117.831 26.662 118.175 26.1296L119.535 27.1105C118.89 28.1122 118.088 28.8794 117.13 29.412C116.184 29.9422 115.187 30.212 114.14 30.2213C113.104 30.2282 112.135 29.9405 111.231 29.3582ZM114.83 31.3202L125.413 14.8974L128.681 17.0032L118.097 33.426L114.83 31.3202Z" fill="black"/>
<rect x="62.7744" y="48.3462" width="178" height="65" rx="32.5" fill="white"/>
<path d="M95.9244 72.4087L97.6744 70.5587V78.3212L96.4744 77.3462H104.012V80.3462H96.4744L97.6744 79.2962V87.8462H93.7994V69.4087H105.124V72.4087H95.9244ZM107.216 87.8462V74.5712H111.104V79.1462L110.304 78.6462C110.396 78.0212 110.562 77.4462 110.804 76.9212C111.046 76.3962 111.358 75.942 111.741 75.5587C112.125 75.167 112.579 74.8629 113.104 74.6462C113.637 74.4295 114.246 74.3212 114.929 74.3212C115.462 74.3212 115.879 74.3629 116.179 74.4462C116.487 74.5212 116.679 74.5795 116.754 74.6212L116.116 78.0962C116.041 78.0545 115.875 77.9879 115.616 77.8962C115.358 77.8045 115.025 77.7587 114.616 77.7587C113.95 77.7587 113.391 77.8712 112.941 78.0962C112.491 78.3212 112.129 78.6212 111.854 78.9962C111.587 79.3629 111.396 79.7712 111.279 80.2212C111.162 80.6712 111.104 81.1254 111.104 81.5837V87.8462H107.216ZM120.034 82.3712V79.8087H128.834L128.459 80.4587C128.459 80.392 128.459 80.3295 128.459 80.2712C128.459 80.2045 128.459 80.142 128.459 80.0837C128.459 79.6087 128.346 79.1545 128.121 78.7212C127.896 78.2795 127.546 77.9212 127.071 77.6462C126.605 77.3629 126.005 77.2212 125.271 77.2212C124.538 77.2212 123.905 77.3795 123.371 77.6962C122.846 78.0045 122.442 78.4504 122.159 79.0337C121.884 79.617 121.746 80.3212 121.746 81.1462C121.746 81.9962 121.88 82.7254 122.146 83.3337C122.421 83.9337 122.825 84.3962 123.359 84.7212C123.9 85.0462 124.571 85.2087 125.371 85.2087C125.888 85.2087 126.334 85.1629 126.709 85.0712C127.084 84.9712 127.388 84.8462 127.621 84.6962C127.863 84.5462 128.046 84.3795 128.171 84.1962C128.296 84.0129 128.371 83.8337 128.396 83.6587H132.221C132.171 84.217 131.98 84.767 131.646 85.3087C131.313 85.842 130.85 86.3254 130.259 86.7587C129.667 87.1837 128.946 87.5212 128.096 87.7712C127.255 88.0212 126.292 88.1462 125.209 88.1462C123.742 88.1462 122.463 87.8545 121.371 87.2712C120.28 86.6795 119.434 85.867 118.834 84.8337C118.234 83.792 117.934 82.592 117.934 81.2337C117.934 79.8587 118.238 78.6545 118.846 77.6212C119.463 76.5795 120.317 75.7712 121.409 75.1962C122.509 74.6129 123.78 74.3212 125.221 74.3212C126.696 74.3212 127.971 74.617 129.046 75.2087C130.121 75.792 130.95 76.6129 131.534 77.6712C132.117 78.7212 132.409 79.9462 132.409 81.3462C132.409 81.5545 132.405 81.7545 132.396 81.9462C132.388 82.1379 132.375 82.2795 132.359 82.3712H120.034ZM136.393 82.3712V79.8087H145.193L144.818 80.4587C144.818 80.392 144.818 80.3295 144.818 80.2712C144.818 80.2045 144.818 80.142 144.818 80.0837C144.818 79.6087 144.705 79.1545 144.48 78.7212C144.255 78.2795 143.905 77.9212 143.43 77.6462C142.964 77.3629 142.364 77.2212 141.63 77.2212C140.897 77.2212 140.264 77.3795 139.73 77.6962C139.205 78.0045 138.801 78.4504 138.518 79.0337C138.243 79.617 138.105 80.3212 138.105 81.1462C138.105 81.9962 138.239 82.7254 138.505 83.3337C138.78 83.9337 139.185 84.3962 139.718 84.7212C140.26 85.0462 140.93 85.2087 141.73 85.2087C142.247 85.2087 142.693 85.1629 143.068 85.0712C143.443 84.9712 143.747 84.8462 143.98 84.6962C144.222 84.5462 144.405 84.3795 144.53 84.1962C144.655 84.0129 144.73 83.8337 144.755 83.6587H148.58C148.53 84.217 148.339 84.767 148.005 85.3087C147.672 85.842 147.21 86.3254 146.618 86.7587C146.026 87.1837 145.305 87.5212 144.455 87.7712C143.614 88.0212 142.651 88.1462 141.568 88.1462C140.101 88.1462 138.822 87.8545 137.73 87.2712C136.639 86.6795 135.793 85.867 135.193 84.8337C134.593 83.792 134.293 82.592 134.293 81.2337C134.293 79.8587 134.597 78.6545 135.205 77.6212C135.822 76.5795 136.676 75.7712 137.768 75.1962C138.868 74.6129 140.139 74.3212 141.58 74.3212C143.055 74.3212 144.33 74.617 145.405 75.2087C146.48 75.792 147.31 76.6129 147.893 77.6712C148.476 78.7212 148.768 79.9462 148.768 81.3462C148.768 81.5545 148.764 81.7545 148.755 81.9462C148.747 82.1379 148.735 82.2795 148.718 82.3712H136.393ZM169.84 72.4087H163.752L165.302 70.5587V87.8462H161.44V70.5587L163.04 72.4087H156.915V69.4087H169.84V72.4087ZM170.775 87.8462V74.5712H174.662V79.1462L173.862 78.6462C173.954 78.0212 174.121 77.4462 174.362 76.9212C174.604 76.3962 174.917 75.942 175.3 75.5587C175.683 75.167 176.137 74.8629 176.662 74.6462C177.196 74.4295 177.804 74.3212 178.487 74.3212C179.021 74.3212 179.437 74.3629 179.737 74.4462C180.046 74.5212 180.237 74.5795 180.312 74.6212L179.675 78.0962C179.6 78.0545 179.433 77.9879 179.175 77.8962C178.917 77.8045 178.583 77.7587 178.175 77.7587C177.508 77.7587 176.95 77.8712 176.5 78.0962C176.05 78.3212 175.687 78.6212 175.412 78.9962C175.146 79.3629 174.954 79.7712 174.837 80.2212C174.721 80.6712 174.662 81.1254 174.662 81.5837V87.8462H170.775ZM182.199 87.8462V74.5712H186.037V87.8462H182.199ZM184.112 72.4087C183.512 72.4087 182.987 72.2504 182.537 71.9337C182.095 71.617 181.874 71.1712 181.874 70.5962C181.874 70.0129 182.095 69.5629 182.537 69.2462C182.987 68.9295 183.512 68.7712 184.112 68.7712C184.72 68.7712 185.245 68.9295 185.687 69.2462C186.137 69.5629 186.362 70.0129 186.362 70.5962C186.362 71.1795 186.137 71.6295 185.687 71.9462C185.245 72.2545 184.72 72.4087 184.112 72.4087ZM193.467 88.1212C192.5 88.1212 191.638 87.967 190.879 87.6587C190.129 87.3504 189.542 86.9045 189.117 86.3212C188.692 85.7379 188.479 85.0295 188.479 84.1962C188.479 83.2545 188.738 82.4879 189.254 81.8962C189.771 81.3045 190.454 80.8545 191.304 80.5462C192.163 80.2295 193.092 80.0212 194.092 79.9212C195.55 79.7795 196.554 79.6504 197.104 79.5337C197.663 79.417 197.942 79.2129 197.942 78.9212C197.942 78.9129 197.942 78.9045 197.942 78.8962C197.942 78.4045 197.704 78.017 197.229 77.7337C196.763 77.4504 196.109 77.3087 195.267 77.3087C194.375 77.3087 193.692 77.4712 193.217 77.7962C192.75 78.1129 192.517 78.6004 192.517 79.2587H188.704C188.704 78.192 188.992 77.292 189.567 76.5587C190.15 75.8254 190.938 75.2712 191.929 74.8962C192.921 74.5129 194.042 74.3212 195.292 74.3212C196.459 74.3212 197.538 74.5004 198.529 74.8587C199.521 75.2087 200.317 75.7379 200.917 76.4462C201.525 77.1545 201.829 78.0545 201.829 79.1462C201.829 79.3212 201.829 79.4962 201.829 79.6712C201.829 79.8379 201.829 80.0087 201.829 80.1837V84.8837C201.829 85.2254 201.838 85.5545 201.854 85.8712C201.879 86.1795 201.929 86.4629 202.004 86.7212C202.088 87.0129 202.192 87.2545 202.317 87.4462C202.442 87.6379 202.546 87.7712 202.629 87.8462H198.817C198.759 87.7879 198.667 87.667 198.542 87.4837C198.425 87.3004 198.325 87.0879 198.242 86.8462C198.142 86.5545 198.067 86.2629 198.017 85.9712C197.975 85.6712 197.954 85.3212 197.954 84.9212L198.754 85.4712C198.521 86.0212 198.142 86.4962 197.617 86.8962C197.1 87.2879 196.484 87.592 195.767 87.8087C195.059 88.017 194.292 88.1212 193.467 88.1212ZM194.504 85.2212C195.113 85.2212 195.679 85.1129 196.204 84.8962C196.738 84.6712 197.171 84.3212 197.504 83.8462C197.838 83.3712 198.004 82.7504 198.004 81.9837V80.6462L198.967 81.5837C198.417 81.7837 197.779 81.9504 197.054 82.0837C196.338 82.2087 195.621 82.3087 194.904 82.3837C194.054 82.467 193.417 82.6129 192.992 82.8212C192.575 83.0212 192.367 83.3629 192.367 83.8462C192.367 84.3045 192.546 84.6504 192.904 84.8837C193.263 85.1087 193.796 85.2212 194.504 85.2212ZM208.753 68.3087V87.8462H204.928V68.3087H208.753Z" fill="black"/>
<rect x="62.7744" y="48.3462" width="178" height="65" rx="32.5" stroke="black"/>
</svg>
