<svg width="412" height="131" viewBox="0 0 412 131" fill="none" xmlns="http://www.w3.org/2000/svg">
<rect y="16" width="391" height="100" rx="50" fill="white"/>
<rect x="278" y="18" width="105" height="95" rx="47.5" fill="url(#paint0_radial_172_308)"/>
<path d="M344.426 9.27835L344.737 1.17182L345.93 1.22255L345.632 8.96635L345.119 8.29491L348.795 8.4513L348.756 9.46256L344.426 9.27835Z" fill="white"/>
<path d="M361.855 6.37597L362.21 5.42614L366.545 7.22156L366.273 7.43369C366.282 7.41121 366.29 7.38873 366.299 7.36625C366.308 7.34002 366.317 7.31754 366.324 7.2988C366.437 6.99531 366.477 6.68939 366.443 6.38103C366.41 6.06893 366.293 5.78249 366.092 5.52173C365.896 5.25875 365.605 5.04767 365.221 4.88849C364.837 4.7293 364.467 4.67355 364.112 4.72124C363.762 4.76672 363.448 4.9094 363.171 5.14929C362.899 5.38697 362.683 5.71938 362.523 6.14652C362.361 6.58115 362.298 6.98797 362.336 7.36699C362.375 7.74227 362.509 8.07467 362.738 8.36419C362.967 8.65372 363.284 8.88266 363.691 9.05103C363.975 9.16889 364.232 9.24257 364.46 9.27209C364.693 9.29938 364.894 9.29187 365.063 9.24956C365.236 9.20877 365.379 9.14672 365.491 9.06339C365.605 8.97632 365.688 8.87888 365.741 8.77107L366.939 9.26699C366.826 9.50135 366.656 9.71011 366.429 9.89328C366.208 10.0742 365.937 10.2108 365.617 10.3031C365.302 10.3932 364.945 10.4228 364.547 10.392C364.154 10.359 363.728 10.2476 363.27 10.0578C362.656 9.80376 362.167 9.44992 361.804 8.99632C361.44 8.54271 361.215 8.03003 361.13 7.45828C361.046 6.88279 361.117 6.29342 361.343 5.69018C361.573 5.0757 361.905 4.59049 362.341 4.23456C362.777 3.87862 363.277 3.66782 363.839 3.60214C364.403 3.53272 364.986 3.62276 365.588 3.87225C366.201 4.12633 366.683 4.47711 367.032 4.9246C367.385 5.37361 367.597 5.87906 367.669 6.44094C367.74 7.00282 367.664 7.58351 367.44 8.183C367.413 8.25419 367.381 8.33585 367.342 8.42799C367.303 8.52013 367.274 8.58153 367.254 8.61219L361.855 6.37597Z" fill="white"/>
<path d="M380.032 19.8441C379.685 19.5115 379.431 19.1618 379.268 18.7948C379.108 18.4305 379.049 18.0718 379.091 17.7187C379.132 17.3655 379.284 17.0378 379.546 16.7356C379.827 16.4122 380.139 16.2223 380.484 16.1659C380.832 16.1123 381.199 16.1652 381.584 16.3247C381.974 16.484 382.369 16.7214 382.766 17.0371C383.361 17.5034 383.794 17.816 384.063 17.975C384.335 18.1367 384.525 18.1556 384.632 18.0317C384.635 18.0287 384.637 18.0257 384.64 18.0226C384.852 17.7778 384.914 17.4963 384.825 17.1782C384.736 16.8601 384.507 16.5236 384.138 16.1689C383.748 15.7948 383.384 15.5778 383.045 15.5178C382.711 15.4576 382.409 15.5831 382.139 15.8944L381.218 15.0091C381.537 14.6403 381.899 14.4148 382.304 14.3325C382.711 14.2529 383.134 14.3018 383.572 14.4792C384.013 14.6536 384.443 14.9416 384.861 15.3434C385.245 15.712 385.54 16.1093 385.747 16.5352C385.96 16.9609 386.055 17.3848 386.033 17.8067C386.011 18.2286 385.844 18.6194 385.532 18.979C385.477 19.0425 385.422 19.106 385.367 19.1694C385.314 19.2299 385.261 19.2918 385.206 19.3553L383.539 21.2776C383.442 21.3894 383.352 21.5023 383.269 21.6164C383.189 21.7275 383.125 21.8349 383.077 21.9387C383.022 22.0574 382.985 22.1635 382.968 22.2572C382.953 22.3537 382.946 22.4251 382.948 22.4714L382.014 21.5736C382.012 21.5389 382.019 21.4761 382.034 21.3855C382.055 21.2945 382.086 21.1973 382.128 21.0938C382.168 20.9933 382.222 20.8877 382.292 20.7772C382.367 20.6664 382.454 20.5535 382.554 20.4387L382.617 20.7319C382.378 20.824 382.114 20.8506 381.826 20.8115C381.54 20.7752 381.243 20.6756 380.935 20.5126C380.63 20.3523 380.329 20.1295 380.032 19.8441ZM380.934 19.2151C381.202 19.4728 381.484 19.6631 381.779 19.7861C382.08 19.9088 382.375 19.9432 382.665 19.8893C382.957 19.8324 383.224 19.6649 383.465 19.3869L384.157 18.589L384.114 19.1047C383.864 19.0029 383.584 18.8473 383.274 18.638C382.969 18.4284 382.662 18.2029 382.354 17.9616C381.933 17.6237 381.578 17.4135 381.29 17.3309C381.005 17.2452 380.758 17.3232 380.548 17.565C380.346 17.7978 380.275 18.0507 380.335 18.3237C380.399 18.5965 380.599 18.8936 380.934 19.2151Z" fill="white"/>
<path d="M391.869 33.6681L397.371 30.4533L397.978 31.605L396.222 32.6312L396.194 32.2446C396.432 32.1382 396.677 32.0715 396.929 32.0444C397.181 32.0173 397.427 32.0335 397.666 32.0928C397.91 32.1536 398.139 32.27 398.352 32.442C398.564 32.6139 398.749 32.8485 398.906 33.1457C399.025 33.3721 399.104 33.5645 399.142 33.7226C399.182 33.8843 399.2 33.9872 399.196 34.0311L398.011 34.4045C398.016 34.355 398.009 34.2643 397.989 34.1324C397.971 34.0041 397.912 33.8444 397.811 33.6533C397.658 33.3632 397.481 33.1518 397.28 33.0193C397.079 32.8868 396.866 32.8123 396.641 32.796C396.415 32.7796 396.191 32.8042 395.968 32.8697C395.75 32.9367 395.543 33.0277 395.346 33.1428L392.476 34.8198L391.869 33.6681Z" fill="white"/>
<path d="M399.327 53.2956L402.213 52.7351C402.382 52.7023 402.525 52.6745 402.643 52.6516C402.76 52.6287 402.87 52.6074 402.972 52.5875C403.279 52.5281 403.539 52.4285 403.755 52.289C403.974 52.1487 404.129 51.9576 404.22 51.7157C404.316 51.4731 404.332 51.1706 404.268 50.8081C404.213 50.4889 404.083 50.2146 403.881 49.9851C403.679 49.7595 403.429 49.5962 403.131 49.4951C402.838 49.3973 402.52 49.3815 402.179 49.4478L402.353 48.8456C402.86 48.7472 403.334 48.7793 403.777 48.9419C404.224 49.1037 404.6 49.3626 404.906 49.7188C405.213 50.0788 405.408 50.4992 405.492 50.9799C405.579 51.4763 405.557 51.9185 405.426 52.3065C405.3 52.6977 405.076 53.0202 404.755 53.274C404.439 53.531 404.038 53.7068 403.551 53.8014C403.37 53.8364 403.17 53.8753 402.95 53.918C402.73 53.9607 402.518 54.0019 402.314 54.0416L399.551 54.578L399.327 53.2956ZM398.544 48.8277L404.799 47.6129L405.023 48.8954L398.768 50.1101L398.544 48.8277Z" fill="white"/>
<path d="M403.912 90.4689L403.105 92.3429L395.784 88.8486L396.232 87.808L402.799 90.9422L402.776 90.9678L396.974 86.0855L397.622 84.5802L404.945 85.9441L404.947 85.9815L398.37 82.8425L398.821 81.7969L406.142 85.2912L405.335 87.1653L397.988 85.6746L398.01 85.6241L403.912 90.4689Z" fill="white"/>
<path d="M384.574 106.309C385.052 105.86 385.566 105.57 386.117 105.441C386.665 105.315 387.203 105.344 387.73 105.527C388.258 105.716 388.73 106.056 389.147 106.547C389.562 107.035 389.826 107.562 389.941 108.129C390.055 108.702 390.019 109.265 389.834 109.818C389.648 110.377 389.317 110.881 388.839 111.33C388.361 111.78 387.85 112.07 387.304 112.199C386.759 112.334 386.223 112.308 385.698 112.122C385.173 111.942 384.703 111.608 384.289 111.12C383.872 110.629 383.605 110.096 383.488 109.52C383.371 108.95 383.404 108.384 383.587 107.823C383.767 107.263 384.096 106.759 384.574 106.309ZM385.296 107.16C385.005 107.434 384.807 107.744 384.702 108.09C384.597 108.435 384.589 108.792 384.676 109.16C384.765 109.531 384.954 109.885 385.241 110.224C385.526 110.559 385.836 110.791 386.171 110.92C386.506 111.049 386.841 111.077 387.177 111.002C387.512 110.928 387.825 110.754 388.116 110.48C388.405 110.208 388.604 109.9 388.714 109.555C388.822 109.212 388.833 108.859 388.749 108.494C388.664 108.129 388.48 107.779 388.195 107.444C387.907 107.105 387.594 106.869 387.253 106.733C386.916 106.601 386.578 106.571 386.24 106.642C385.899 106.716 385.585 106.889 385.296 107.16Z" fill="white"/>
<path d="M370.145 117.595L372.492 123.519L371.3 124.042L370.551 122.151L370.927 122.156C370.997 122.409 371.028 122.666 371.02 122.928C371.011 123.189 370.962 123.44 370.873 123.68C370.781 123.925 370.637 124.15 370.443 124.353C370.248 124.556 369.997 124.726 369.689 124.861C369.455 124.964 369.259 125.028 369.101 125.053C368.94 125.08 368.839 125.09 368.797 125.082L368.599 123.833C368.646 123.843 368.734 123.844 368.864 123.835C368.99 123.828 369.152 123.78 369.35 123.694C369.65 123.562 369.878 123.399 370.033 123.204C370.188 123.009 370.288 122.797 370.335 122.567C370.381 122.337 370.388 122.105 370.356 121.87C370.321 121.641 370.261 121.421 370.177 121.209L368.953 118.118L370.145 117.595Z" fill="white"/>
<path d="M354.721 123.874L354.789 124.886L350.111 125.235L350.27 124.922C350.271 124.946 350.273 124.97 350.275 124.994C350.277 125.022 350.278 125.046 350.28 125.066C350.301 125.389 350.391 125.681 350.549 125.942C350.707 126.207 350.931 126.411 351.222 126.554C351.508 126.701 351.859 126.759 352.274 126.728C352.689 126.697 353.047 126.58 353.351 126.377C353.65 126.178 353.876 125.908 354.03 125.568C354.179 125.232 354.239 124.837 354.208 124.382C354.177 123.919 354.066 123.526 353.876 123.203C353.687 122.884 353.428 122.647 353.101 122.491C352.774 122.335 352.391 122.273 351.952 122.306C351.645 122.329 351.381 122.379 351.162 122.455C350.939 122.536 350.759 122.634 350.622 122.748C350.482 122.863 350.378 122.983 350.31 123.108C350.243 123.238 350.207 123.363 350.203 123.483L348.911 123.58C348.917 123.319 348.985 123.055 349.116 122.788C349.242 122.526 349.432 122.281 349.686 122.054C349.935 121.831 350.247 121.643 350.622 121.491C350.993 121.343 351.426 121.25 351.92 121.213C352.582 121.164 353.172 121.26 353.69 121.502C354.207 121.744 354.622 122.103 354.935 122.577C355.247 123.055 355.425 123.615 355.469 124.257C355.513 124.912 355.41 125.497 355.16 126.013C354.91 126.529 354.543 126.944 354.059 127.257C353.575 127.573 353.008 127.756 352.358 127.805C351.696 127.854 351.114 127.757 350.613 127.514C350.107 127.271 349.706 126.914 349.41 126.442C349.114 125.971 348.944 125.416 348.901 124.778C348.896 124.702 348.892 124.614 348.889 124.514C348.887 124.414 348.888 124.346 348.894 124.309L354.721 123.874Z" fill="white"/>
<rect y="16" width="257" height="100" rx="50" fill="black"/>
<path d="M51.11 54.3875L53.56 51.7975V62.665L51.88 61.3H62.4325V65.5H51.88L53.56 64.03V76H48.135V50.1875H63.99V54.3875H51.11ZM66.9188 76V57.415H72.3613V63.82L71.2413 63.12C71.3696 62.245 71.603 61.44 71.9413 60.705C72.2796 59.97 72.7171 59.3342 73.2538 58.7975C73.7905 58.2492 74.4263 57.8233 75.1613 57.52C75.908 57.2167 76.7596 57.065 77.7163 57.065C78.463 57.065 79.0463 57.1233 79.4663 57.24C79.898 57.345 80.1663 57.4267 80.2713 57.485L79.3788 62.35C79.2738 62.2917 79.0405 62.1983 78.6788 62.07C78.3171 61.9417 77.8505 61.8775 77.2788 61.8775C76.3455 61.8775 75.5638 62.035 74.9338 62.35C74.3038 62.665 73.7963 63.085 73.4113 63.61C73.038 64.1233 72.7696 64.695 72.6063 65.325C72.443 65.955 72.3613 66.5908 72.3613 67.2325V76H66.9188ZM84.8631 68.335V64.7475H97.1831L96.6581 65.6575C96.6581 65.5642 96.6581 65.4767 96.6581 65.395C96.6581 65.3017 96.6581 65.2142 96.6581 65.1325C96.6581 64.4675 96.5006 63.8317 96.1856 63.225C95.8706 62.6067 95.3806 62.105 94.7156 61.72C94.0623 61.3233 93.2223 61.125 92.1956 61.125C91.169 61.125 90.2823 61.3467 89.5356 61.79C88.8006 62.2217 88.2348 62.8458 87.8381 63.6625C87.4531 64.4792 87.2606 65.465 87.2606 66.62C87.2606 67.81 87.4473 68.8308 87.8206 69.6825C88.2056 70.5225 88.7715 71.17 89.5181 71.625C90.2765 72.08 91.2156 72.3075 92.3356 72.3075C93.059 72.3075 93.6831 72.2433 94.2081 72.115C94.7331 71.975 95.159 71.8 95.4856 71.59C95.824 71.38 96.0806 71.1467 96.2556 70.89C96.4306 70.6333 96.5356 70.3825 96.5706 70.1375H101.926C101.856 70.9192 101.587 71.6892 101.121 72.4475C100.654 73.1942 100.006 73.8708 99.1781 74.4775C98.3498 75.0725 97.3406 75.545 96.1506 75.895C94.9723 76.245 93.6248 76.42 92.1081 76.42C90.0548 76.42 88.264 76.0117 86.7356 75.195C85.2073 74.3667 84.0231 73.2292 83.1831 71.7825C82.3431 70.3242 81.9231 68.6442 81.9231 66.7425C81.9231 64.8175 82.349 63.1317 83.2006 61.685C84.064 60.2267 85.2598 59.095 86.7881 58.29C88.3281 57.4733 90.1073 57.065 92.1256 57.065C94.1906 57.065 95.9756 57.4792 97.4806 58.3075C98.9856 59.1242 100.146 60.2733 100.963 61.755C101.78 63.225 102.188 64.94 102.188 66.9C102.188 67.1917 102.182 67.4717 102.171 67.74C102.159 68.0083 102.141 68.2067 102.118 68.335H84.8631ZM107.766 68.335V64.7475H120.086L119.561 65.6575C119.561 65.5642 119.561 65.4767 119.561 65.395C119.561 65.3017 119.561 65.2142 119.561 65.1325C119.561 64.4675 119.403 63.8317 119.088 63.225C118.773 62.6067 118.283 62.105 117.618 61.72C116.965 61.3233 116.125 61.125 115.098 61.125C114.072 61.125 113.185 61.3467 112.438 61.79C111.703 62.2217 111.138 62.8458 110.741 63.6625C110.356 64.4792 110.163 65.465 110.163 66.62C110.163 67.81 110.35 68.8308 110.723 69.6825C111.108 70.5225 111.674 71.17 112.421 71.625C113.179 72.08 114.118 72.3075 115.238 72.3075C115.962 72.3075 116.586 72.2433 117.111 72.115C117.636 71.975 118.062 71.8 118.388 71.59C118.727 71.38 118.983 71.1467 119.158 70.89C119.333 70.6333 119.438 70.3825 119.473 70.1375H124.828C124.758 70.9192 124.49 71.6892 124.023 72.4475C123.557 73.1942 122.909 73.8708 122.081 74.4775C121.253 75.0725 120.243 75.545 119.053 75.895C117.875 76.245 116.528 76.42 115.011 76.42C112.958 76.42 111.167 76.0117 109.638 75.195C108.11 74.3667 106.926 73.2292 106.086 71.7825C105.246 70.3242 104.826 68.6442 104.826 66.7425C104.826 64.8175 105.252 63.1317 106.103 61.685C106.967 60.2267 108.163 59.095 109.691 58.29C111.231 57.4733 113.01 57.065 115.028 57.065C117.093 57.065 118.878 57.4792 120.383 58.3075C121.888 59.1242 123.049 60.2733 123.866 61.755C124.683 63.225 125.091 64.94 125.091 66.9C125.091 67.1917 125.085 67.4717 125.073 67.74C125.062 68.0083 125.044 68.2067 125.021 68.335H107.766ZM154.591 54.3875H146.069L148.239 51.7975V76H142.831V51.7975L145.071 54.3875H136.496V50.1875H154.591V54.3875ZM155.901 76V57.415H161.343V63.82L160.223 63.12C160.352 62.245 160.585 61.44 160.923 60.705C161.262 59.97 161.699 59.3342 162.236 58.7975C162.772 58.2492 163.408 57.8233 164.143 57.52C164.89 57.2167 165.742 57.065 166.698 57.065C167.445 57.065 168.028 57.1233 168.448 57.24C168.88 57.345 169.148 57.4267 169.253 57.485L168.361 62.35C168.256 62.2917 168.022 62.1983 167.661 62.07C167.299 61.9417 166.832 61.8775 166.261 61.8775C165.327 61.8775 164.546 62.035 163.916 62.35C163.286 62.665 162.778 63.085 162.393 63.61C162.02 64.1233 161.752 64.695 161.588 65.325C161.425 65.955 161.343 66.5908 161.343 67.2325V76H155.901ZM171.894 76V57.415H177.267V76H171.894ZM174.572 54.3875C173.732 54.3875 172.997 54.1658 172.367 53.7225C171.749 53.2792 171.439 52.655 171.439 51.85C171.439 51.0333 171.749 50.4033 172.367 49.96C172.997 49.5167 173.732 49.295 174.572 49.295C175.424 49.295 176.159 49.5167 176.777 49.96C177.407 50.4033 177.722 51.0333 177.722 51.85C177.722 52.6667 177.407 53.2967 176.777 53.74C176.159 54.1717 175.424 54.3875 174.572 54.3875ZM187.67 76.385C186.316 76.385 185.109 76.1692 184.047 75.7375C182.997 75.3058 182.175 74.6817 181.58 73.865C180.985 73.0483 180.687 72.0567 180.687 70.89C180.687 69.5717 181.049 68.4983 181.772 67.67C182.495 66.8417 183.452 66.2117 184.642 65.78C185.844 65.3367 187.145 65.045 188.545 64.905C190.586 64.7067 191.992 64.5258 192.762 64.3625C193.544 64.1992 193.935 63.9133 193.935 63.505C193.935 63.4933 193.935 63.4817 193.935 63.47C193.935 62.7817 193.602 62.2392 192.937 61.8425C192.284 61.4458 191.368 61.2475 190.19 61.2475C188.941 61.2475 187.985 61.475 187.32 61.93C186.666 62.3733 186.34 63.0558 186.34 63.9775H181.002C181.002 62.4842 181.405 61.2242 182.21 60.1975C183.026 59.1708 184.129 58.395 185.517 57.87C186.905 57.3333 188.475 57.065 190.225 57.065C191.858 57.065 193.369 57.3158 194.757 57.8175C196.145 58.3075 197.26 59.0483 198.1 60.04C198.951 61.0317 199.377 62.2917 199.377 63.82C199.377 64.065 199.377 64.31 199.377 64.555C199.377 64.7883 199.377 65.0275 199.377 65.2725V71.8525C199.377 72.3308 199.389 72.7917 199.412 73.235C199.447 73.6667 199.517 74.0633 199.622 74.425C199.739 74.8333 199.885 75.1717 200.06 75.44C200.235 75.7083 200.38 75.895 200.497 76H195.16C195.078 75.9183 194.95 75.7492 194.775 75.4925C194.611 75.2358 194.471 74.9383 194.355 74.6C194.215 74.1917 194.11 73.7833 194.04 73.375C193.981 72.955 193.952 72.465 193.952 71.905L195.072 72.675C194.745 73.445 194.215 74.11 193.48 74.67C192.756 75.2183 191.893 75.6442 190.89 75.9475C189.898 76.2392 188.825 76.385 187.67 76.385ZM189.122 72.325C189.974 72.325 190.767 72.1733 191.502 71.87C192.249 71.555 192.855 71.065 193.322 70.4C193.789 69.735 194.022 68.8658 194.022 67.7925V65.92L195.37 67.2325C194.6 67.5125 193.707 67.7458 192.692 67.9325C191.689 68.1075 190.685 68.2475 189.682 68.3525C188.492 68.4692 187.6 68.6733 187.005 68.965C186.421 69.245 186.13 69.7233 186.13 70.4C186.13 71.0417 186.38 71.5258 186.882 71.8525C187.384 72.1675 188.13 72.325 189.122 72.325ZM209.07 48.6475V76H203.715V48.6475H209.07Z" fill="white"/>
<defs>
<radialGradient id="paint0_radial_172_308" cx="0" cy="0" r="1" gradientUnits="userSpaceOnUse" gradientTransform="translate(330.5 65.5) rotate(90) scale(47.5 52.5)">
<stop offset="0.291667" stop-color="#0F3470"/>
<stop offset="1" stop-color="white"/>
</radialGradient>
</defs>
</svg>
