<svg width="70" height="131" viewBox="0 0 70 131" fill="none" xmlns="http://www.w3.org/2000/svg">
<path d="M2.42586 9.27835L2.73708 1.17182L3.9295 1.22255L3.63221 8.96635L3.11859 8.29491L6.79477 8.4513L6.75595 9.46256L2.42586 9.27835Z" fill="#9E14E0" fill-opacity="0.6"/>
<path d="M19.8547 6.37597L20.2097 5.42614L24.5446 7.22156L24.2733 7.43369C24.2817 7.41121 24.2901 7.38873 24.2985 7.36625C24.3083 7.34002 24.3167 7.31754 24.3237 7.2988C24.4372 6.99531 24.4768 6.68939 24.4427 6.38103C24.41 6.06893 24.293 5.78249 24.0917 5.52173C23.8956 5.25875 23.6053 5.04767 23.221 4.88849C22.8366 4.7293 22.467 4.67355 22.112 4.72124C21.7621 4.76672 21.4485 4.9094 21.171 5.14929C20.8987 5.38697 20.6827 5.71938 20.523 6.14652C20.3606 6.58115 20.2981 6.98797 20.3357 7.36699C20.3747 7.74227 20.5086 8.07467 20.7376 8.36419C20.9665 8.65372 21.2842 8.88266 21.6907 9.05103C21.9753 9.16889 22.2316 9.24257 22.4595 9.27209C22.6926 9.29938 22.8938 9.29187 23.0633 9.24956C23.2364 9.20877 23.3791 9.14672 23.4913 9.06339C23.605 8.97632 23.6883 8.87888 23.7414 8.77107L24.9388 9.26699C24.8256 9.50135 24.6558 9.71011 24.4294 9.89328C24.2082 10.0742 23.9373 10.2108 23.6169 10.3031C23.3016 10.3932 22.9448 10.4228 22.5466 10.392C22.1535 10.359 21.7279 10.2476 21.2696 10.0578C20.6561 9.80376 20.1675 9.44992 19.8035 8.99632C19.4396 8.54271 19.2152 8.03003 19.1301 7.45828C19.0465 6.88279 19.1174 6.29342 19.3429 5.69018C19.5726 5.0757 19.9054 4.59049 20.3414 4.23456C20.7775 3.87862 21.2766 3.66782 21.8389 3.60214C22.4026 3.53272 22.9856 3.62276 23.588 3.87225C24.2015 4.12633 24.6828 4.47711 25.0319 4.9246C25.3847 5.37361 25.597 5.87906 25.6686 6.44094C25.7403 7.00282 25.6641 7.58351 25.44 8.183C25.4134 8.25419 25.3807 8.33585 25.342 8.42799C25.3033 8.52013 25.2739 8.58153 25.254 8.61219L19.8547 6.37597Z" fill="#9E14E0" fill-opacity="0.6"/>
<path d="M38.0316 19.8441C37.6855 19.5115 37.4309 19.1618 37.268 18.7948C37.1079 18.4305 37.0488 18.0718 37.0906 17.7187C37.1324 17.3655 37.2843 17.0378 37.5463 16.7356C37.8267 16.4122 38.1393 16.2223 38.4843 16.1659C38.8321 16.1123 39.1986 16.1652 39.5838 16.3247C39.9744 16.484 40.3686 16.7214 40.7664 17.0371C41.3614 17.5034 41.7935 17.816 42.0628 17.975C42.335 18.1367 42.5248 18.1556 42.6322 18.0317C42.6348 18.0287 42.6374 18.0257 42.6401 18.0226C42.8523 17.7778 42.9139 17.4963 42.8249 17.1782C42.7359 16.8601 42.5068 16.5236 42.1376 16.1689C41.7481 15.7948 41.3838 15.5778 41.0446 15.5178C40.7109 15.4576 40.4091 15.5831 40.1392 15.8944L39.2175 15.0091C39.5372 14.6403 39.8992 14.4148 40.3037 14.3325C40.711 14.2529 41.1339 14.3018 41.5722 14.4792C42.0132 14.6536 42.4428 14.9416 42.8611 15.3434C43.2448 15.712 43.5401 16.1093 43.7471 16.5352C43.9596 16.9609 44.0548 17.3848 44.0327 17.8067C44.0106 18.2286 43.8436 18.6194 43.5318 18.979C43.4768 19.0425 43.4218 19.106 43.3668 19.1694C43.3144 19.2299 43.2607 19.2918 43.2056 19.3553L41.5392 21.2776C41.4423 21.3894 41.3523 21.5023 41.2692 21.6164C41.1888 21.7275 41.1247 21.8349 41.0771 21.9387C41.0218 22.0574 40.9853 22.1635 40.9675 22.2572C40.9526 22.3537 40.9462 22.4251 40.9483 22.4714L40.0137 21.5736C40.0121 21.5389 40.0189 21.4761 40.0341 21.3855C40.0547 21.2945 40.0862 21.1973 40.1283 21.0938C40.1679 20.9933 40.2223 20.8877 40.2918 20.7772C40.3667 20.6664 40.4539 20.5535 40.5535 20.4387L40.6165 20.7319C40.378 20.824 40.1145 20.8506 39.8258 20.8115C39.5401 20.7752 39.2432 20.6756 38.9351 20.5126C38.6299 20.3523 38.3287 20.1295 38.0316 19.8441ZM38.9338 19.2151C39.2021 19.4728 39.4838 19.6631 39.779 19.7861C40.0797 19.9088 40.375 19.9432 40.665 19.8893C40.9575 19.8324 41.2243 19.6649 41.4653 19.3869L42.157 18.589L42.1144 19.1047C41.8643 19.0029 41.5841 18.8473 41.2739 18.638C40.9692 18.4284 40.6624 18.2029 40.3535 17.9616C39.9327 17.6237 39.5783 17.4135 39.2904 17.3309C39.0052 17.2452 38.7578 17.3232 38.5482 17.565C38.3464 17.7978 38.2752 18.0507 38.3346 18.3237C38.3994 18.5965 38.5992 18.8936 38.9338 19.2151Z" fill="#9E14E0" fill-opacity="0.6"/>
<path d="M49.869 33.6681L55.3706 30.4533L55.9779 31.605L54.2218 32.6312L54.1941 32.2446C54.4317 32.1382 54.6766 32.0715 54.9289 32.0444C55.1811 32.0173 55.4268 32.0335 55.6659 32.0928C55.9103 32.1536 56.1389 32.27 56.3515 32.442C56.5642 32.6139 56.7489 32.8485 56.9056 33.1457C57.025 33.3721 57.1038 33.5645 57.1421 33.7226C57.1822 33.8843 57.2002 33.9872 57.1963 34.0311L56.0108 34.4045C56.0163 34.355 56.0091 34.2643 55.9893 34.1324C55.9713 34.0041 55.9119 33.8444 55.8112 33.6533C55.6582 33.3632 55.4812 33.1518 55.2803 33.0193C55.0794 32.8868 54.8662 32.8123 54.6407 32.796C54.4152 32.7796 54.191 32.8042 53.968 32.8697C53.7504 32.9367 53.5431 33.0277 53.3463 33.1428L50.4763 34.8198L49.869 33.6681Z" fill="#9E14E0" fill-opacity="0.6"/>
<path d="M57.3266 53.2956L60.2127 52.7351C60.3815 52.7023 60.5248 52.6745 60.6426 52.6516C60.7604 52.6287 60.8704 52.6074 60.9725 52.5875C61.2788 52.5281 61.5394 52.4285 61.7545 52.289C61.9736 52.1487 62.1289 51.9576 62.2205 51.7157C62.316 51.4731 62.332 51.1706 62.2685 50.8081C62.2126 50.4889 62.0833 50.2146 61.8806 49.9851C61.6787 49.7595 61.4288 49.5962 61.1309 49.4951C60.8377 49.3973 60.5202 49.3815 60.1786 49.4478L60.3532 48.8456C60.8598 48.7472 61.3344 48.7793 61.777 48.9419C62.2236 49.1037 62.5999 49.3626 62.9059 49.7188C63.2126 50.0788 63.4081 50.4992 63.4923 50.9799C63.5793 51.4763 63.5573 51.9185 63.4264 52.3065C63.3001 52.6977 63.0764 53.0202 62.7555 53.274C62.4392 53.531 62.0375 53.7068 61.5506 53.8014C61.37 53.8364 61.1697 53.8753 60.9499 53.918C60.73 53.9607 60.5179 54.0019 60.3137 54.0416L57.5513 54.578L57.3266 53.2956ZM56.5436 48.8277L62.7987 47.6129L63.0235 48.8954L56.7683 50.1101L56.5436 48.8277Z" fill="#9E14E0" fill-opacity="0.6"/>
<path d="M61.9121 90.4689L61.105 92.3429L53.7836 88.8486L54.2318 87.808L60.7987 90.9422L60.7757 90.9678L54.9737 86.0855L55.6221 84.5802L62.9455 85.9441L62.9473 85.9815L56.3705 82.8425L56.8209 81.7969L64.1422 85.2912L63.335 87.1653L55.9884 85.6746L56.0102 85.6241L61.9121 90.4689Z" fill="#9E14E0" fill-opacity="0.6"/>
<path d="M42.5739 106.309C43.0516 105.86 43.5658 105.57 44.1167 105.441C44.6647 105.315 45.2026 105.344 45.7305 105.527C46.2581 105.716 46.7303 106.056 47.1472 106.547C47.5616 107.035 47.8261 107.562 47.9407 108.129C48.055 108.702 48.0194 109.265 47.834 109.818C47.6483 110.377 47.3166 110.881 46.8389 111.33C46.3612 111.78 45.8497 112.07 45.3044 112.199C44.7587 112.334 44.2234 112.308 43.6984 112.122C43.173 111.942 42.7032 111.608 42.2889 111.12C41.872 110.629 41.6051 110.096 41.4882 109.52C41.3709 108.95 41.4039 108.384 41.587 107.823C41.7673 107.263 42.0962 106.759 42.5739 106.309ZM43.2964 107.16C43.0051 107.434 42.8071 107.744 42.7022 108.09C42.5974 108.435 42.5885 108.792 42.6756 109.16C42.7653 109.531 42.9539 109.885 43.2413 110.224C43.5262 110.559 43.8361 110.791 44.1711 110.92C44.5061 111.049 44.8413 111.077 45.1766 111.002C45.5119 110.928 45.8252 110.754 46.1164 110.48C46.4048 110.208 46.6041 109.9 46.7145 109.555C46.8219 109.212 46.8334 108.859 46.7488 108.494C46.6643 108.129 46.4797 107.779 46.1948 107.444C45.9074 107.105 45.5935 106.869 45.2534 106.733C44.9158 106.601 44.578 106.571 44.2401 106.642C43.8993 106.716 43.5847 106.889 43.2964 107.16Z" fill="#9E14E0" fill-opacity="0.6"/>
<path d="M28.1451 117.595L30.4921 123.519L29.3 124.042L28.5508 122.151L28.9269 122.156C28.997 122.409 29.0279 122.666 29.0196 122.928C29.0113 123.189 28.9623 123.44 28.8726 123.68C28.7807 123.925 28.6374 124.15 28.4428 124.353C28.2482 124.556 27.997 124.726 27.6894 124.861C27.455 124.964 27.259 125.028 27.1014 125.053C26.9402 125.08 26.8386 125.09 26.7968 125.082L26.5987 123.833C26.6456 123.843 26.734 123.844 26.8637 123.835C26.9898 123.828 27.1518 123.78 27.3495 123.694C27.6499 123.562 27.8776 123.399 28.0326 123.204C28.1877 123.009 28.2884 122.797 28.3349 122.567C28.3814 122.337 28.3883 122.105 28.3556 121.87C28.3207 121.641 28.2613 121.421 28.1773 121.209L26.9529 118.118L28.1451 117.595Z" fill="#9E14E0" fill-opacity="0.6"/>
<path d="M12.7213 123.874L12.7895 124.886L8.11051 125.235L8.26985 124.922C8.27146 124.946 8.27307 124.97 8.27469 124.994C8.27657 125.022 8.27818 125.046 8.27953 125.066C8.3013 125.389 8.39114 125.681 8.54903 125.942C8.7072 126.207 8.9314 126.411 9.22165 126.554C9.50817 126.701 9.85886 126.759 10.2737 126.728C10.6885 126.697 11.0475 126.58 11.3505 126.377C11.6498 126.178 11.8762 125.908 12.0297 125.568C12.1794 125.232 12.239 124.837 12.2083 124.382C12.1771 123.919 12.0665 123.526 11.8763 123.203C11.6865 122.884 11.428 122.647 11.1007 122.491C10.7735 122.335 10.3905 122.273 9.95174 122.306C9.6446 122.329 9.38135 122.379 9.16201 122.455C8.93894 122.536 8.7591 122.634 8.62249 122.748C8.48189 122.863 8.37773 122.983 8.31001 123.108C8.24255 123.238 8.20688 123.363 8.20297 123.483L6.91057 123.58C6.91703 123.319 6.98545 123.055 7.11583 122.788C7.24249 122.526 7.43246 122.281 7.68574 122.054C7.93529 121.831 8.24737 121.643 8.62197 121.491C8.99285 121.343 9.4256 121.25 9.92023 121.213C10.5824 121.164 11.1722 121.26 11.6896 121.502C12.207 121.744 12.622 122.103 12.9346 122.577C13.2474 123.055 13.4255 123.615 13.4688 124.257C13.5129 124.912 13.41 125.497 13.1601 126.013C12.9102 126.529 12.5433 126.944 12.0592 127.257C11.5754 127.573 11.0085 127.756 10.3583 127.805C9.6961 127.854 9.11429 127.757 8.61281 127.514C8.10734 127.271 7.70644 126.914 7.41011 126.442C7.11377 125.971 6.94409 125.416 6.90107 124.778C6.89597 124.702 6.89205 124.614 6.88931 124.514C6.88658 124.414 6.88799 124.346 6.89355 124.309L12.7213 123.874Z" fill="#9E14E0" fill-opacity="0.6"/>
</svg>
