<svg width="496" height="121" viewBox="0 0 496 121" fill="none" xmlns="http://www.w3.org/2000/svg">
<rect width="496" height="121" rx="50" fill="#0237C2"/>
<path d="M183.161 79V42.6364H190.849V72.6612H206.438V79H183.161ZM223.71 79.5327C220.952 79.5327 218.567 78.9467 216.555 77.7749C214.554 76.5911 213.009 74.9458 211.92 72.8388C210.831 70.7199 210.287 68.2637 210.287 65.4702C210.287 62.6529 210.831 60.1908 211.92 58.0838C213.009 55.965 214.554 54.3196 216.555 53.1477C218.567 51.964 220.952 51.3722 223.71 51.3722C226.468 51.3722 228.847 51.964 230.848 53.1477C232.86 54.3196 234.411 55.965 235.5 58.0838C236.589 60.1908 237.133 62.6529 237.133 65.4702C237.133 68.2637 236.589 70.7199 235.5 72.8388C234.411 74.9458 232.86 76.5911 230.848 77.7749C228.847 78.9467 226.468 79.5327 223.71 79.5327ZM223.746 73.6733C225 73.6733 226.048 73.3182 226.888 72.608C227.729 71.8859 228.362 70.9034 228.788 69.6605C229.226 68.4176 229.445 67.0031 229.445 65.4169C229.445 63.8307 229.226 62.4162 228.788 61.1733C228.362 59.9304 227.729 58.9479 226.888 58.2259C226.048 57.5038 225 57.1428 223.746 57.1428C222.479 57.1428 221.414 57.5038 220.55 58.2259C219.697 58.9479 219.052 59.9304 218.614 61.1733C218.188 62.4162 217.975 63.8307 217.975 65.4169C217.975 67.0031 218.188 68.4176 218.614 69.6605C219.052 70.9034 219.697 71.8859 220.55 72.608C221.414 73.3182 222.479 73.6733 223.746 73.6733ZM254.339 89.7955C251.888 89.7955 249.787 89.4581 248.035 88.7834C246.295 88.1205 244.91 87.215 243.881 86.0668C242.851 84.9186 242.182 83.6283 241.874 82.196L248.87 81.255C249.083 81.7995 249.42 82.3085 249.882 82.782C250.344 83.2554 250.953 83.6342 251.711 83.9183C252.48 84.2143 253.415 84.3622 254.516 84.3622C256.162 84.3622 257.517 83.9598 258.582 83.1548C259.659 82.3617 260.198 81.0301 260.198 79.1598V74.1705H259.878C259.547 74.928 259.05 75.6442 258.387 76.3189C257.724 76.9936 256.872 77.544 255.83 77.9702C254.788 78.3963 253.546 78.6094 252.101 78.6094C250.054 78.6094 248.189 78.1359 246.508 77.1889C244.839 76.2301 243.508 74.7682 242.513 72.8033C241.531 70.8265 241.04 68.3288 241.04 65.3104C241.04 62.2209 241.543 59.6404 242.549 57.5689C243.555 55.4974 244.893 53.9467 246.562 52.9169C248.242 51.8871 250.083 51.3722 252.084 51.3722C253.611 51.3722 254.889 51.6326 255.919 52.1534C256.949 52.6624 257.777 53.3016 258.405 54.071C259.044 54.8286 259.535 55.5743 259.878 56.3082H260.162V51.7273H267.673V79.2663C267.673 81.5864 267.105 83.5277 265.969 85.0902C264.832 86.6527 263.258 87.8246 261.246 88.6058C259.245 89.3989 256.943 89.7955 254.339 89.7955ZM254.498 72.9276C255.718 72.9276 256.747 72.6257 257.588 72.022C258.44 71.4065 259.091 70.5305 259.541 69.3942C260.003 68.246 260.233 66.8729 260.233 65.2749C260.233 63.6768 260.009 62.2919 259.559 61.12C259.109 59.9363 258.458 59.0189 257.606 58.3679C256.753 57.7169 255.718 57.3913 254.498 57.3913C253.256 57.3913 252.208 57.7287 251.356 58.4034C250.503 59.0663 249.858 59.9896 249.42 61.1733C248.982 62.357 248.763 63.7242 248.763 65.2749C248.763 66.8492 248.982 68.2105 249.42 69.3587C249.87 70.495 250.515 71.3769 251.356 72.0043C252.208 72.6198 253.256 72.9276 254.498 72.9276ZM273.692 79V51.7273H281.256V79H273.692ZM277.492 48.2116C276.367 48.2116 275.403 47.8388 274.598 47.093C273.805 46.3355 273.408 45.4299 273.408 44.3764C273.408 43.3348 273.805 42.4411 274.598 41.6953C275.403 40.9377 276.367 40.5589 277.492 40.5589C278.617 40.5589 279.575 40.9377 280.368 41.6953C281.173 42.4411 281.576 43.3348 281.576 44.3764C281.576 45.4299 281.173 46.3355 280.368 47.093C279.575 47.8388 278.617 48.2116 277.492 48.2116ZM294.879 63.233V79H287.315V51.7273H294.524V56.5391H294.844C295.447 54.9529 296.46 53.6982 297.88 52.7749C299.3 51.8397 301.023 51.3722 303.047 51.3722C304.941 51.3722 306.592 51.7865 308.001 52.6151C309.409 53.4437 310.504 54.6274 311.286 56.1662C312.067 57.6932 312.457 59.5161 312.457 61.6349V79H304.893V62.9844C304.905 61.3153 304.479 60.0133 303.615 59.0781C302.751 58.1312 301.561 57.6577 300.046 57.6577C299.028 57.6577 298.129 57.8767 297.347 58.3146C296.578 58.7526 295.974 59.3918 295.536 60.2322C295.11 61.0608 294.891 62.0611 294.879 63.233Z" fill="white"/>
</svg>
