<svg width="251" height="185" viewBox="0 0 251 185" fill="none" xmlns="http://www.w3.org/2000/svg">
<g filter="url(#filter0_d_183_381)">
<path d="M122.033 142.76C123.148 142.029 124.247 141.562 125.33 141.36C126.407 141.162 127.416 141.257 128.358 141.646C129.298 142.045 130.114 142.771 130.804 143.824C130.877 143.935 130.943 144.036 131.003 144.127C131.067 144.224 131.135 144.329 131.208 144.44L127.958 146.573C127.889 146.468 127.828 146.374 127.773 146.29C127.722 146.214 127.663 146.123 127.594 146.019C127.124 145.301 126.56 144.883 125.905 144.765C125.249 144.647 124.524 144.848 123.73 145.369C122.929 145.895 122.394 146.425 122.127 146.959C121.864 147.5 121.925 148.064 122.309 148.649C122.578 149.06 122.98 149.315 123.513 149.414C124.039 149.517 124.661 149.508 125.378 149.386C126.093 149.276 126.877 149.095 127.729 148.845C128.663 148.582 129.591 148.431 130.513 148.394C131.436 148.357 132.3 148.513 133.107 148.861C133.906 149.214 134.6 149.839 135.19 150.738C135.784 151.644 136.049 152.572 135.984 153.521C135.924 154.478 135.589 155.395 134.979 156.273C134.374 157.159 133.549 157.944 132.503 158.63C131.41 159.347 130.332 159.81 129.272 160.017C128.21 160.235 127.22 160.162 126.303 159.797C125.383 159.444 124.594 158.765 123.936 157.762C123.863 157.65 123.794 157.546 123.73 157.448C123.671 157.358 123.602 157.253 123.525 157.135L126.765 155.009C126.815 155.086 126.868 155.166 126.923 155.25C126.977 155.333 127.03 155.413 127.08 155.49C127.524 156.166 128.052 156.562 128.666 156.677C129.273 156.797 129.974 156.597 130.768 156.076C131.535 155.573 132.039 155.043 132.281 154.485C132.516 153.932 132.444 153.367 132.065 152.788C131.791 152.37 131.408 152.113 130.916 152.017C130.418 151.925 129.828 151.938 129.148 152.056C128.467 152.173 127.714 152.339 126.887 152.552C125.757 152.835 124.723 153.005 123.784 153.063C122.843 153.132 121.992 152.998 121.232 152.659C120.476 152.328 119.803 151.712 119.214 150.814C118.61 149.894 118.333 148.955 118.382 147.996C118.431 147.037 118.771 146.106 119.405 145.202C120.035 144.31 120.911 143.496 122.033 142.76Z" fill="white"/>
<path d="M103.258 150.995C103.749 150.863 104.267 150.77 104.814 150.717C105.351 150.658 105.878 150.693 106.396 150.821C106.908 150.958 107.367 151.236 107.773 151.653C108.179 152.069 108.491 152.68 108.708 153.484C108.756 153.661 108.805 153.842 108.855 154.028C108.905 154.213 108.955 154.398 109.005 154.583L110.463 159.977L113.419 159.178L114.202 162.074L113.37 162.299C112.887 162.429 112.51 162.553 112.239 162.669C111.961 162.787 111.775 162.946 111.681 163.143C111.582 163.351 111.56 163.638 111.616 164.003C111.671 164.368 111.783 164.86 111.95 165.479L112.387 167.096L108.634 168.11L107.493 163.887L103.764 164.895L102.981 161.999L106.71 160.991L105.464 156.381C105.425 156.236 105.387 156.096 105.35 155.959C105.313 155.822 105.277 155.689 105.243 155.561C105.093 155.006 104.906 154.572 104.684 154.261C104.454 153.952 104.073 153.87 103.542 154.013C103.277 154.085 103.034 154.176 102.814 154.288C102.586 154.401 102.418 154.498 102.31 154.579L101.55 151.768C101.7 151.65 101.919 151.521 102.21 151.382C102.498 151.235 102.848 151.106 103.258 150.995Z" fill="white"/>
<path d="M88.067 152.677C89.0323 152.728 89.8855 152.928 90.6266 153.275C91.3593 153.623 91.9225 154.099 92.3162 154.704C92.7099 155.309 92.8848 156.027 92.841 156.859C92.7914 157.8 92.4931 158.552 91.946 159.115C91.3989 159.679 90.6928 160.093 89.8278 160.356C88.9539 160.627 88.0151 160.786 87.0112 160.833C85.5475 160.898 84.5379 160.974 83.9825 161.061C83.4188 161.149 83.1293 161.338 83.1139 161.629C83.1135 161.637 83.113 161.646 83.1126 161.654C83.0867 162.145 83.3035 162.544 83.7629 162.852C84.214 163.16 84.8598 163.336 85.7003 163.38C86.5908 163.427 87.2817 163.301 87.7732 163.001C88.2558 162.71 88.5145 162.235 88.5492 161.578L92.3564 161.778C92.3002 162.843 91.9658 163.727 91.353 164.429C90.7318 165.131 89.9162 165.643 88.9062 165.965C87.8957 166.296 86.7664 166.428 85.5181 166.362C84.3531 166.301 83.2848 166.065 82.3134 165.655C81.3415 165.253 80.5746 164.683 80.0128 163.944C79.4426 163.205 79.1862 162.29 79.2437 161.2C79.2529 161.025 79.2621 160.85 79.2713 160.675C79.2801 160.509 79.2891 160.338 79.2983 160.164L79.5457 155.47C79.5637 155.129 79.5727 154.8 79.5727 154.483C79.564 154.173 79.5289 153.888 79.4676 153.626C79.3998 153.33 79.3085 153.084 79.1937 152.886C79.079 152.688 78.982 152.549 78.9027 152.47L82.7099 152.67C82.7651 152.732 82.8503 152.857 82.9655 153.047C83.0723 153.236 83.161 153.454 83.2315 153.699C83.316 153.996 83.3756 154.291 83.4101 154.585C83.436 154.887 83.4383 155.237 83.4173 155.637L82.6473 155.045C82.9093 154.508 83.3129 154.054 83.8583 153.682C84.3948 153.318 85.0267 153.047 85.7537 152.868C86.4721 152.698 87.2431 152.634 88.067 152.677ZM86.8783 155.519C86.2708 155.487 85.6992 155.565 85.1635 155.754C84.6191 155.95 84.1679 156.277 83.8101 156.734C83.4522 157.191 83.2531 157.802 83.2127 158.567L83.1423 159.903L82.2305 158.916C82.7903 158.745 83.4357 158.613 84.1667 158.518C84.8889 158.431 85.6099 158.368 86.3295 158.331C87.1827 158.293 87.827 158.181 88.2624 157.995C88.689 157.817 88.915 157.487 88.9404 157.004C88.9646 156.547 88.8039 156.192 88.4583 155.94C88.1123 155.696 87.5856 155.556 86.8783 155.519Z" fill="white"/>
<path d="M73.4186 145.064C73.8047 145.22 74.1459 145.377 74.4423 145.533C74.734 145.678 74.9122 145.782 74.9769 145.844L73.8723 148.566C73.7907 148.479 73.6311 148.374 73.3934 148.251C73.1511 148.116 72.8871 147.991 72.6014 147.875C72.2231 147.722 71.852 147.661 71.4881 147.693C71.1197 147.715 70.771 147.82 70.442 148.011C70.1084 148.19 69.8046 148.44 69.5306 148.76L69.0683 149.301L68.2498 163.484L64.5087 161.966L65.9272 150.792L66.3442 150.961L59.6788 160.006L55.9839 158.507L65.4526 147.308C66.164 146.463 66.894 145.784 67.6424 145.269C68.3909 144.754 69.228 144.465 70.1537 144.4C71.0794 144.335 72.1677 144.556 73.4186 145.064Z" fill="white"/>
<path d="M31.3542 126.843C31.9952 126.364 32.7385 126.002 33.5841 125.755C34.4246 125.502 35.3065 125.415 36.2296 125.496C37.1478 125.569 38.0622 125.854 38.9728 126.349C39.8717 126.843 40.7051 127.604 41.4729 128.632C42.4949 130.001 43.0436 131.411 43.1188 132.863C43.1873 134.32 42.8393 135.734 42.0747 137.106C41.3051 138.471 40.1757 139.709 38.6867 140.821C37.1976 141.933 35.6927 142.661 34.172 143.006C32.6462 143.345 31.198 143.272 29.8274 142.787C28.4568 142.302 27.2604 141.376 26.2384 140.007C25.3858 138.865 24.8674 137.739 24.6832 136.628C24.4939 135.511 24.5503 134.466 24.8524 133.491C25.1495 132.51 25.6005 131.659 26.2054 130.937C26.573 130.496 26.9638 130.121 27.3778 129.812L29.7036 132.927C29.5033 133.076 29.3221 133.238 29.1601 133.411C28.7225 133.841 28.4031 134.319 28.202 134.844C28.0009 135.368 27.9397 135.913 28.0185 136.478C28.0856 137.042 28.3236 137.597 28.7324 138.145C29.211 138.786 29.8209 139.22 30.5621 139.446C31.3033 139.673 32.1583 139.648 33.1273 139.372C34.0962 139.095 35.1616 138.524 36.3235 137.656C37.492 136.784 38.3497 135.92 38.8965 135.064C39.4367 134.214 39.7068 133.398 39.7068 132.618C39.7001 131.843 39.4575 131.135 38.9789 130.494C38.6349 130.033 38.2473 129.688 37.8161 129.459C37.3799 129.223 36.9252 129.095 36.4519 129.074C35.9737 129.046 35.4968 129.111 35.0215 129.268C34.5412 129.419 34.094 129.649 33.68 129.958L31.3542 126.843Z" fill="white"/>
<path d="M32.0587 109.682C32.4493 111.061 32.5087 112.357 32.237 113.568C31.9652 114.78 31.4163 115.823 30.5901 116.698C29.7537 117.567 28.682 118.187 27.3751 118.557C26.0762 118.925 24.8467 118.957 23.6867 118.654C22.5164 118.344 21.5059 117.743 20.6551 116.849C19.7964 115.958 19.1717 114.822 18.7811 113.443C18.3904 112.064 18.327 110.77 18.5907 109.561C18.8464 108.354 19.3925 107.316 20.229 106.446C21.0551 105.571 22.1176 104.95 23.4165 104.582C24.7235 104.212 25.9621 104.182 27.1324 104.491C28.2924 104.795 29.3058 105.391 30.1726 106.28C31.0393 107.169 31.668 108.303 32.0587 109.682ZM29.1001 110.52C28.9161 109.871 28.6037 109.349 28.1627 108.954C27.7218 108.559 27.1872 108.308 26.559 108.2C25.9228 108.095 25.2319 108.147 24.4862 108.359C23.7406 108.57 23.1326 108.885 22.6623 109.304C22.184 109.725 21.8647 110.218 21.7043 110.783C21.5439 111.349 21.5557 111.956 21.7397 112.605C21.9213 113.247 22.2298 113.77 22.665 114.175C23.0979 114.572 23.6285 114.825 24.2566 114.932C24.8768 115.043 25.5597 114.992 26.3054 114.781C27.051 114.57 27.667 114.252 28.1533 113.829C28.6316 113.407 28.955 112.913 29.1234 112.346C29.2895 111.77 29.2818 111.162 29.1001 110.52Z" fill="white"/>
<path d="M29.815 85.9382L24.1961 85.4811C23.8805 85.4554 23.5939 85.4321 23.3364 85.4111C23.0789 85.3902 22.8464 85.3712 22.6387 85.3544C22.0905 85.3097 21.5864 85.3398 21.1264 85.4445C20.6581 85.5485 20.2721 85.7721 19.9682 86.1153C19.6644 86.4585 19.4844 86.9747 19.4283 87.6641C19.3797 88.2621 19.4745 88.7924 19.7128 89.2549C19.9517 89.7091 20.3068 90.0724 20.7779 90.3449C21.249 90.6173 21.8044 90.7796 22.4439 90.8316L21.5843 91.8402C20.4381 91.7469 19.4533 91.416 18.6301 90.8474C17.8068 90.2787 17.1846 89.5509 16.7635 88.6638C16.3431 87.7684 16.1751 86.8016 16.2595 85.7634C16.3481 84.6753 16.6408 83.8003 17.1378 83.1385C17.6272 82.4676 18.2761 81.9937 19.0845 81.7166C19.8854 81.4306 20.8049 81.3299 21.8431 81.4144C22.2667 81.4488 22.7402 81.4873 23.2634 81.5299C23.7867 81.5725 24.3224 81.6161 24.8706 81.6607L30.1282 82.0885L29.815 85.9382ZM29.0568 95.2574L15.8255 94.1809L16.1397 90.3187L29.371 91.3952L29.0568 95.2574Z" fill="white"/>
<path d="M36.0829 65.6231L30.9786 63.2301C30.6918 63.0957 30.4315 62.9736 30.1976 62.864C29.9637 62.7543 29.7524 62.6553 29.5638 62.5668C29.0658 62.3334 28.583 62.1853 28.1155 62.1225C27.6403 62.0562 27.2004 62.1307 26.7958 62.346C26.3912 62.5612 26.042 62.982 25.7484 63.6083C25.4938 64.1515 25.3972 64.6815 25.4587 65.1981C25.5237 65.7072 25.7293 66.1717 26.0754 66.5917C26.4216 67.0117 26.8851 67.3578 27.4661 67.6302L26.3081 68.2746C25.2668 67.7864 24.46 67.1321 23.8875 66.3115C23.315 65.4908 22.9866 64.5914 22.9023 63.6131C22.8214 62.6272 23.0021 61.6627 23.4443 60.7195C23.9077 59.7311 24.4879 59.0137 25.1849 58.5674C25.878 58.11 26.6516 57.8928 27.5059 57.916C28.3562 57.9281 29.2529 58.1552 30.1961 58.5974C30.5809 58.7778 31.011 58.9794 31.4863 59.2022C31.9617 59.4251 32.4484 59.6533 32.9463 59.8867L37.7225 62.1259L36.0829 65.6231ZM32.114 74.0889L20.0944 68.4539L21.7392 64.9454L33.7589 70.5804L32.114 74.0889Z" fill="white"/>
<path d="M39.611 50.374L37.8176 48.5437L44.1033 42.3849L44.2904 43.1117C44.2437 43.064 44.2 43.0194 44.1591 42.9777C44.1125 42.9301 44.0687 42.8855 44.0279 42.8438C43.6955 42.5045 43.2973 42.2589 42.8333 42.1068C42.3635 41.9488 41.8627 41.9378 41.3309 42.0738C40.7993 42.198 40.2716 42.5167 39.7478 43.03C39.224 43.5432 38.8824 44.0995 38.7231 44.699C38.5639 45.2866 38.5872 45.8879 38.7931 46.5029C39.0049 47.112 39.3995 47.7112 39.9769 48.3005C40.5718 48.9077 41.1773 49.3352 41.7935 49.5831C42.4099 49.8192 43.0223 49.8667 43.6307 49.7256C44.245 49.5786 44.8379 49.2252 45.4093 48.6653C45.7784 48.3037 46.0648 47.959 46.2685 47.631C46.4663 47.2972 46.5961 46.995 46.6578 46.7246C46.7254 46.4483 46.7397 46.2009 46.7007 45.9825C46.6617 45.7641 46.5899 45.5836 46.4853 45.4411L49.2174 42.7642C49.5724 43.198 49.8205 43.7249 49.9614 44.3451C50.0966 44.9594 50.1045 45.6283 49.9852 46.3519C49.86 47.0696 49.5813 47.8151 49.1491 48.5886C48.7229 49.3562 48.1229 50.1191 47.3491 50.8772C46.3015 51.9037 45.1837 52.5906 43.9957 52.938C42.8018 53.2793 41.629 53.291 40.4773 52.9728C39.3197 52.6486 38.2656 52.0015 37.3149 51.0312C36.3526 50.0491 35.7271 48.9761 35.4385 47.8123C35.1499 46.6366 35.1943 45.4615 35.5717 44.2867C35.9491 43.1002 36.6527 42.0025 37.6825 40.9935C38.7361 39.9612 39.8538 39.2802 41.0358 38.9505C42.2119 38.6148 43.3786 38.6208 44.5359 38.9685C45.6874 39.3103 46.7531 39.9812 47.7329 40.9812C47.8787 41.13 48.0157 41.2757 48.1439 41.4185C48.2721 41.5612 48.3623 41.6711 48.4145 41.7483L39.611 50.374Z" fill="white"/>
<path d="M64.8085 38.8894C63.4806 39.4922 62.1953 39.7553 60.9525 39.6788C59.7063 39.5947 58.5893 39.2004 57.6013 38.4957C56.621 37.7876 55.8466 36.8075 55.2783 35.5554C54.7031 34.2882 54.4786 33.0677 54.6047 31.894C54.735 30.7092 55.1838 29.6315 55.9512 28.6608C56.7186 27.6901 57.7663 26.9034 59.0943 26.3007C60.0883 25.8494 61.0357 25.5979 61.9364 25.5459C62.8337 25.4864 63.6489 25.5785 64.3819 25.8224C65.1149 26.0662 65.7433 26.4124 66.2672 26.8609C66.7912 27.3095 67.1806 27.8145 67.4354 28.3761C67.4389 28.3837 67.4458 28.3988 67.4561 28.4216C67.463 28.4368 67.4699 28.452 67.4768 28.4671L63.9824 30.0533C63.9618 30.0078 63.939 29.9677 63.9142 29.9332C63.8935 29.8877 63.8653 29.8456 63.8294 29.807C63.6241 29.5158 63.3552 29.2764 63.0229 29.0886C62.6906 28.9009 62.2989 28.8041 61.8478 28.7984C61.4009 28.7816 60.9043 28.8972 60.358 29.1452C59.7737 29.4104 59.3087 29.7771 58.9629 30.2452C58.6247 30.7098 58.4382 31.2566 58.4034 31.8856C58.3651 32.507 58.5148 33.1895 58.8523 33.9331C59.183 34.6616 59.6017 35.2311 60.1084 35.6417C60.6116 36.0448 61.1546 36.2833 61.7374 36.3574C62.3277 36.4281 62.915 36.3308 63.4993 36.0656C64.0987 35.7935 64.5469 35.4803 64.8436 35.1259C65.1369 34.764 65.3078 34.3844 65.3563 33.9872C65.4013 33.5824 65.3567 33.1817 65.2224 32.785L68.7168 31.1989C68.9717 31.7604 69.0989 32.3936 69.0985 33.0984C69.1023 33.7922 68.9547 34.4953 68.6557 35.2076C68.3643 35.9164 67.9026 36.5927 67.2705 37.2365C66.6384 37.8804 65.8178 38.4313 64.8085 38.8894Z" fill="white"/>
<path d="M84.24 33.8163C83.7348 33.8719 83.2079 33.8837 82.6594 33.8517C82.1202 33.8272 81.6045 33.712 81.1124 33.5062C80.6277 33.2912 80.2167 32.9466 79.8796 32.4723C79.5424 31.9979 79.3283 31.3466 79.2372 30.5182C79.2172 30.336 79.1967 30.1496 79.1757 29.9591C79.1548 29.7686 79.1338 29.5781 79.1129 29.3876L78.5023 23.8335L75.4582 24.1682L75.1303 21.1861L75.9877 21.0919C76.4847 21.0372 76.8759 20.9733 77.1612 20.9C77.4549 20.8258 77.663 20.6981 77.7856 20.517C77.9156 20.3266 77.9813 20.0469 77.9826 19.6779C77.984 19.3089 77.9496 18.8055 77.8795 18.1677L77.6964 16.5027L81.5607 16.0779L82.0387 20.4267L85.8781 20.0046L86.2059 22.9867L82.3666 23.4087L82.8883 28.1551C82.9047 28.3042 82.9207 28.4492 82.9361 28.59C82.9516 28.7308 82.9666 28.8675 82.9812 29C83.044 29.5716 83.1613 30.0282 83.333 30.3698C83.513 30.7105 83.8763 30.8508 84.423 30.7907C84.6964 30.7607 84.9504 30.7076 85.1852 30.6315C85.4282 30.5545 85.6091 30.4843 85.7279 30.4209L86.0462 33.316C85.8804 33.4096 85.6434 33.5028 85.335 33.5954C85.0275 33.6962 84.6625 33.7699 84.24 33.8163Z" fill="white"/>
<path d="M97.7816 28.209L98.3289 25.7056L106.926 27.5852L106.421 28.1401C106.435 28.075 106.448 28.0139 106.461 27.9569C106.475 27.8918 106.488 27.8307 106.501 27.7737C106.602 27.3097 106.589 26.842 106.462 26.3706C106.337 25.8911 106.071 25.4662 105.666 25.0961C105.27 24.7197 104.715 24.4531 103.998 24.2965C103.282 24.1399 102.629 24.1593 102.041 24.3547C101.462 24.5438 100.972 24.893 100.57 25.4024C100.177 25.9135 99.8924 26.5721 99.7162 27.378C99.5347 28.2084 99.5092 28.9492 99.6398 29.6005C99.7803 30.2454 100.076 30.7835 100.528 31.2149C100.988 31.6481 101.608 31.9502 102.39 32.121C102.895 32.2314 103.34 32.2818 103.726 32.2724C104.114 32.2548 104.437 32.1976 104.697 32.1009C104.966 32.006 105.18 31.8823 105.342 31.7299C105.503 31.5775 105.614 31.4185 105.676 31.2529L109.413 32.0698C109.245 32.6046 108.94 33.101 108.499 33.559C108.059 34.0088 107.504 34.3822 106.834 34.6792C106.165 34.968 105.388 35.1437 104.505 35.2064C103.629 35.2709 102.662 35.1874 101.604 34.956C100.171 34.6428 98.9835 34.0846 98.0417 33.2816C97.1016 32.4704 96.4488 31.496 96.0833 30.3584C95.7197 29.2126 95.6829 27.9762 95.973 26.6492C96.2667 25.306 96.821 24.1945 97.636 23.315C98.4609 22.4291 99.468 21.8218 100.657 21.4932C101.857 21.1583 103.16 21.1448 104.569 21.4527C106.01 21.7678 107.192 22.3291 108.116 23.1367C109.042 23.9362 109.676 24.9152 110.02 26.0737C110.366 27.224 110.389 28.4831 110.09 29.8508C110.045 30.0543 109.999 30.2488 109.95 30.4342C109.901 30.6197 109.858 30.7554 109.822 30.8414L97.7816 28.209Z" fill="white"/>
<path d="M120.231 42.3582C119.3 41.7578 118.584 40.9842 118.084 40.0373C117.588 39.0834 117.384 38.0152 117.472 36.8326C117.56 35.65 118.017 34.4178 118.843 33.1359C119.633 31.9101 120.545 31.0256 121.579 30.4825C122.62 29.9439 123.675 29.7068 124.744 29.771C125.824 29.8328 126.817 30.1549 127.72 30.7372C128.603 31.306 129.264 32.0492 129.703 32.967C130.15 33.8893 130.343 34.8814 130.284 35.9433C130.228 36.9983 129.876 38.0301 129.226 39.0387C129.203 39.0738 129.181 39.1088 129.158 39.1438C129.14 39.1718 129.12 39.2034 129.097 39.2384L127.676 38.3521C127.689 38.331 127.703 38.31 127.716 38.289C127.734 38.261 127.75 38.2365 127.764 38.2155C128.102 37.6901 128.267 37.157 128.259 36.6163C128.25 36.0755 128.112 35.5749 127.844 35.1145C127.58 34.647 127.231 34.2734 126.796 33.9935C126.075 33.5285 125.296 33.3684 124.459 33.5132C123.627 33.651 122.872 34.2452 122.195 35.2959C121.518 36.3467 121.282 37.29 121.486 38.1259C121.703 38.9593 122.168 39.6062 122.883 40.0666C123.331 40.3555 123.823 40.5236 124.357 40.5707C124.896 40.6109 125.415 40.5138 125.913 40.2796C126.411 40.0453 126.831 39.662 127.175 39.1296L128.535 40.1105C127.89 41.1122 127.088 41.8794 126.13 42.412C125.184 42.9422 124.187 43.212 123.14 43.2213C122.104 43.2282 121.135 42.9405 120.231 42.3582ZM123.83 44.3202L134.413 27.8974L137.681 30.0032L127.097 46.426L123.83 44.3202Z" fill="white"/>
</g>
<rect x="71.7744" y="61.3462" width="178" height="65" rx="32.5" fill="white"/>
<path d="M104.924 85.4087L106.674 83.5587V91.3212L105.474 90.3462H113.012V93.3462H105.474L106.674 92.2962V100.846H102.799V82.4087H114.124V85.4087H104.924ZM116.216 100.846V87.5712H120.104V92.1462L119.304 91.6462C119.396 91.0212 119.562 90.4462 119.804 89.9212C120.046 89.3962 120.358 88.942 120.741 88.5587C121.125 88.167 121.579 87.8629 122.104 87.6462C122.637 87.4295 123.246 87.3212 123.929 87.3212C124.462 87.3212 124.879 87.3629 125.179 87.4462C125.487 87.5212 125.679 87.5795 125.754 87.6212L125.116 91.0962C125.041 91.0545 124.875 90.9879 124.616 90.8962C124.358 90.8045 124.025 90.7587 123.616 90.7587C122.95 90.7587 122.391 90.8712 121.941 91.0962C121.491 91.3212 121.129 91.6212 120.854 91.9962C120.587 92.3629 120.396 92.7712 120.279 93.2212C120.162 93.6712 120.104 94.1254 120.104 94.5837V100.846H116.216ZM129.034 95.3712V92.8087H137.834L137.459 93.4587C137.459 93.392 137.459 93.3295 137.459 93.2712C137.459 93.2045 137.459 93.142 137.459 93.0837C137.459 92.6087 137.346 92.1545 137.121 91.7212C136.896 91.2795 136.546 90.9212 136.071 90.6462C135.605 90.3629 135.005 90.2212 134.271 90.2212C133.538 90.2212 132.905 90.3795 132.371 90.6962C131.846 91.0045 131.442 91.4504 131.159 92.0337C130.884 92.617 130.746 93.3212 130.746 94.1462C130.746 94.9962 130.88 95.7254 131.146 96.3337C131.421 96.9337 131.825 97.3962 132.359 97.7212C132.9 98.0462 133.571 98.2087 134.371 98.2087C134.888 98.2087 135.334 98.1629 135.709 98.0712C136.084 97.9712 136.388 97.8462 136.621 97.6962C136.863 97.5462 137.046 97.3795 137.171 97.1962C137.296 97.0129 137.371 96.8337 137.396 96.6587H141.221C141.171 97.217 140.98 97.767 140.646 98.3087C140.313 98.842 139.85 99.3254 139.259 99.7587C138.667 100.184 137.946 100.521 137.096 100.771C136.255 101.021 135.292 101.146 134.209 101.146C132.742 101.146 131.463 100.855 130.371 100.271C129.28 99.6795 128.434 98.867 127.834 97.8337C127.234 96.792 126.934 95.592 126.934 94.2337C126.934 92.8587 127.238 91.6545 127.846 90.6212C128.463 89.5795 129.317 88.7712 130.409 88.1962C131.509 87.6129 132.78 87.3212 134.221 87.3212C135.696 87.3212 136.971 87.617 138.046 88.2087C139.121 88.792 139.95 89.6129 140.534 90.6712C141.117 91.7212 141.409 92.9462 141.409 94.3462C141.409 94.5545 141.405 94.7545 141.396 94.9462C141.388 95.1379 141.375 95.2795 141.359 95.3712H129.034ZM145.393 95.3712V92.8087H154.193L153.818 93.4587C153.818 93.392 153.818 93.3295 153.818 93.2712C153.818 93.2045 153.818 93.142 153.818 93.0837C153.818 92.6087 153.705 92.1545 153.48 91.7212C153.255 91.2795 152.905 90.9212 152.43 90.6462C151.964 90.3629 151.364 90.2212 150.63 90.2212C149.897 90.2212 149.264 90.3795 148.73 90.6962C148.205 91.0045 147.801 91.4504 147.518 92.0337C147.243 92.617 147.105 93.3212 147.105 94.1462C147.105 94.9962 147.239 95.7254 147.505 96.3337C147.78 96.9337 148.185 97.3962 148.718 97.7212C149.26 98.0462 149.93 98.2087 150.73 98.2087C151.247 98.2087 151.693 98.1629 152.068 98.0712C152.443 97.9712 152.747 97.8462 152.98 97.6962C153.222 97.5462 153.405 97.3795 153.53 97.1962C153.655 97.0129 153.73 96.8337 153.755 96.6587H157.58C157.53 97.217 157.339 97.767 157.005 98.3087C156.672 98.842 156.21 99.3254 155.618 99.7587C155.026 100.184 154.305 100.521 153.455 100.771C152.614 101.021 151.651 101.146 150.568 101.146C149.101 101.146 147.822 100.855 146.73 100.271C145.639 99.6795 144.793 98.867 144.193 97.8337C143.593 96.792 143.293 95.592 143.293 94.2337C143.293 92.8587 143.597 91.6545 144.205 90.6212C144.822 89.5795 145.676 88.7712 146.768 88.1962C147.868 87.6129 149.139 87.3212 150.58 87.3212C152.055 87.3212 153.33 87.617 154.405 88.2087C155.48 88.792 156.31 89.6129 156.893 90.6712C157.476 91.7212 157.768 92.9462 157.768 94.3462C157.768 94.5545 157.764 94.7545 157.755 94.9462C157.747 95.1379 157.735 95.2795 157.718 95.3712H145.393ZM178.84 85.4087H172.752L174.302 83.5587V100.846H170.44V83.5587L172.04 85.4087H165.915V82.4087H178.84V85.4087ZM179.775 100.846V87.5712H183.662V92.1462L182.862 91.6462C182.954 91.0212 183.121 90.4462 183.362 89.9212C183.604 89.3962 183.917 88.942 184.3 88.5587C184.683 88.167 185.137 87.8629 185.662 87.6462C186.196 87.4295 186.804 87.3212 187.487 87.3212C188.021 87.3212 188.437 87.3629 188.737 87.4462C189.046 87.5212 189.237 87.5795 189.312 87.6212L188.675 91.0962C188.6 91.0545 188.433 90.9879 188.175 90.8962C187.917 90.8045 187.583 90.7587 187.175 90.7587C186.508 90.7587 185.95 90.8712 185.5 91.0962C185.05 91.3212 184.687 91.6212 184.412 91.9962C184.146 92.3629 183.954 92.7712 183.837 93.2212C183.721 93.6712 183.662 94.1254 183.662 94.5837V100.846H179.775ZM191.199 100.846V87.5712H195.037V100.846H191.199ZM193.112 85.4087C192.512 85.4087 191.987 85.2504 191.537 84.9337C191.095 84.617 190.874 84.1712 190.874 83.5962C190.874 83.0129 191.095 82.5629 191.537 82.2462C191.987 81.9295 192.512 81.7712 193.112 81.7712C193.72 81.7712 194.245 81.9295 194.687 82.2462C195.137 82.5629 195.362 83.0129 195.362 83.5962C195.362 84.1795 195.137 84.6295 194.687 84.9462C194.245 85.2545 193.72 85.4087 193.112 85.4087ZM202.467 101.121C201.5 101.121 200.638 100.967 199.879 100.659C199.129 100.35 198.542 99.9045 198.117 99.3212C197.692 98.7379 197.479 98.0295 197.479 97.1962C197.479 96.2545 197.738 95.4879 198.254 94.8962C198.771 94.3045 199.454 93.8545 200.304 93.5462C201.163 93.2295 202.092 93.0212 203.092 92.9212C204.55 92.7795 205.554 92.6504 206.104 92.5337C206.663 92.417 206.942 92.2129 206.942 91.9212C206.942 91.9129 206.942 91.9045 206.942 91.8962C206.942 91.4045 206.704 91.017 206.229 90.7337C205.763 90.4504 205.109 90.3087 204.267 90.3087C203.375 90.3087 202.692 90.4712 202.217 90.7962C201.75 91.1129 201.517 91.6004 201.517 92.2587H197.704C197.704 91.192 197.992 90.292 198.567 89.5587C199.15 88.8254 199.938 88.2712 200.929 87.8962C201.921 87.5129 203.042 87.3212 204.292 87.3212C205.459 87.3212 206.538 87.5004 207.529 87.8587C208.521 88.2087 209.317 88.7379 209.917 89.4462C210.525 90.1545 210.829 91.0545 210.829 92.1462C210.829 92.3212 210.829 92.4962 210.829 92.6712C210.829 92.8379 210.829 93.0087 210.829 93.1837V97.8837C210.829 98.2254 210.838 98.5545 210.854 98.8712C210.879 99.1795 210.929 99.4629 211.004 99.7212C211.088 100.013 211.192 100.255 211.317 100.446C211.442 100.638 211.546 100.771 211.629 100.846H207.817C207.759 100.788 207.667 100.667 207.542 100.484C207.425 100.3 207.325 100.088 207.242 99.8462C207.142 99.5545 207.067 99.2629 207.017 98.9712C206.975 98.6712 206.954 98.3212 206.954 97.9212L207.754 98.4712C207.521 99.0212 207.142 99.4962 206.617 99.8962C206.1 100.288 205.484 100.592 204.767 100.809C204.059 101.017 203.292 101.121 202.467 101.121ZM203.504 98.2212C204.113 98.2212 204.679 98.1129 205.204 97.8962C205.738 97.6712 206.171 97.3212 206.504 96.8462C206.838 96.3712 207.004 95.7504 207.004 94.9837V93.6462L207.967 94.5837C207.417 94.7837 206.779 94.9504 206.054 95.0837C205.338 95.2087 204.621 95.3087 203.904 95.3837C203.054 95.467 202.417 95.6129 201.992 95.8212C201.575 96.0212 201.367 96.3629 201.367 96.8462C201.367 97.3045 201.546 97.6504 201.904 97.8837C202.263 98.1087 202.796 98.2212 203.504 98.2212ZM217.753 81.3087V100.846H213.928V81.3087H217.753Z" fill="black"/>
<rect x="71.7744" y="61.3462" width="178" height="65" rx="32.5" stroke="black"/>
<defs>
<filter id="filter0_d_183_381" x="0.576172" y="0.655762" width="152.529" height="183.462" filterUnits="userSpaceOnUse" color-interpolation-filters="sRGB">
<feFlood flood-opacity="0" result="BackgroundImageFix"/>
<feColorMatrix in="SourceAlpha" type="matrix" values="0 0 0 0 0 0 0 0 0 0 0 0 0 0 0 0 0 0 127 0" result="hardAlpha"/>
<feOffset/>
<feGaussianBlur stdDeviation="7.5"/>
<feComposite in2="hardAlpha" operator="out"/>
<feColorMatrix type="matrix" values="0 0 0 0 0 0 0 0 0 0 0 0 0 0 0 0 0 0 0.25 0"/>
<feBlend mode="normal" in2="BackgroundImageFix" result="effect1_dropShadow_183_381"/>
<feBlend mode="normal" in="SourceGraphic" in2="effect1_dropShadow_183_381" result="shape"/>
</filter>
</defs>
</svg>
