<svg width="242" height="161" viewBox="0 0 242 161" fill="none" xmlns="http://www.w3.org/2000/svg">
<path d="M113.033 129.64C114.148 128.908 115.247 128.441 116.33 128.239C117.407 128.041 118.416 128.137 119.358 128.525C120.298 128.925 121.114 129.651 121.804 130.703C121.877 130.815 121.943 130.916 122.003 131.006C122.067 131.104 122.135 131.208 122.208 131.32L118.958 133.452C118.889 133.348 118.828 133.254 118.773 133.17C118.722 133.093 118.663 133.003 118.594 132.898C118.124 132.181 117.56 131.763 116.905 131.645C116.249 131.526 115.524 131.728 114.73 132.249C113.929 132.775 113.394 133.305 113.127 133.839C112.864 134.38 112.925 134.943 113.309 135.529C113.578 135.94 113.98 136.195 114.513 136.293C115.039 136.397 115.661 136.387 116.378 136.266C117.093 136.155 117.877 135.975 118.729 135.725C119.663 135.461 120.591 135.311 121.513 135.274C122.436 135.237 123.3 135.393 124.107 135.741C124.906 136.093 125.6 136.719 126.19 137.618C126.784 138.524 127.049 139.451 126.984 140.401C126.924 141.357 126.589 142.275 125.979 143.153C125.374 144.038 124.549 144.824 123.503 145.509C122.41 146.227 121.332 146.689 120.272 146.897C119.21 147.115 118.22 147.042 117.303 146.677C116.383 146.323 115.594 145.645 114.936 144.641C114.863 144.53 114.794 144.425 114.73 144.328C114.671 144.237 114.602 144.133 114.525 144.014L117.765 141.889C117.815 141.966 117.868 142.046 117.923 142.129C117.977 142.213 118.03 142.293 118.08 142.37C118.524 143.046 119.052 143.441 119.666 143.557C120.273 143.677 120.974 143.476 121.768 142.955C122.535 142.453 123.039 141.922 123.281 141.365C123.516 140.812 123.444 140.246 123.065 139.668C122.791 139.25 122.408 138.993 121.916 138.897C121.418 138.805 120.828 138.818 120.148 138.935C119.467 139.053 118.714 139.218 117.887 139.432C116.757 139.715 115.723 139.885 114.784 139.943C113.843 140.012 112.992 139.877 112.232 139.539C111.476 139.207 110.803 138.592 110.214 137.693C109.61 136.773 109.333 135.834 109.382 134.875C109.431 133.916 109.771 132.985 110.405 132.082C111.035 131.189 111.911 130.375 113.033 129.64Z" fill="black"/>
<path d="M94.2578 137.875C94.7485 137.742 95.2673 137.65 95.8141 137.597C96.3507 137.538 96.878 137.573 97.3959 137.7C97.9079 137.838 98.367 138.115 98.7731 138.532C99.1793 138.949 99.4911 139.56 99.7085 140.364C99.7563 140.541 99.8052 140.722 99.8552 140.907C99.9052 141.092 99.9553 141.277 100.005 141.462L101.463 146.856L104.419 146.057L105.202 148.953L104.37 149.178C103.887 149.309 103.51 149.432 103.239 149.548C102.961 149.667 102.775 149.825 102.681 150.023C102.582 150.231 102.56 150.518 102.616 150.882C102.671 151.247 102.783 151.739 102.95 152.359L103.387 153.976L99.6343 154.99L98.4929 150.767L94.7641 151.774L93.9814 148.878L97.7102 147.87L96.4644 143.261C96.4252 143.116 96.3872 142.975 96.3502 142.838C96.3133 142.702 96.2774 142.569 96.2426 142.44C96.0926 141.885 95.9065 141.452 95.6843 141.141C95.454 140.832 95.0734 140.749 94.5425 140.893C94.277 140.964 94.0341 141.056 93.8139 141.167C93.5856 141.281 93.4176 141.378 93.31 141.459L92.5501 138.647C92.6995 138.529 92.9194 138.401 93.2099 138.262C93.4982 138.115 93.8475 137.986 94.2578 137.875Z" fill="black"/>
<path d="M79.067 139.557C80.0323 139.608 80.8855 139.807 81.6266 140.155C82.3593 140.502 82.9225 140.979 83.3162 141.583C83.7099 142.188 83.8848 142.907 83.841 143.739C83.7914 144.679 83.4931 145.431 82.946 145.995C82.3989 146.559 81.6928 146.972 80.8278 147.235C79.9539 147.506 79.0151 147.665 78.0112 147.713C76.5475 147.777 75.5379 147.854 74.9825 147.941C74.4188 148.028 74.1293 148.217 74.1139 148.509C74.1135 148.517 74.113 148.525 74.1126 148.534C74.0867 149.025 74.3035 149.424 74.7629 149.732C75.214 150.04 75.8598 150.215 76.7003 150.26C77.5908 150.307 78.2817 150.18 78.7732 149.881C79.2558 149.589 79.5145 149.115 79.5492 148.457L83.3564 148.658C83.3002 149.723 82.9658 150.607 82.353 151.309C81.7318 152.01 80.9162 152.522 79.9062 152.845C78.8957 153.175 77.7664 153.308 76.5181 153.242C75.3531 153.18 74.2848 152.945 73.3134 152.535C72.3415 152.133 71.5746 151.563 71.0128 150.824C70.4426 150.084 70.1862 149.169 70.2437 148.079C70.2529 147.905 70.2621 147.73 70.2713 147.555C70.2801 147.389 70.2891 147.218 70.2983 147.043L70.5457 142.35C70.5637 142.009 70.5727 141.679 70.5727 141.362C70.564 141.053 70.5289 140.768 70.4676 140.506C70.3998 140.21 70.3085 139.963 70.1937 139.765C70.079 139.567 69.982 139.429 69.9027 139.349L73.7099 139.55C73.7651 139.611 73.8503 139.737 73.9655 139.926C74.0723 140.116 74.161 140.333 74.2315 140.579C74.316 140.875 74.3756 141.171 74.4101 141.464C74.436 141.766 74.4383 142.117 74.4173 142.516L73.6473 141.925C73.9093 141.388 74.3129 140.934 74.8583 140.562C75.3948 140.198 76.0267 139.927 76.7537 139.748C77.4721 139.577 78.2431 139.514 79.067 139.557ZM77.8783 142.398C77.2708 142.366 76.6992 142.445 76.1635 142.633C75.6191 142.83 75.1679 143.157 74.8101 143.614C74.4522 144.07 74.2531 144.682 74.2127 145.447L74.1423 146.783L73.2305 145.796C73.7903 145.625 74.4357 145.492 75.1667 145.397C75.8889 145.31 76.6099 145.248 77.3295 145.211C78.1827 145.172 78.827 145.06 79.2624 144.875C79.689 144.697 79.915 144.367 79.9404 143.884C79.9646 143.426 79.8039 143.071 79.4583 142.82C79.1123 142.576 78.5856 142.436 77.8783 142.398Z" fill="black"/>
<path d="M64.4186 131.943C64.8047 132.1 65.1459 132.256 65.4423 132.413C65.734 132.558 65.9122 132.662 65.9769 132.724L64.8723 135.446C64.7907 135.359 64.6311 135.254 64.3934 135.13C64.1511 134.996 63.8871 134.871 63.6014 134.755C63.2231 134.601 62.852 134.541 62.4881 134.573C62.1197 134.594 61.771 134.7 61.442 134.89C61.1084 135.07 60.8046 135.32 60.5306 135.64L60.0683 136.181L59.2498 150.364L55.5087 148.846L56.9272 137.672L57.3442 137.841L50.6788 146.886L46.9839 145.386L56.4526 134.187C57.164 133.343 57.894 132.663 58.6424 132.149C59.3909 131.634 60.228 131.344 61.1537 131.279C62.0794 131.214 63.1677 131.436 64.4186 131.943Z" fill="black"/>
<path d="M22.3542 113.722C22.9952 113.244 23.7385 112.881 24.5841 112.635C25.4246 112.382 26.3065 112.295 27.2296 112.375C28.1478 112.449 29.0622 112.734 29.9728 113.229C30.8717 113.722 31.7051 114.483 32.4729 115.512C33.4949 116.881 34.0436 118.291 34.1188 119.743C34.1873 121.2 33.8393 122.614 33.0747 123.986C32.3051 125.351 31.1757 126.589 29.6867 127.701C28.1976 128.813 26.6927 129.541 25.172 129.886C23.6462 130.224 22.198 130.151 20.8274 129.667C19.4568 129.182 18.2604 128.255 17.2384 126.886C16.3858 125.745 15.8674 124.619 15.6832 123.508C15.4939 122.391 15.5503 121.345 15.8524 120.371C16.1495 119.39 16.6005 118.538 17.2054 117.816C17.573 117.375 17.9638 117.001 18.3778 116.691L20.7036 119.806C20.5033 119.956 20.3221 120.117 20.1601 120.29C19.7225 120.721 19.4031 121.199 19.202 121.723C19.0009 122.248 18.9397 122.793 19.0185 123.358C19.0856 123.921 19.3236 124.477 19.7324 125.024C20.211 125.665 20.8209 126.099 21.5621 126.326C22.3033 126.552 23.1583 126.528 24.1273 126.251C25.0962 125.975 26.1616 125.403 27.3235 124.536C28.492 123.663 29.3497 122.799 29.8965 121.944C30.4367 121.093 30.7068 120.278 30.7068 119.498C30.7001 118.723 30.4575 118.015 29.9789 117.374C29.6349 116.913 29.2473 116.568 28.8161 116.339C28.3799 116.103 27.9252 115.974 27.4519 115.953C26.9737 115.926 26.4968 115.991 26.0215 116.148C25.5412 116.298 25.094 116.528 24.68 116.837L22.3542 113.722Z" fill="black"/>
<path d="M23.0587 96.5621C23.4493 97.9411 23.5087 99.2365 23.237 100.448C22.9652 101.66 22.4163 102.703 21.5901 103.578C20.7537 104.447 19.682 105.067 18.3751 105.437C17.0762 105.805 15.8467 105.837 14.6867 105.533C13.5164 105.224 12.5059 104.622 11.6551 103.729C10.7964 102.837 10.1717 101.702 9.78105 100.323C9.39042 98.9439 9.32697 97.6497 9.59071 96.4404C9.84643 95.2334 10.3925 94.1952 11.229 93.326C12.0551 92.4511 13.1176 91.8297 14.4165 91.4618C15.7235 91.0916 16.9621 91.0612 18.1324 91.3706C19.2924 91.6743 20.3058 92.2707 21.1726 93.1598C22.0393 94.0489 22.668 95.183 23.0587 96.5621ZM20.1001 97.4001C19.9161 96.7506 19.6037 96.2285 19.1627 95.8338C18.7218 95.439 18.1872 95.1877 17.559 95.0798C16.9228 94.9742 16.2319 95.027 15.4862 95.2382C14.7406 95.4494 14.1326 95.7645 13.6623 96.1835C13.184 96.6048 12.8647 97.098 12.7043 97.6631C12.5439 98.2282 12.5557 98.8355 12.7397 99.485C12.9213 100.126 13.2298 100.65 13.665 101.055C14.0979 101.452 14.6285 101.704 15.2566 101.812C15.8768 101.922 16.5597 101.872 17.3054 101.661C18.051 101.449 18.667 101.132 19.1533 100.708C19.6316 100.287 19.955 99.7927 20.1234 99.2253C20.2895 98.6499 20.2818 98.0415 20.1001 97.4001Z" fill="black"/>
<path d="M20.815 72.8179L15.1961 72.3607C14.8805 72.335 14.5939 72.3117 14.3364 72.2908C14.0789 72.2698 13.8464 72.2509 13.6387 72.234C13.0905 72.1894 12.5864 72.2194 12.1264 72.3241C11.6581 72.4282 11.2721 72.6518 10.9682 72.9949C10.6644 73.3381 10.4844 73.8544 10.4283 74.5438C10.3797 75.1418 10.4745 75.672 10.7128 76.1346C10.9517 76.5888 11.3068 76.9521 11.7779 77.2245C12.249 77.497 12.8044 77.6592 13.4439 77.7112L12.5843 78.7198C11.4381 78.6266 10.4533 78.2956 9.63007 77.727C8.80681 77.1584 8.18462 76.4305 7.7635 75.5434C7.34306 74.6481 7.17508 73.6813 7.25955 72.643C7.34808 71.5549 7.64083 70.68 8.13781 70.0181C8.62716 69.3472 9.27606 68.8733 10.0845 68.5963C10.8854 68.3103 11.8049 68.2095 12.8431 68.294C13.2667 68.3285 13.7402 68.367 14.2634 68.4096C14.7867 68.4521 15.3224 68.4957 15.8706 68.5403L21.1282 68.9681L20.815 72.8179ZM20.0568 82.1371L6.82551 81.0605L7.13975 77.1983L20.371 78.2748L20.0568 82.1371Z" fill="black"/>
<path d="M27.0829 52.5028L21.9786 50.1097C21.6918 49.9753 21.4315 49.8533 21.1976 49.7436C20.9637 49.634 20.7524 49.5349 20.5638 49.4465C20.0658 49.213 19.583 49.0649 19.1155 49.0022C18.6403 48.9359 18.2004 49.0104 17.7958 49.2256C17.3912 49.4409 17.042 49.8616 16.7484 50.4879C16.4938 51.0312 16.3972 51.5611 16.4587 52.0777C16.5237 52.5868 16.7293 53.0514 17.0754 53.4713C17.4216 53.8913 17.8851 54.2375 18.4661 54.5099L17.3081 55.1542C16.2668 54.6661 15.46 54.0117 14.8875 53.1911C14.315 52.3705 13.9866 51.471 13.9023 50.4927C13.8214 49.5068 14.0021 48.5423 14.4443 47.5992C14.9077 46.6107 15.4879 45.8933 16.1849 45.447C16.878 44.9896 17.6516 44.7725 18.5059 44.7956C19.3562 44.8077 20.2529 45.0348 21.1961 45.477C21.5809 45.6574 22.011 45.859 22.4863 46.0819C22.9617 46.3047 23.4484 46.5329 23.9463 46.7664L28.7225 49.0055L27.0829 52.5028ZM23.114 60.9686L11.0944 55.3336L12.7392 51.825L24.7589 57.46L23.114 60.9686Z" fill="black"/>
<path d="M30.611 37.2537L28.8176 35.4233L35.1033 29.2646L35.2904 29.9913C35.2437 29.9437 35.2 29.899 35.1591 29.8574C35.1125 29.8098 35.0687 29.7651 35.0279 29.7234C34.6955 29.3842 34.2973 29.1385 33.8333 28.9864C33.3635 28.8284 32.8627 28.8174 32.3309 28.9534C31.7993 29.0776 31.2716 29.3964 30.7478 29.9096C30.224 30.4228 29.8824 30.9792 29.7231 31.5786C29.5639 32.1663 29.5872 32.7676 29.7931 33.3825C30.0049 33.9917 30.3995 34.5909 30.9769 35.1802C31.5718 35.7873 32.1773 36.2148 32.7935 36.4627C33.4099 36.6988 34.0223 36.7463 34.6307 36.6052C35.245 36.4583 35.8379 36.1048 36.4093 35.545C36.7784 35.1834 37.0648 34.8386 37.2685 34.5107C37.4663 34.1768 37.5961 33.8746 37.6578 33.6042C37.7254 33.3279 37.7397 33.0806 37.7007 32.8621C37.6617 32.6437 37.5899 32.4632 37.4853 32.3207L40.2174 29.6438C40.5724 30.0776 40.8205 30.6046 40.9614 31.2248C41.0966 31.839 41.1045 32.5079 40.9852 33.2315C40.86 33.9492 40.5813 34.6947 40.1491 35.4682C39.7229 36.2358 39.1229 36.9987 38.3491 37.7569C37.3015 38.7833 36.1837 39.4702 34.9957 39.8176C33.8018 40.159 32.629 40.1706 31.4773 39.8524C30.3197 39.5283 29.2656 38.8811 28.3149 37.9109C27.3526 36.9287 26.7271 35.8557 26.4385 34.6919C26.1499 33.5163 26.1943 32.3411 26.5717 31.1664C26.9491 29.9799 27.6527 28.8821 28.6825 27.8732C29.7361 26.8409 30.8538 26.1599 32.0358 25.8301C33.2119 25.4945 34.3786 25.5005 35.5359 25.8482C36.6874 26.1899 37.7531 26.8608 38.7329 27.8608C38.8787 28.0096 39.0157 28.1554 39.1439 28.2981C39.2721 28.4408 39.3623 28.5508 39.4145 28.6279L30.611 37.2537Z" fill="black"/>
<path d="M55.8085 25.7691C54.4806 26.3719 53.1953 26.635 51.9525 26.5585C50.7063 26.4744 49.5893 26.08 48.6013 25.3753C47.621 24.6672 46.8466 23.6871 46.2783 22.4351C45.7031 21.1679 45.4786 19.9474 45.6047 18.7736C45.735 17.5888 46.1838 16.5111 46.9512 15.5404C47.7186 14.5698 48.7663 13.7831 50.0943 13.1803C51.0883 12.7291 52.0357 12.4775 52.9364 12.4255C53.8337 12.366 54.6489 12.4582 55.3819 12.702C56.1149 12.9458 56.7433 13.292 57.2672 13.7406C57.7912 14.1891 58.1806 14.6942 58.4354 15.2557C58.4389 15.2633 58.4458 15.2785 58.4561 15.3012C58.463 15.3164 58.4699 15.3316 58.4768 15.3468L54.9824 16.9329C54.9618 16.8874 54.939 16.8474 54.9142 16.8129C54.8935 16.7674 54.8653 16.7253 54.8294 16.6866C54.6241 16.3955 54.3552 16.156 54.0229 15.9683C53.6906 15.7805 53.2989 15.6837 52.8478 15.678C52.4009 15.6612 51.9043 15.7768 51.358 16.0248C50.7737 16.29 50.3087 16.6567 49.9629 17.1248C49.6247 17.5895 49.4382 18.1363 49.4034 18.7652C49.3651 19.3866 49.5148 20.0691 49.8523 20.8128C50.183 21.5412 50.6017 22.1108 51.1084 22.5214C51.6116 22.9244 52.1546 23.163 52.7374 23.2371C53.3277 23.3077 53.915 23.2104 54.4993 22.9452C55.0987 22.6731 55.5469 22.3599 55.8436 22.0056C56.1369 21.6436 56.3078 21.2641 56.3563 20.8668C56.4013 20.462 56.3567 20.0613 56.2224 19.6647L59.7168 18.0785C59.9717 18.64 60.0989 19.2732 60.0985 19.9781C60.1023 20.6719 59.9547 21.3749 59.6557 22.0872C59.3643 22.796 58.9026 23.4724 58.2705 24.1162C57.6384 24.76 56.8178 25.311 55.8085 25.7691Z" fill="black"/>
<path d="M75.24 20.696C74.7348 20.7515 74.2079 20.7633 73.6594 20.7314C73.1202 20.7068 72.6045 20.5917 72.1124 20.3859C71.6277 20.1709 71.2167 19.8262 70.8796 19.3519C70.5424 18.8776 70.3283 18.2262 70.2372 17.3979C70.2172 17.2157 70.1967 17.0293 70.1757 16.8388C70.1548 16.6482 70.1338 16.4577 70.1129 16.2672L69.5023 10.7132L66.4582 11.0478L66.1303 8.06577L66.9877 7.97152C67.4847 7.91689 67.8759 7.85292 68.1612 7.77964C68.4549 7.70544 68.663 7.57776 68.7856 7.39661C68.9156 7.20627 68.9813 6.92659 68.9826 6.55756C68.984 6.18854 68.9496 5.68511 68.8795 5.04729L68.6964 3.38232L72.5607 2.95752L73.0387 7.30632L76.8781 6.88425L77.2059 9.86629L73.3666 10.2884L73.8883 15.0348C73.9047 15.1839 73.9207 15.3288 73.9361 15.4696C73.9516 15.6105 73.9666 15.7471 73.9812 15.8797C74.044 16.4512 74.1613 16.9078 74.333 17.2494C74.513 17.5901 74.8763 17.7304 75.423 17.6703C75.6964 17.6403 75.9504 17.5872 76.1852 17.5111C76.4282 17.4341 76.6091 17.3639 76.7279 17.3005L77.0462 20.1956C76.8804 20.2893 76.6434 20.3824 76.335 20.475C76.0275 20.5759 75.6625 20.6495 75.24 20.696Z" fill="black"/>
<path d="M88.7816 15.0886L89.3289 12.5853L97.9258 14.4648L97.4207 15.0197C97.4349 14.9546 97.4482 14.8935 97.4607 14.8365C97.4749 14.7714 97.4883 14.7104 97.5008 14.6534C97.6022 14.1893 97.5893 13.7216 97.4621 13.2502C97.3366 12.7707 97.0712 12.3459 96.6659 11.9758C96.2705 11.5993 95.7146 11.3328 94.9982 11.1761C94.2818 11.0195 93.6292 11.0389 93.0406 11.2344C92.4618 11.4234 91.9718 11.7727 91.5704 12.282C91.1771 12.7932 90.8924 13.4517 90.7162 14.2577C90.5347 15.0881 90.5092 15.8289 90.6398 16.4801C90.7803 17.125 91.0763 17.6632 91.5279 18.0946C91.9877 18.5278 92.6083 18.8298 93.3899 19.0007C93.8946 19.111 94.34 19.1615 94.7259 19.152C95.1136 19.1344 95.4374 19.0773 95.6974 18.9806C95.9656 18.8856 96.1803 18.762 96.3415 18.6096C96.5028 18.4572 96.6143 18.2982 96.6761 18.1325L100.413 18.9495C100.245 19.4843 99.9401 19.9806 99.4987 20.4386C99.0592 20.8884 98.5041 21.2618 97.8335 21.5588C97.1648 21.8476 96.3885 22.0234 95.5047 22.0861C94.629 22.1505 93.6621 22.0671 92.6037 21.8357C91.1709 21.5224 89.9835 20.9643 89.0417 20.1612C88.1016 19.3501 87.4488 18.3757 87.0833 17.238C86.7197 16.0922 86.6829 14.8559 86.973 13.5289C87.2667 12.1856 87.821 11.0742 88.636 10.1946C89.4609 9.3087 90.468 8.70145 91.6573 8.37288C92.8565 8.03795 94.1603 8.02445 95.5687 8.33236C97.0097 8.6474 98.1921 9.20873 99.1159 10.0163C100.042 10.8158 100.676 11.7948 101.02 12.9533C101.366 14.1037 101.389 15.3627 101.09 16.7304C101.045 16.9339 100.999 17.1284 100.95 17.3139C100.901 17.4993 100.858 17.6351 100.822 17.7211L88.7816 15.0886Z" fill="black"/>
<path d="M111.231 29.2378C110.3 28.6374 109.584 27.8638 109.084 26.9169C108.588 25.963 108.384 24.8948 108.472 23.7122C108.56 22.5297 109.017 21.2975 109.843 20.0156C110.633 18.7897 111.545 17.9053 112.579 17.3621C113.62 16.8235 114.675 16.5864 115.744 16.6507C116.824 16.7125 117.817 17.0345 118.72 17.6168C119.603 18.1856 120.264 18.9289 120.703 19.8467C121.15 20.7689 121.343 21.7611 121.284 22.823C121.228 23.8779 120.876 24.9097 120.226 25.9184C120.203 25.9534 120.181 25.9884 120.158 26.0235C120.14 26.0515 120.12 26.083 120.097 26.118L118.676 25.2317C118.689 25.2107 118.703 25.1897 118.716 25.1687C118.734 25.1406 118.75 25.1161 118.764 25.0951C119.102 24.5697 119.267 24.0367 119.259 23.4959C119.25 22.9551 119.112 22.4545 118.844 21.9941C118.58 21.5267 118.231 21.153 117.796 20.8731C117.075 20.4082 116.296 20.2481 115.459 20.3928C114.627 20.5306 113.872 21.1249 113.195 22.1756C112.518 23.2263 112.282 24.1696 112.486 25.0055C112.703 25.8389 113.168 26.4858 113.883 26.9463C114.331 27.2352 114.823 27.4032 115.357 27.4504C115.896 27.4905 116.415 27.3935 116.913 27.1592C117.411 26.9249 117.831 26.5416 118.175 26.0092L119.535 26.9901C118.89 27.9918 118.088 28.759 117.13 29.2917C116.184 29.8219 115.187 30.0916 114.14 30.101C113.104 30.1078 112.135 29.8201 111.231 29.2378ZM114.83 31.1998L125.413 14.777L128.681 16.8829L118.097 33.3056L114.83 31.1998Z" fill="black"/>
<rect x="62.2744" y="47.7258" width="179" height="66" rx="33" fill="black"/>
<path d="M95.9244 72.2883L97.6744 70.4383V78.2008L96.4744 77.2258H104.012V80.2258H96.4744L97.6744 79.1758V87.7258H93.7994V69.2883H105.124V72.2883H95.9244ZM107.216 87.7258V74.4508H111.104V79.0258L110.304 78.5258C110.396 77.9008 110.562 77.3258 110.804 76.8008C111.046 76.2758 111.358 75.8217 111.741 75.4383C112.125 75.0467 112.579 74.7425 113.104 74.5258C113.637 74.3092 114.246 74.2008 114.929 74.2008C115.462 74.2008 115.879 74.2425 116.179 74.3258C116.487 74.4008 116.679 74.4592 116.754 74.5008L116.116 77.9758C116.041 77.9342 115.875 77.8675 115.616 77.7758C115.358 77.6842 115.025 77.6383 114.616 77.6383C113.95 77.6383 113.391 77.7508 112.941 77.9758C112.491 78.2008 112.129 78.5008 111.854 78.8758C111.587 79.2425 111.396 79.6508 111.279 80.1008C111.162 80.5508 111.104 81.005 111.104 81.4633V87.7258H107.216ZM120.034 82.2508V79.6883H128.834L128.459 80.3383C128.459 80.2717 128.459 80.2092 128.459 80.1508C128.459 80.0842 128.459 80.0217 128.459 79.9633C128.459 79.4883 128.346 79.0342 128.121 78.6008C127.896 78.1592 127.546 77.8008 127.071 77.5258C126.605 77.2425 126.005 77.1008 125.271 77.1008C124.538 77.1008 123.905 77.2592 123.371 77.5758C122.846 77.8842 122.442 78.33 122.159 78.9133C121.884 79.4967 121.746 80.2008 121.746 81.0258C121.746 81.8758 121.88 82.605 122.146 83.2133C122.421 83.8133 122.825 84.2758 123.359 84.6008C123.9 84.9258 124.571 85.0883 125.371 85.0883C125.888 85.0883 126.334 85.0425 126.709 84.9508C127.084 84.8508 127.388 84.7258 127.621 84.5758C127.863 84.4258 128.046 84.2592 128.171 84.0758C128.296 83.8925 128.371 83.7133 128.396 83.5383H132.221C132.171 84.0967 131.98 84.6467 131.646 85.1883C131.313 85.7217 130.85 86.205 130.259 86.6383C129.667 87.0633 128.946 87.4008 128.096 87.6508C127.255 87.9008 126.292 88.0258 125.209 88.0258C123.742 88.0258 122.463 87.7342 121.371 87.1508C120.28 86.5592 119.434 85.7467 118.834 84.7133C118.234 83.6717 117.934 82.4717 117.934 81.1133C117.934 79.7383 118.238 78.5342 118.846 77.5008C119.463 76.4592 120.317 75.6508 121.409 75.0758C122.509 74.4925 123.78 74.2008 125.221 74.2008C126.696 74.2008 127.971 74.4967 129.046 75.0883C130.121 75.6717 130.95 76.4925 131.534 77.5508C132.117 78.6008 132.409 79.8258 132.409 81.2258C132.409 81.4342 132.405 81.6342 132.396 81.8258C132.388 82.0175 132.375 82.1592 132.359 82.2508H120.034ZM136.393 82.2508V79.6883H145.193L144.818 80.3383C144.818 80.2717 144.818 80.2092 144.818 80.1508C144.818 80.0842 144.818 80.0217 144.818 79.9633C144.818 79.4883 144.705 79.0342 144.48 78.6008C144.255 78.1592 143.905 77.8008 143.43 77.5258C142.964 77.2425 142.364 77.1008 141.63 77.1008C140.897 77.1008 140.264 77.2592 139.73 77.5758C139.205 77.8842 138.801 78.33 138.518 78.9133C138.243 79.4967 138.105 80.2008 138.105 81.0258C138.105 81.8758 138.239 82.605 138.505 83.2133C138.78 83.8133 139.185 84.2758 139.718 84.6008C140.26 84.9258 140.93 85.0883 141.73 85.0883C142.247 85.0883 142.693 85.0425 143.068 84.9508C143.443 84.8508 143.747 84.7258 143.98 84.5758C144.222 84.4258 144.405 84.2592 144.53 84.0758C144.655 83.8925 144.73 83.7133 144.755 83.5383H148.58C148.53 84.0967 148.339 84.6467 148.005 85.1883C147.672 85.7217 147.21 86.205 146.618 86.6383C146.026 87.0633 145.305 87.4008 144.455 87.6508C143.614 87.9008 142.651 88.0258 141.568 88.0258C140.101 88.0258 138.822 87.7342 137.73 87.1508C136.639 86.5592 135.793 85.7467 135.193 84.7133C134.593 83.6717 134.293 82.4717 134.293 81.1133C134.293 79.7383 134.597 78.5342 135.205 77.5008C135.822 76.4592 136.676 75.6508 137.768 75.0758C138.868 74.4925 140.139 74.2008 141.58 74.2008C143.055 74.2008 144.33 74.4967 145.405 75.0883C146.48 75.6717 147.31 76.4925 147.893 77.5508C148.476 78.6008 148.768 79.8258 148.768 81.2258C148.768 81.4342 148.764 81.6342 148.755 81.8258C148.747 82.0175 148.735 82.1592 148.718 82.2508H136.393ZM169.84 72.2883H163.752L165.302 70.4383V87.7258H161.44V70.4383L163.04 72.2883H156.915V69.2883H169.84V72.2883ZM170.775 87.7258V74.4508H174.662V79.0258L173.862 78.5258C173.954 77.9008 174.121 77.3258 174.362 76.8008C174.604 76.2758 174.917 75.8217 175.3 75.4383C175.683 75.0467 176.137 74.7425 176.662 74.5258C177.196 74.3092 177.804 74.2008 178.487 74.2008C179.021 74.2008 179.437 74.2425 179.737 74.3258C180.046 74.4008 180.237 74.4592 180.312 74.5008L179.675 77.9758C179.6 77.9342 179.433 77.8675 179.175 77.7758C178.917 77.6842 178.583 77.6383 178.175 77.6383C177.508 77.6383 176.95 77.7508 176.5 77.9758C176.05 78.2008 175.687 78.5008 175.412 78.8758C175.146 79.2425 174.954 79.6508 174.837 80.1008C174.721 80.5508 174.662 81.005 174.662 81.4633V87.7258H170.775ZM182.199 87.7258V74.4508H186.037V87.7258H182.199ZM184.112 72.2883C183.512 72.2883 182.987 72.13 182.537 71.8133C182.095 71.4967 181.874 71.0508 181.874 70.4758C181.874 69.8925 182.095 69.4425 182.537 69.1258C182.987 68.8092 183.512 68.6508 184.112 68.6508C184.72 68.6508 185.245 68.8092 185.687 69.1258C186.137 69.4425 186.362 69.8925 186.362 70.4758C186.362 71.0592 186.137 71.5092 185.687 71.8258C185.245 72.1342 184.72 72.2883 184.112 72.2883ZM193.467 88.0008C192.5 88.0008 191.638 87.8467 190.879 87.5383C190.129 87.23 189.542 86.7842 189.117 86.2008C188.692 85.6175 188.479 84.9092 188.479 84.0758C188.479 83.1342 188.738 82.3675 189.254 81.7758C189.771 81.1842 190.454 80.7342 191.304 80.4258C192.163 80.1092 193.092 79.9008 194.092 79.8008C195.55 79.6592 196.554 79.53 197.104 79.4133C197.663 79.2967 197.942 79.0925 197.942 78.8008C197.942 78.7925 197.942 78.7842 197.942 78.7758C197.942 78.2842 197.704 77.8967 197.229 77.6133C196.763 77.33 196.109 77.1883 195.267 77.1883C194.375 77.1883 193.692 77.3508 193.217 77.6758C192.75 77.9925 192.517 78.48 192.517 79.1383H188.704C188.704 78.0717 188.992 77.1717 189.567 76.4383C190.15 75.705 190.938 75.1508 191.929 74.7758C192.921 74.3925 194.042 74.2008 195.292 74.2008C196.459 74.2008 197.538 74.38 198.529 74.7383C199.521 75.0883 200.317 75.6175 200.917 76.3258C201.525 77.0342 201.829 77.9342 201.829 79.0258C201.829 79.2008 201.829 79.3758 201.829 79.5508C201.829 79.7175 201.829 79.8883 201.829 80.0633V84.7633C201.829 85.105 201.838 85.4342 201.854 85.7508C201.879 86.0592 201.929 86.3425 202.004 86.6008C202.088 86.8925 202.192 87.1342 202.317 87.3258C202.442 87.5175 202.546 87.6508 202.629 87.7258H198.817C198.759 87.6675 198.667 87.5467 198.542 87.3633C198.425 87.18 198.325 86.9675 198.242 86.7258C198.142 86.4342 198.067 86.1425 198.017 85.8508C197.975 85.5508 197.954 85.2008 197.954 84.8008L198.754 85.3508C198.521 85.9008 198.142 86.3758 197.617 86.7758C197.1 87.1675 196.484 87.4717 195.767 87.6883C195.059 87.8967 194.292 88.0008 193.467 88.0008ZM194.504 85.1008C195.113 85.1008 195.679 84.9925 196.204 84.7758C196.738 84.5508 197.171 84.2008 197.504 83.7258C197.838 83.2508 198.004 82.63 198.004 81.8633V80.5258L198.967 81.4633C198.417 81.6633 197.779 81.83 197.054 81.9633C196.338 82.0883 195.621 82.1883 194.904 82.2633C194.054 82.3467 193.417 82.4925 192.992 82.7008C192.575 82.9008 192.367 83.2425 192.367 83.7258C192.367 84.1842 192.546 84.53 192.904 84.7633C193.263 84.9883 193.796 85.1008 194.504 85.1008ZM208.753 68.1883V87.7258H204.928V68.1883H208.753Z" fill="white"/>
</svg>
