<svg width="132" height="161" viewBox="0 0 132 161" fill="none" xmlns="http://www.w3.org/2000/svg">
<path d="M113.759 129.914C114.874 129.182 115.973 128.716 117.056 128.513C118.132 128.316 119.142 128.411 120.084 128.799C121.024 129.199 121.839 129.925 122.529 130.977C122.603 131.089 122.669 131.19 122.728 131.281C122.792 131.378 122.861 131.483 122.934 131.594L119.683 133.726C119.615 133.622 119.553 133.528 119.498 133.444C119.448 133.368 119.389 133.277 119.32 133.172C118.849 132.455 118.286 132.037 117.63 131.919C116.975 131.801 116.25 132.002 115.456 132.523C114.654 133.049 114.12 133.579 113.853 134.113C113.59 134.654 113.65 135.217 114.034 135.803C114.304 136.214 114.705 136.469 115.238 136.567C115.765 136.671 116.386 136.662 117.104 136.54C117.819 136.429 118.603 136.249 119.455 135.999C120.388 135.736 121.316 135.585 122.239 135.548C123.161 135.511 124.026 135.667 124.832 136.015C125.632 136.367 126.326 136.993 126.916 137.892C127.51 138.798 127.775 139.725 127.71 140.675C127.649 141.631 127.314 142.549 126.705 143.427C126.099 144.313 125.274 145.098 124.229 145.784C123.135 146.501 122.058 146.964 120.998 147.171C119.935 147.389 118.946 147.316 118.028 146.951C117.109 146.597 116.32 145.919 115.662 144.916C115.589 144.804 115.52 144.7 115.456 144.602C115.397 144.511 115.328 144.407 115.25 144.289L118.49 142.163C118.541 142.24 118.593 142.32 118.648 142.403C118.703 142.487 118.756 142.567 118.806 142.644C119.249 143.32 119.778 143.715 120.392 143.831C120.999 143.951 121.699 143.751 122.494 143.229C123.26 142.727 123.765 142.197 124.007 141.639C124.242 141.086 124.17 140.52 123.791 139.942C123.516 139.524 123.133 139.267 122.642 139.171C122.143 139.079 121.554 139.092 120.873 139.21C120.193 139.327 119.439 139.492 118.613 139.706C117.483 139.989 116.448 140.159 115.509 140.217C114.568 140.286 113.717 140.151 112.957 139.813C112.202 139.481 111.529 138.866 110.939 137.967C110.336 137.048 110.059 136.108 110.107 135.149C110.156 134.191 110.497 133.259 111.13 132.356C111.761 131.464 112.637 130.65 113.759 129.914Z" fill="black"/>
<path d="M94.9834 138.149C95.4741 138.017 95.9929 137.924 96.5397 137.871C97.0763 137.812 97.6036 137.847 98.1215 137.974C98.6335 138.112 99.0926 138.39 99.4987 138.806C99.9049 139.223 100.217 139.834 100.434 140.638C100.482 140.815 100.531 140.996 100.581 141.181C100.631 141.366 100.681 141.551 100.731 141.736L102.189 147.13L105.145 146.331L105.928 149.227L105.095 149.453C104.612 149.583 104.236 149.706 103.965 149.823C103.686 149.941 103.5 150.099 103.407 150.297C103.308 150.505 103.286 150.792 103.341 151.157C103.397 151.521 103.508 152.014 103.676 152.633L104.113 154.25L100.36 155.264L99.2184 151.041L95.4897 152.048L94.707 149.152L98.4357 148.145L97.19 143.535C97.1508 143.39 97.1128 143.249 97.0758 143.113C97.0389 142.976 97.003 142.843 96.9682 142.714C96.8182 142.159 96.6321 141.726 96.4099 141.415C96.1796 141.106 95.799 141.023 95.2681 141.167C95.0026 141.239 94.7597 141.33 94.5395 141.442C94.3112 141.555 94.1432 141.652 94.0356 141.733L93.2757 138.921C93.4251 138.803 93.645 138.675 93.9355 138.536C94.2238 138.389 94.5731 138.26 94.9834 138.149Z" fill="black"/>
<path d="M79.7926 139.831C80.7579 139.882 81.6111 140.081 82.3522 140.429C83.0849 140.777 83.6481 141.253 84.0418 141.858C84.4355 142.463 84.6104 143.181 84.5666 144.013C84.517 144.954 84.2187 145.706 83.6716 146.269C83.1245 146.833 82.4184 147.246 81.5533 147.509C80.6795 147.781 79.7407 147.94 78.7368 147.987C77.273 148.052 76.2635 148.128 75.7081 148.215C75.1444 148.302 74.8549 148.492 74.8395 148.783C74.8391 148.791 74.8386 148.799 74.8382 148.808C74.8123 149.299 75.0291 149.698 75.4885 150.006C75.9396 150.314 76.5854 150.49 77.4259 150.534C78.3164 150.581 79.0073 150.455 79.4987 150.155C79.9814 149.863 80.2401 149.389 80.2748 148.731L84.082 148.932C84.0258 149.997 83.6913 150.881 83.0785 151.583C82.4574 152.285 81.6418 152.796 80.6318 153.119C79.6213 153.449 78.492 153.582 77.2437 153.516C76.0786 153.455 75.0104 153.219 74.039 152.809C73.0671 152.407 72.3002 151.837 71.7384 151.098C71.1681 150.358 70.9118 149.444 70.9692 148.354C70.9785 148.179 70.9877 148.004 70.9969 147.829C71.0057 147.663 71.0146 147.492 71.0239 147.317L71.2713 142.624C71.2892 142.283 71.2983 141.954 71.2983 141.637C71.2895 141.327 71.2545 141.042 71.1932 140.78C71.1254 140.484 71.0341 140.237 70.9193 140.039C70.8046 139.841 70.7076 139.703 70.6283 139.623L74.4355 139.824C74.4907 139.885 74.5759 140.011 74.6911 140.201C74.7979 140.39 74.8866 140.607 74.9571 140.853C75.0416 141.15 75.1011 141.445 75.1357 141.739C75.1615 142.04 75.1639 142.391 75.1429 142.79L74.3729 142.199C74.6349 141.662 75.0385 141.208 75.5839 140.836C76.1204 140.472 76.7522 140.201 77.4793 140.022C78.1976 139.851 78.9687 139.788 79.7926 139.831ZM78.6039 142.673C77.9964 142.64 77.4248 142.719 76.8891 142.908C76.3447 143.104 75.8935 143.431 75.5357 143.888C75.1778 144.344 74.9787 144.956 74.9383 145.721L74.8679 147.057L73.9561 146.07C74.5158 145.899 75.1612 145.766 75.8923 145.671C76.6145 145.584 77.3354 145.522 78.0551 145.485C78.9083 145.447 79.5526 145.334 79.9879 145.149C80.4146 144.971 80.6406 144.641 80.666 144.158C80.6902 143.7 80.5294 143.346 80.1839 143.094C79.8379 142.85 79.3112 142.71 78.6039 142.673Z" fill="black"/>
<path d="M65.1442 132.217C65.5303 132.374 65.8715 132.531 66.1679 132.687C66.4596 132.832 66.6378 132.936 66.7025 132.998L65.5979 135.72C65.5163 135.633 65.3567 135.528 65.119 135.404C64.8767 135.27 64.6127 135.145 64.327 135.029C63.9486 134.875 63.5775 134.815 63.2137 134.847C62.8453 134.868 62.4966 134.974 62.1676 135.164C61.834 135.344 61.5302 135.594 61.2562 135.914L60.7939 136.455L59.9754 150.638L56.2343 149.12L57.6528 137.946L58.0698 138.115L51.4043 147.16L47.7095 145.661L57.1782 134.462C57.8896 133.617 58.6195 132.938 59.368 132.423C60.1165 131.908 60.9536 131.618 61.8793 131.553C62.805 131.488 63.8933 131.71 65.1442 132.217Z" fill="black"/>
<path d="M23.0798 113.997C23.7208 113.518 24.4641 113.155 25.3096 112.909C26.1502 112.656 27.032 112.569 27.9552 112.65C28.8734 112.723 29.7878 113.008 30.6984 113.503C31.5973 113.997 32.4307 114.758 33.1985 115.786C34.2205 117.155 34.7692 118.565 34.8444 120.017C34.9129 121.474 34.5649 122.888 33.8003 124.26C33.0306 125.625 31.9013 126.863 30.4123 127.975C28.9232 129.087 27.4183 129.815 25.8975 130.16C24.3718 130.499 22.9236 130.425 21.553 129.941C20.1824 129.456 18.986 128.53 17.964 127.161C17.1114 126.019 16.593 124.893 16.4087 123.782C16.2195 122.665 16.2759 121.619 16.578 120.645C16.8751 119.664 17.3261 118.813 17.931 118.091C18.2986 117.65 18.6894 117.275 19.1034 116.966L21.4292 120.081C21.2289 120.23 21.0477 120.391 20.8857 120.564C20.4481 120.995 20.1287 121.473 19.9276 121.997C19.7265 122.522 19.6653 123.067 19.7441 123.632C19.8112 124.195 20.0492 124.751 20.458 125.298C20.9366 125.94 21.5465 126.373 22.2877 126.6C23.0289 126.827 23.8839 126.802 24.8529 126.525C25.8218 126.249 26.8872 125.677 28.0491 124.81C29.2176 123.937 30.0753 123.073 30.6221 122.218C31.1623 121.367 31.4324 120.552 31.4324 119.772C31.4257 118.997 31.1831 118.289 30.7045 117.648C30.3605 117.187 29.9729 116.842 29.5417 116.613C29.1055 116.377 28.6508 116.249 28.1775 116.228C27.6992 116.2 27.2224 116.265 26.7471 116.422C26.2668 116.573 25.8196 116.803 25.4056 117.112L23.0798 113.997Z" fill="black"/>
<path d="M23.7843 96.8362C24.1749 98.2153 24.2343 99.5106 23.9626 100.722C23.6908 101.934 23.1419 102.977 22.3157 103.852C21.4793 104.721 20.4076 105.341 19.1007 105.711C17.8018 106.079 16.5723 106.111 15.4123 105.807C14.242 105.498 13.2315 104.896 12.3807 104.003C11.522 103.111 10.8973 101.976 10.5066 100.597C10.116 99.2181 10.0526 97.9239 10.3163 96.7146C10.572 95.5075 11.1181 94.4694 11.9545 93.6002C12.7807 92.7253 13.8432 92.1038 15.1421 91.7359C16.449 91.3657 17.6877 91.3354 18.8579 91.6448C20.018 91.9485 21.0314 92.5449 21.8981 93.434C22.7649 94.3231 23.3936 95.4571 23.7843 96.8362ZM20.8257 97.6743C20.6417 97.0248 20.3292 96.5027 19.8883 96.1079C19.4474 95.7132 18.9128 95.4618 18.2846 95.3539C17.6484 95.2483 16.9575 95.3011 16.2118 95.5123C15.4662 95.7236 14.8582 96.0387 14.3879 96.4577C13.9096 96.879 13.5903 97.3722 13.4299 97.9373C13.2695 98.5024 13.2813 99.1097 13.4652 99.7591C13.6469 100.401 13.9554 100.924 14.3906 101.329C14.8235 101.726 15.3541 101.978 15.9822 102.086C16.6024 102.196 17.2853 102.146 18.031 101.935C18.7766 101.723 19.3926 101.406 19.8789 100.983C20.3572 100.561 20.6806 100.067 20.849 99.4995C21.0151 98.9241 21.0073 98.3157 20.8257 97.6743Z" fill="black"/>
<path d="M21.5406 73.092L15.9217 72.6349C15.606 72.6092 15.3195 72.5859 15.062 72.5649C14.8045 72.544 14.572 72.5251 14.3643 72.5082C13.8161 72.4636 13.312 72.4936 12.852 72.5983C12.3837 72.7023 11.9976 72.9259 11.6938 73.2691C11.39 73.6123 11.21 74.1285 11.1539 74.8179C11.1053 75.4159 11.2001 75.9462 11.4384 76.4087C11.6773 76.8629 12.0324 77.2263 12.5035 77.4987C12.9746 77.7711 13.5299 77.9334 14.1695 77.9854L13.3099 78.994C12.1637 78.9008 11.1789 78.5698 10.3557 78.0012C9.5324 77.4325 8.9102 76.7047 8.48909 75.8176C8.06865 74.9222 7.90066 73.9554 7.98514 72.9172C8.07366 71.8291 8.36642 70.9541 8.86339 70.2923C9.35274 69.6214 10.0016 69.1475 10.8101 68.8705C11.6109 68.5845 12.5305 68.4837 13.5687 68.5682C13.9923 68.6026 14.4657 68.6411 14.989 68.6837C15.5123 68.7263 16.048 68.7699 16.5962 68.8145L21.8538 69.2423L21.5406 73.092ZM20.7824 82.4112L7.55109 81.3347L7.86533 77.4725L21.0966 78.549L20.7824 82.4112Z" fill="black"/>
<path d="M27.8085 52.7769L22.7041 50.3839C22.4174 50.2495 22.1571 50.1274 21.9232 50.0178C21.6893 49.9081 21.478 49.8091 21.2894 49.7207C20.7914 49.4872 20.3086 49.3391 19.841 49.2763C19.3659 49.21 18.926 49.2845 18.5214 49.4998C18.1168 49.7151 17.7676 50.1358 17.474 50.7621C17.2193 51.3053 17.1228 51.8353 17.1843 52.3519C17.2493 52.861 17.4549 53.3255 17.801 53.7455C18.1472 54.1655 18.6107 54.5117 19.1917 54.784L18.0337 55.4284C16.9924 54.9402 16.1856 54.2859 15.6131 53.4653C15.0406 52.6447 14.7122 51.7452 14.6278 50.7669C14.547 49.781 14.7277 48.8165 15.1699 47.8733C15.6333 46.8849 16.2135 46.1675 16.9105 45.7212C17.6035 45.2638 18.3772 45.0466 19.2315 45.0698C20.0818 45.0819 20.9785 45.309 21.9217 45.7512C22.3065 45.9316 22.7366 46.1332 23.2119 46.3561C23.6873 46.5789 24.1739 46.8071 24.6719 47.0405L29.4481 49.2797L27.8085 52.7769ZM23.8396 61.2428L11.82 55.6077L13.4648 52.0992L25.4845 57.7342L23.8396 61.2428Z" fill="black"/>
<path d="M31.3366 37.5278L29.5432 35.6975L35.8289 29.5387L36.0159 30.2655C35.9693 30.2178 35.9256 30.1732 35.8847 30.1315C35.8381 30.0839 35.7943 30.0393 35.7535 29.9976C35.4211 29.6583 35.0229 29.4127 34.5589 29.2606C34.0891 29.1026 33.5883 29.0916 33.0565 29.2276C32.5249 29.3518 31.9972 29.6705 31.4734 30.1838C30.9496 30.697 30.608 31.2533 30.4487 31.8528C30.2895 32.4404 30.3128 33.0418 30.5187 33.6567C30.7305 34.2658 31.1251 34.865 31.7025 35.4543C32.2974 36.0615 32.9029 36.489 33.5191 36.7369C34.1355 36.973 34.7478 37.0205 35.3562 36.8794C35.9706 36.7324 36.5635 36.379 37.1349 35.8191C37.504 35.4575 37.7903 35.1128 37.994 34.7848C38.1919 34.451 38.3217 34.1488 38.3834 33.8784C38.451 33.6021 38.4653 33.3547 38.4263 33.1363C38.3873 32.9179 38.3155 32.7374 38.2108 32.5949L40.943 29.918C41.298 30.3518 41.546 30.8788 41.687 31.4989C41.8222 32.1132 41.8301 32.7821 41.7108 33.5057C41.5856 34.2234 41.3069 34.9689 40.8747 35.7424C40.4485 36.51 39.8485 37.2729 39.0747 38.0311C38.0271 39.0575 36.9093 39.7444 35.7212 40.0918C34.5274 40.4332 33.3546 40.4448 32.2029 40.1266C31.0453 39.8025 29.9911 39.1553 29.0405 38.185C28.0782 37.2029 27.4527 36.1299 27.1641 34.9661C26.8755 33.7904 26.9199 32.6153 27.2973 31.4405C27.6747 30.254 28.3783 29.1563 29.4081 28.1473C30.4617 27.1151 31.5794 26.434 32.7613 26.1043C33.9374 25.7686 35.1042 25.7746 36.2615 26.1223C37.413 26.4641 38.4787 27.135 39.4585 28.135C39.6043 28.2838 39.7413 28.4295 39.8695 28.5723C39.9977 28.715 40.0879 28.825 40.1401 28.9021L31.3366 37.5278Z" fill="black"/>
<path d="M56.5341 26.0433C55.2062 26.646 53.9209 26.9092 52.6781 26.8326C51.4319 26.7485 50.3148 26.3542 49.3269 25.6495C48.3466 24.9414 47.5722 23.9613 47.0039 22.7093C46.4287 21.442 46.2041 20.2215 46.3303 19.0478C46.4605 17.863 46.9094 16.7853 47.6768 15.8146C48.4442 14.844 49.4919 14.0572 50.8198 13.4545C51.8139 13.0032 52.7613 12.7517 53.662 12.6997C54.5593 12.6402 55.3745 12.7323 56.1075 12.9762C56.8404 13.22 57.4689 13.5662 57.9928 14.0148C58.5167 14.4633 58.9061 14.9684 59.161 15.5299C59.1645 15.5375 59.1714 15.5526 59.1817 15.5754C59.1886 15.5906 59.1955 15.6058 59.2024 15.6209L55.708 17.2071C55.6873 17.1616 55.6646 17.1215 55.6398 17.0871C55.6191 17.0415 55.5909 16.9994 55.555 16.9608C55.3497 16.6697 55.0808 16.4302 54.7485 16.2424C54.4162 16.0547 54.0245 15.9579 53.5734 15.9522C53.1265 15.9354 52.6299 16.051 52.0836 16.299C51.4993 16.5642 51.0342 16.9309 50.6885 17.399C50.3503 17.8636 50.1638 18.4104 50.129 19.0394C50.0907 19.6608 50.2404 20.3433 50.5779 21.0869C50.9086 21.8154 51.3273 22.3849 51.834 22.7956C52.3372 23.1986 52.8802 23.4372 53.463 23.5112C54.0533 23.5819 54.6406 23.4846 55.2249 23.2194C55.8243 22.9473 56.2724 22.6341 56.5692 22.2797C56.8625 21.9178 57.0334 21.5382 57.0819 21.141C57.1269 20.7362 57.0823 20.3355 56.948 19.9388L60.4423 18.3527C60.6972 18.9142 60.8245 19.5474 60.8241 20.2522C60.8279 20.946 60.6803 21.6491 60.3813 22.3614C60.0899 23.0702 59.6281 23.7465 58.9961 24.3904C58.364 25.0342 57.5433 25.5851 56.5341 26.0433Z" fill="black"/>
<path d="M75.9656 20.9701C75.4603 21.0257 74.9335 21.0375 74.385 21.0056C73.8458 20.981 73.3301 20.8658 72.838 20.66C72.3533 20.445 71.9423 20.1004 71.6051 19.6261C71.268 19.1517 71.0538 18.5004 70.9628 17.6721C70.9427 17.4898 70.9223 17.3034 70.9013 17.1129C70.8804 16.9224 70.8594 16.7319 70.8385 16.5414L70.2279 10.9873L67.1838 11.322L66.8559 8.33994L67.7133 8.24569C68.2103 8.19106 68.6015 8.12709 68.8868 8.05381C69.1805 7.97961 69.3886 7.85193 69.5112 7.67078C69.6412 7.48044 69.7069 7.20076 69.7082 6.83173C69.7096 6.46271 69.6752 5.95928 69.6051 5.32146L69.422 3.65649L73.2862 3.23169L73.7643 7.58049L77.6037 7.15842L77.9315 10.1405L74.0921 10.5625L74.6139 15.3089C74.6303 15.458 74.6462 15.603 74.6617 15.7438C74.6772 15.8846 74.6922 16.0213 74.7068 16.1538C74.7696 16.7254 74.8869 17.182 75.0586 17.5236C75.2386 17.8643 75.6019 18.0046 76.1486 17.9445C76.422 17.9145 76.676 17.8614 76.9108 17.7853C77.1538 17.7083 77.3347 17.6381 77.4535 17.5747L77.7718 20.4698C77.606 20.5634 77.3689 20.6566 77.0605 20.7492C76.7531 20.85 76.3881 20.9237 75.9656 20.9701Z" fill="black"/>
<path d="M89.5072 15.3628L90.0545 12.8594L98.6514 14.739L98.1462 15.2939C98.1605 15.2288 98.1738 15.1677 98.1863 15.1107C98.2005 15.0456 98.2139 14.9845 98.2263 14.9275C98.3278 14.4635 98.3149 13.9958 98.1876 13.5244C98.0622 13.0449 97.7968 12.62 97.3915 12.2499C96.9961 11.8735 96.4402 11.6069 95.7238 11.4503C95.0074 11.2937 94.3548 11.3131 93.7662 11.5085C93.1874 11.6976 92.6974 12.0468 92.296 12.5562C91.9027 13.0673 91.618 13.7259 91.4418 14.5318C91.2603 15.3622 91.2348 16.103 91.3654 16.7543C91.5059 17.3992 91.8019 17.9373 92.2535 18.3688C92.7133 18.8019 93.3339 19.104 94.1155 19.2748C94.6202 19.3852 95.0655 19.4356 95.4515 19.4262C95.8392 19.4086 96.163 19.3514 96.423 19.2547C96.6911 19.1598 96.9058 19.0361 97.0671 18.8837C97.2284 18.7313 97.3399 18.5723 97.4017 18.4067L101.138 19.2237C100.97 19.7584 100.666 20.2548 100.224 20.7128C99.7848 21.1626 99.2297 21.536 98.5591 21.833C97.8903 22.1218 97.1141 22.2975 96.2303 22.3602C95.3546 22.4247 94.3876 22.3412 93.3293 22.1098C91.8965 21.7966 90.7091 21.2384 89.7672 20.4354C88.8271 19.6242 88.1744 18.6498 87.8089 17.5122C87.4452 16.3664 87.4085 15.13 87.6986 13.803C87.9923 12.4598 88.5466 11.3483 89.3616 10.4688C90.1865 9.58287 91.1936 8.97562 92.3829 8.64705C93.5821 8.31212 94.8859 8.29862 96.2943 8.60653C97.7353 8.92157 98.9177 9.4829 99.8415 10.2905C100.767 11.09 101.402 12.069 101.746 13.2275C102.091 14.3778 102.115 15.6369 101.816 17.0046C101.771 17.2081 101.724 17.4026 101.675 17.5881C101.626 17.7735 101.584 17.9092 101.548 17.9952L89.5072 15.3628Z" fill="black"/>
<path d="M111.957 29.512C111.025 28.9116 110.309 28.138 109.809 27.1911C109.313 26.2372 109.11 25.169 109.198 23.9864C109.286 22.8038 109.743 21.5716 110.569 20.2897C111.359 19.0639 112.271 18.1794 113.305 17.6363C114.346 17.0977 115.401 16.8606 116.47 16.9248C117.55 16.9866 118.542 17.3087 119.446 17.891C120.328 18.4598 120.989 19.2031 121.429 20.1208C121.876 21.0431 122.069 22.0352 122.009 23.0971C121.954 24.1521 121.601 25.1839 120.951 26.1926C120.929 26.2276 120.906 26.2626 120.884 26.2976C120.866 26.3256 120.845 26.3572 120.823 26.3922L119.401 25.5059C119.415 25.4849 119.428 25.4638 119.442 25.4428C119.46 25.4148 119.476 25.3903 119.489 25.3693C119.828 24.8439 119.993 24.3109 119.984 23.7701C119.976 23.2293 119.838 22.7287 119.569 22.2683C119.305 21.8008 118.956 21.4272 118.522 21.1473C117.801 20.6823 117.021 20.5222 116.185 20.667C115.352 20.8048 114.598 21.399 113.92 22.4497C113.243 23.5005 113.007 24.4438 113.212 25.2797C113.428 26.1131 113.894 26.76 114.608 27.2205C115.057 27.5094 115.548 27.6774 116.083 27.7245C116.622 27.7647 117.141 27.6676 117.639 27.4334C118.137 27.1991 118.557 26.8158 118.9 26.2834L120.261 27.2643C119.615 28.266 118.813 29.0332 117.856 29.5658C116.909 30.096 115.912 30.3658 114.865 30.3752C113.83 30.382 112.86 30.0943 111.957 29.512ZM115.555 31.474L126.138 15.0512L129.406 17.157L118.823 33.5798L115.555 31.474Z" fill="black"/>
</svg>
