<svg width="270" height="100" viewBox="0 0 270 100" fill="none" xmlns="http://www.w3.org/2000/svg">
<g filter="url(#filter0_i_183_330)">
<path d="M270 100L50 100C22.3858 100 0 77.6142 0 50V50C0 22.3858 22.3858 0 50 0L270 0V100Z" fill="white"/>
<path d="M57.7725 36.2125H46.815L49.605 32.8825V64H42.6525V32.8825L45.5325 36.2125H34.5075V30.8125H57.7725V36.2125ZM80.6318 64V55.495C80.6318 55.195 80.6318 54.7825 80.6318 54.2575C80.6318 53.7325 80.6318 53.2 80.6318 52.66C80.6318 52.12 80.6318 51.685 80.6318 51.355C80.6318 49.525 80.3018 48.115 79.6418 47.125C78.9818 46.12 77.7743 45.6175 76.0193 45.6175C74.8793 45.6175 73.9193 45.85 73.1393 46.315C72.3593 46.765 71.7668 47.4025 71.3618 48.2275C70.9718 49.0525 70.7768 50.02 70.7768 51.13L68.7518 49.735C68.7518 47.74 69.1793 45.9925 70.0343 44.4925C70.8893 42.9775 72.0668 41.7925 73.5668 40.9375C75.0818 40.0825 76.8293 39.655 78.8093 39.655C81.7343 39.655 83.9318 40.5175 85.4018 42.2425C86.8718 43.9525 87.6068 46.3375 87.6068 49.3975C87.6068 50.1775 87.6068 51.115 87.6068 52.21C87.6068 53.305 87.6068 54.5725 87.6068 56.0125V64H80.6318ZM63.8018 64V28.8325H70.7768V64H63.8018ZM102.706 64.495C100.966 64.495 99.4132 64.2175 98.0482 63.6625C96.6982 63.1075 95.6407 62.305 94.8757 61.255C94.1107 60.205 93.7282 58.93 93.7282 57.43C93.7282 55.735 94.1932 54.355 95.1232 53.29C96.0532 52.225 97.2832 51.415 98.8132 50.86C100.358 50.29 102.031 49.915 103.831 49.735C106.456 49.48 108.263 49.2475 109.253 49.0375C110.258 48.8275 110.761 48.46 110.761 47.935C110.761 47.92 110.761 47.905 110.761 47.89C110.761 47.005 110.333 46.3075 109.478 45.7975C108.638 45.2875 107.461 45.0325 105.946 45.0325C104.341 45.0325 103.111 45.325 102.256 45.91C101.416 46.48 100.996 47.3575 100.996 48.5425H94.1332C94.1332 46.6225 94.6507 45.0025 95.6857 43.6825C96.7357 42.3625 98.1532 41.365 99.9382 40.69C101.723 40 103.741 39.655 105.991 39.655C108.091 39.655 110.033 39.9775 111.818 40.6225C113.603 41.2525 115.036 42.205 116.116 43.48C117.211 44.755 117.758 46.375 117.758 48.34C117.758 48.655 117.758 48.97 117.758 49.285C117.758 49.585 117.758 49.8925 117.758 50.2075V58.6675C117.758 59.2825 117.773 59.875 117.803 60.445C117.848 61 117.938 61.51 118.073 61.975C118.223 62.5 118.411 62.935 118.636 63.28C118.861 63.625 119.048 63.865 119.198 64H112.336C112.231 63.895 112.066 63.6775 111.841 63.3475C111.631 63.0175 111.451 62.635 111.301 62.2C111.121 61.675 110.986 61.15 110.896 60.625C110.821 60.085 110.783 59.455 110.783 58.735L112.223 59.725C111.803 60.715 111.121 61.57 110.176 62.29C109.246 62.995 108.136 63.5425 106.846 63.9325C105.571 64.3075 104.191 64.495 102.706 64.495ZM104.573 59.275C105.668 59.275 106.688 59.08 107.633 58.69C108.593 58.285 109.373 57.655 109.973 56.8C110.573 55.945 110.873 54.8275 110.873 53.4475V51.04L112.606 52.7275C111.616 53.0875 110.468 53.3875 109.163 53.6275C107.873 53.8525 106.583 54.0325 105.293 54.1675C103.763 54.3175 102.616 54.58 101.851 54.955C101.101 55.315 100.726 55.93 100.726 56.8C100.726 57.625 101.048 58.2475 101.693 58.6675C102.338 59.0725 103.298 59.275 104.573 59.275ZM141.493 64V53.8525C141.493 53.2825 141.493 52.765 141.493 52.3C141.493 51.835 141.493 51.415 141.493 51.04C141.493 50.05 141.365 49.15 141.11 48.34C140.855 47.515 140.398 46.855 139.738 46.36C139.078 45.865 138.125 45.6175 136.88 45.6175C135.8 45.6175 134.863 45.865 134.068 46.36C133.288 46.855 132.688 47.545 132.268 48.43C131.848 49.315 131.638 50.335 131.638 51.49L129.703 50.095C129.703 48.025 130.153 46.21 131.053 44.65C131.953 43.09 133.168 41.8675 134.698 40.9825C136.243 40.0975 137.953 39.655 139.828 39.655C141.793 39.655 143.405 40.0525 144.665 40.8475C145.94 41.6275 146.885 42.7225 147.5 44.1325C148.13 45.5275 148.445 47.1625 148.445 49.0375C148.445 49.8025 148.445 50.6575 148.445 51.6025C148.445 52.5475 148.445 53.515 148.445 54.505V64H141.493ZM124.663 64V40.105H131.638V64H124.663ZM193.199 30.8125L183.569 52.57V64H176.616V52.57L167.031 30.8125H174.411L181.499 49.0825H178.709L185.796 30.8125H193.199ZM207.291 64.5175C204.711 64.5175 202.439 63.985 200.474 62.92C198.509 61.855 196.971 60.3925 195.861 58.5325C194.766 56.6575 194.219 54.4975 194.219 52.0525C194.219 49.6225 194.766 47.4775 195.861 45.6175C196.971 43.7425 198.509 42.2875 200.474 41.2525C202.439 40.2025 204.711 39.6775 207.291 39.6775C209.871 39.6775 212.144 40.2025 214.109 41.2525C216.074 42.2875 217.604 43.7425 218.699 45.6175C219.809 47.4775 220.364 49.6225 220.364 52.0525C220.364 54.4975 219.809 56.6575 218.699 58.5325C217.604 60.3925 216.074 61.855 214.109 62.92C212.144 63.985 209.871 64.5175 207.291 64.5175ZM207.291 58.9825C208.506 58.9825 209.564 58.6975 210.464 58.1275C211.364 57.5575 212.061 56.755 212.556 55.72C213.051 54.67 213.299 53.4475 213.299 52.0525C213.299 50.6575 213.051 49.45 212.556 48.43C212.061 47.395 211.364 46.6 210.464 46.045C209.564 45.49 208.506 45.2125 207.291 45.2125C206.091 45.2125 205.034 45.49 204.119 46.045C203.219 46.6 202.521 47.395 202.026 48.43C201.531 49.45 201.284 50.6575 201.284 52.0525C201.284 53.4475 201.531 54.67 202.026 55.72C202.521 56.755 203.219 57.5575 204.119 58.1275C205.034 58.6975 206.091 58.9825 207.291 58.9825ZM235.003 64.45C233.308 64.45 231.913 64.18 230.818 63.64C229.723 63.085 228.861 62.3425 228.231 61.4125C227.601 60.4825 227.158 59.4475 226.903 58.3075C226.648 57.1675 226.521 56.0125 226.521 54.8425C226.521 54.3025 226.521 53.7325 226.521 53.1325C226.521 52.5325 226.521 51.9175 226.521 51.2875V40.105H233.496V50.185C233.496 50.695 233.496 51.19 233.496 51.67C233.496 52.15 233.496 52.5925 233.496 52.9975C233.496 54.0025 233.608 54.925 233.833 55.765C234.058 56.605 234.471 57.28 235.071 57.79C235.686 58.3 236.556 58.555 237.681 58.555C238.776 58.555 239.706 58.2475 240.471 57.6325C241.236 57.0025 241.821 56.2 242.226 55.225C242.631 54.25 242.833 53.245 242.833 52.21L244.791 53.8075C244.791 55.3075 244.558 56.7025 244.093 57.9925C243.643 59.2825 242.998 60.415 242.158 61.39C241.318 62.35 240.291 63.1 239.076 63.64C237.876 64.18 236.518 64.45 235.003 64.45ZM242.833 64V40.105H249.808V64H242.833Z" fill="black"/>
<path d="M269.5 99.5L50 99.5C22.6619 99.5 0.5 77.3381 0.5 50C0.5 22.6619 22.6619 0.5 50 0.5L269.5 0.5V99.5Z" stroke="#AE16F7"/>
</g>
<defs>
<filter id="filter0_i_183_330" x="0" y="0" width="270" height="103" filterUnits="userSpaceOnUse" color-interpolation-filters="sRGB">
<feFlood flood-opacity="0" result="BackgroundImageFix"/>
<feBlend mode="normal" in="SourceGraphic" in2="BackgroundImageFix" result="shape"/>
<feColorMatrix in="SourceAlpha" type="matrix" values="0 0 0 0 0 0 0 0 0 0 0 0 0 0 0 0 0 0 127 0" result="hardAlpha"/>
<feOffset dy="3"/>
<feGaussianBlur stdDeviation="5"/>
<feComposite in2="hardAlpha" operator="arithmetic" k2="-1" k3="1"/>
<feColorMatrix type="matrix" values="0 0 0 0 0 0 0 0 0 0 0 0 0 0 0 0 0 0 0.15 0"/>
<feBlend mode="normal" in2="shape" result="effect1_innerShadow_183_330"/>
</filter>
</defs>
</svg>
