<svg width="344" height="128" viewBox="0 0 344 128" fill="none" xmlns="http://www.w3.org/2000/svg">
<g filter="url(#filter0_i_184_435)">
<rect x="328" y="115" width="327" height="100" rx="50" transform="rotate(-180 328 115)" fill="#EA99F6"/>
<path d="M82.525 51.125H70.35L73.45 47.425V82H65.725V47.425L68.925 51.125H56.675V45.125H82.525V51.125ZM107.924 82V72.55C107.924 72.2167 107.924 71.7583 107.924 71.175C107.924 70.5917 107.924 70 107.924 69.4C107.924 68.8 107.924 68.3167 107.924 67.95C107.924 65.9167 107.558 64.35 106.824 63.25C106.091 62.1333 104.749 61.575 102.799 61.575C101.533 61.575 100.466 61.8333 99.5992 62.35C98.7326 62.85 98.0742 63.5583 97.6242 64.475C97.1909 65.3917 96.9742 66.4667 96.9742 67.7L94.7242 66.15C94.7242 63.9333 95.1992 61.9917 96.1492 60.325C97.0992 58.6417 98.4076 57.325 100.074 56.375C101.758 55.425 103.699 54.95 105.899 54.95C109.149 54.95 111.591 55.9083 113.224 57.825C114.858 59.725 115.674 62.375 115.674 65.775C115.674 66.6417 115.674 67.6833 115.674 68.9C115.674 70.1167 115.674 71.525 115.674 73.125V82H107.924ZM89.2242 82V42.925H96.9742V82H89.2242ZM123.151 82V55.45H130.826V82H123.151ZM126.976 51.125C125.776 51.125 124.726 50.8083 123.826 50.175C122.942 49.5417 122.501 48.65 122.501 47.5C122.501 46.3333 122.942 45.4333 123.826 44.8C124.726 44.1667 125.776 43.85 126.976 43.85C128.192 43.85 129.242 44.1667 130.126 44.8C131.026 45.4333 131.476 46.3333 131.476 47.5C131.476 48.6667 131.026 49.5667 130.126 50.2C129.242 50.8167 128.192 51.125 126.976 51.125ZM157.237 82V70.725C157.237 70.0917 157.237 69.5167 157.237 69C157.237 68.4833 157.237 68.0167 157.237 67.6C157.237 66.5 157.095 65.5 156.812 64.6C156.528 63.6833 156.02 62.95 155.287 62.4C154.553 61.85 153.495 61.575 152.112 61.575C150.912 61.575 149.87 61.85 148.987 62.4C148.12 62.95 147.453 63.7167 146.987 64.7C146.52 65.6833 146.287 66.8167 146.287 68.1L144.137 66.55C144.137 64.25 144.637 62.2333 145.637 60.5C146.637 58.7667 147.987 57.4083 149.687 56.425C151.403 55.4417 153.303 54.95 155.387 54.95C157.57 54.95 159.362 55.3917 160.762 56.275C162.178 57.1417 163.228 58.3583 163.912 59.925C164.612 61.475 164.962 63.2917 164.962 65.375C164.962 66.225 164.962 67.175 164.962 68.225C164.962 69.275 164.962 70.35 164.962 71.45V82H157.237ZM138.537 82V55.45H146.287V82H138.537ZM172.763 82V42.925H180.113V65.3L178.588 64.5L188.713 55.45H198.213L185.063 67.2L186.713 64.25L197.988 82H189.838L181.638 68.325L183.613 68.475L179.313 72.375L180.113 69.05V82H172.763Z" fill="black"/>
<path d="M281.426 8.27835L281.737 0.171823L282.93 0.22255L282.632 7.96635L282.119 7.29491L285.795 7.4513L285.756 8.46256L281.426 8.27835Z" fill="black"/>
<path d="M298.855 5.37597L299.21 4.42614L303.545 6.22156L303.273 6.43369C303.282 6.41121 303.29 6.38873 303.299 6.36625C303.308 6.34002 303.317 6.31754 303.324 6.2988C303.437 5.99531 303.477 5.68939 303.443 5.38103C303.41 5.06893 303.293 4.78249 303.092 4.52173C302.896 4.25875 302.605 4.04767 302.221 3.88849C301.837 3.7293 301.467 3.67355 301.112 3.72124C300.762 3.76672 300.448 3.9094 300.171 4.14929C299.899 4.38697 299.683 4.71938 299.523 5.14652C299.361 5.58115 299.298 5.98797 299.336 6.36699C299.375 6.74227 299.509 7.07467 299.738 7.36419C299.967 7.65372 300.284 7.88266 300.691 8.05103C300.975 8.16889 301.232 8.24257 301.46 8.27209C301.693 8.29938 301.894 8.29187 302.063 8.24956C302.236 8.20877 302.379 8.14672 302.491 8.06339C302.605 7.97632 302.688 7.87888 302.741 7.77107L303.939 8.26699C303.826 8.50135 303.656 8.71011 303.429 8.89328C303.208 9.07422 302.937 9.21084 302.617 9.30312C302.302 9.39319 301.945 9.42283 301.547 9.39205C301.154 9.35904 300.728 9.24764 300.27 9.05785C299.656 8.80376 299.167 8.44992 298.804 7.99632C298.44 7.54271 298.215 7.03003 298.13 6.45828C298.046 5.88279 298.117 5.29342 298.343 4.69018C298.573 4.0757 298.905 3.59049 299.341 3.23456C299.777 2.87862 300.277 2.66782 300.839 2.60214C301.403 2.53272 301.986 2.62276 302.588 2.87225C303.201 3.12633 303.683 3.47711 304.032 3.9246C304.385 4.37361 304.597 4.87906 304.669 5.44094C304.74 6.00282 304.664 6.58351 304.44 7.183C304.413 7.25419 304.381 7.33585 304.342 7.42799C304.303 7.52013 304.274 7.58153 304.254 7.61219L298.855 5.37597Z" fill="black"/>
<path d="M317.032 18.8441C316.685 18.5115 316.431 18.1618 316.268 17.7948C316.108 17.4305 316.049 17.0718 316.091 16.7187C316.132 16.3655 316.284 16.0378 316.546 15.7356C316.827 15.4122 317.139 15.2223 317.484 15.1659C317.832 15.1123 318.199 15.1652 318.584 15.3247C318.974 15.484 319.369 15.7214 319.766 16.0371C320.361 16.5034 320.794 16.816 321.063 16.975C321.335 17.1367 321.525 17.1556 321.632 17.0317C321.635 17.0287 321.637 17.0257 321.64 17.0226C321.852 16.7778 321.914 16.4963 321.825 16.1782C321.736 15.8601 321.507 15.5236 321.138 15.1689C320.748 14.7948 320.384 14.5778 320.045 14.5178C319.711 14.4576 319.409 14.5831 319.139 14.8944L318.218 14.0091C318.537 13.6403 318.899 13.4148 319.304 13.3325C319.711 13.2529 320.134 13.3018 320.572 13.4792C321.013 13.6536 321.443 13.9416 321.861 14.3434C322.245 14.712 322.54 15.1093 322.747 15.5352C322.96 15.9609 323.055 16.3848 323.033 16.8067C323.011 17.2286 322.844 17.6194 322.532 17.979C322.477 18.0425 322.422 18.106 322.367 18.1694C322.314 18.2299 322.261 18.2918 322.206 18.3553L320.539 20.2776C320.442 20.3894 320.352 20.5023 320.269 20.6164C320.189 20.7275 320.125 20.8349 320.077 20.9387C320.022 21.0574 319.985 21.1635 319.968 21.2572C319.953 21.3537 319.946 21.4251 319.948 21.4714L319.014 20.5736C319.012 20.5389 319.019 20.4761 319.034 20.3855C319.055 20.2945 319.086 20.1973 319.128 20.0938C319.168 19.9933 319.222 19.8877 319.292 19.7772C319.367 19.6664 319.454 19.5535 319.554 19.4387L319.617 19.7319C319.378 19.824 319.114 19.8506 318.826 19.8115C318.54 19.7752 318.243 19.6756 317.935 19.5126C317.63 19.3523 317.329 19.1295 317.032 18.8441ZM317.934 18.2151C318.202 18.4728 318.484 18.6631 318.779 18.7861C319.08 18.9088 319.375 18.9432 319.665 18.8893C319.957 18.8324 320.224 18.6649 320.465 18.3869L321.157 17.589L321.114 18.1047C320.864 18.0029 320.584 17.8473 320.274 17.638C319.969 17.4284 319.662 17.2029 319.354 16.9616C318.933 16.6237 318.578 16.4135 318.29 16.3309C318.005 16.2452 317.758 16.3232 317.548 16.565C317.346 16.7978 317.275 17.0507 317.335 17.3237C317.399 17.5965 317.599 17.8936 317.934 18.2151Z" fill="black"/>
<path d="M328.869 32.6681L334.371 29.4533L334.978 30.605L333.222 31.6312L333.194 31.2446C333.432 31.1382 333.677 31.0715 333.929 31.0444C334.181 31.0173 334.427 31.0335 334.666 31.0928C334.91 31.1536 335.139 31.27 335.352 31.442C335.564 31.6139 335.749 31.8485 335.906 32.1457C336.025 32.3721 336.104 32.5645 336.142 32.7226C336.182 32.8843 336.2 32.9872 336.196 33.0311L335.011 33.4045C335.016 33.355 335.009 33.2643 334.989 33.1324C334.971 33.0041 334.912 32.8444 334.811 32.6533C334.658 32.3632 334.481 32.1518 334.28 32.0193C334.079 31.8868 333.866 31.8123 333.641 31.796C333.415 31.7796 333.191 31.8042 332.968 31.8697C332.75 31.9367 332.543 32.0277 332.346 32.1428L329.476 33.8198L328.869 32.6681Z" fill="black"/>
<path d="M336.327 52.2956L339.213 51.7351C339.382 51.7023 339.525 51.6745 339.643 51.6516C339.76 51.6287 339.87 51.6074 339.972 51.5875C340.279 51.5281 340.539 51.4285 340.755 51.289C340.974 51.1487 341.129 50.9576 341.22 50.7157C341.316 50.4731 341.332 50.1706 341.268 49.8081C341.213 49.4889 341.083 49.2146 340.881 48.9851C340.679 48.7595 340.429 48.5962 340.131 48.4951C339.838 48.3973 339.52 48.3815 339.179 48.4478L339.353 47.8456C339.86 47.7472 340.334 47.7793 340.777 47.9419C341.224 48.1037 341.6 48.3626 341.906 48.7188C342.213 49.0788 342.408 49.4992 342.492 49.9799C342.579 50.4763 342.557 50.9185 342.426 51.3065C342.3 51.6977 342.076 52.0202 341.755 52.274C341.439 52.531 341.038 52.7068 340.551 52.8014C340.37 52.8364 340.17 52.8753 339.95 52.918C339.73 52.9607 339.518 53.0019 339.314 53.0416L336.551 53.578L336.327 52.2956ZM335.544 47.8277L341.799 46.6129L342.023 47.8954L335.768 49.1101L335.544 47.8277Z" fill="black"/>
<path d="M340.912 89.4689L340.105 91.3429L332.784 87.8486L333.232 86.808L339.799 89.9422L339.776 89.9678L333.974 85.0855L334.622 83.5802L341.945 84.9441L341.947 84.9815L335.37 81.8425L335.821 80.7969L343.142 84.2912L342.335 86.1653L334.988 84.6746L335.01 84.6241L340.912 89.4689Z" fill="black"/>
<path d="M321.574 105.309C322.052 104.86 322.566 104.57 323.117 104.441C323.665 104.315 324.203 104.344 324.73 104.527C325.258 104.716 325.73 105.056 326.147 105.547C326.562 106.035 326.826 106.562 326.941 107.129C327.055 107.702 327.019 108.265 326.834 108.818C326.648 109.377 326.317 109.881 325.839 110.33C325.361 110.78 324.85 111.07 324.304 111.199C323.759 111.334 323.223 111.308 322.698 111.122C322.173 110.942 321.703 110.608 321.289 110.12C320.872 109.629 320.605 109.096 320.488 108.52C320.371 107.95 320.404 107.384 320.587 106.823C320.767 106.263 321.096 105.759 321.574 105.309ZM322.296 106.16C322.005 106.434 321.807 106.744 321.702 107.09C321.597 107.435 321.589 107.792 321.676 108.16C321.765 108.531 321.954 108.885 322.241 109.224C322.526 109.559 322.836 109.791 323.171 109.92C323.506 110.049 323.841 110.077 324.177 110.002C324.512 109.928 324.825 109.754 325.116 109.48C325.405 109.208 325.604 108.9 325.714 108.555C325.822 108.212 325.833 107.859 325.749 107.494C325.664 107.129 325.48 106.779 325.195 106.444C324.907 106.105 324.594 105.869 324.253 105.733C323.916 105.601 323.578 105.571 323.24 105.642C322.899 105.716 322.585 105.889 322.296 106.16Z" fill="black"/>
<path d="M307.145 116.595L309.492 122.519L308.3 123.042L307.551 121.151L307.927 121.156C307.997 121.409 308.028 121.666 308.02 121.928C308.011 122.189 307.962 122.44 307.873 122.68C307.781 122.925 307.637 123.15 307.443 123.353C307.248 123.556 306.997 123.726 306.689 123.861C306.455 123.964 306.259 124.028 306.101 124.053C305.94 124.08 305.839 124.09 305.797 124.082L305.599 122.833C305.646 122.843 305.734 122.844 305.864 122.835C305.99 122.828 306.152 122.78 306.35 122.694C306.65 122.562 306.878 122.399 307.033 122.204C307.188 122.009 307.288 121.797 307.335 121.567C307.381 121.337 307.388 121.105 307.356 120.87C307.321 120.641 307.261 120.421 307.177 120.209L305.953 117.118L307.145 116.595Z" fill="black"/>
<path d="M291.721 122.874L291.789 123.886L287.111 124.235L287.27 123.922C287.271 123.946 287.273 123.97 287.275 123.994C287.277 124.022 287.278 124.046 287.28 124.066C287.301 124.389 287.391 124.681 287.549 124.942C287.707 125.207 287.931 125.411 288.222 125.554C288.508 125.701 288.859 125.759 289.274 125.728C289.689 125.697 290.047 125.58 290.351 125.377C290.65 125.178 290.876 124.908 291.03 124.568C291.179 124.232 291.239 123.837 291.208 123.382C291.177 122.919 291.066 122.526 290.876 122.203C290.687 121.884 290.428 121.647 290.101 121.491C289.774 121.335 289.391 121.273 288.952 121.306C288.645 121.329 288.381 121.379 288.162 121.455C287.939 121.536 287.759 121.634 287.622 121.748C287.482 121.863 287.378 121.983 287.31 122.108C287.243 122.238 287.207 122.363 287.203 122.483L285.911 122.58C285.917 122.319 285.985 122.055 286.116 121.788C286.242 121.526 286.432 121.281 286.686 121.054C286.935 120.831 287.247 120.643 287.622 120.491C287.993 120.343 288.426 120.25 288.92 120.213C289.582 120.164 290.172 120.26 290.69 120.502C291.207 120.744 291.622 121.103 291.935 121.577C292.247 122.055 292.425 122.615 292.469 123.257C292.513 123.912 292.41 124.497 292.16 125.013C291.91 125.529 291.543 125.944 291.059 126.257C290.575 126.573 290.008 126.756 289.358 126.805C288.696 126.854 288.114 126.757 287.613 126.514C287.107 126.271 286.706 125.914 286.41 125.442C286.114 124.971 285.944 124.416 285.901 123.778C285.896 123.702 285.892 123.614 285.889 123.514C285.887 123.414 285.888 123.346 285.894 123.309L291.721 122.874Z" fill="black"/>
<rect x="232" y="33" width="63" height="63" rx="31.5" fill="url(#paint0_radial_184_435)"/>
<rect x="328.5" y="115.5" width="328" height="101" rx="50.5" transform="rotate(-180 328.5 115.5)" stroke="url(#paint1_linear_184_435)"/>
</g>
<defs>
<filter id="filter0_i_184_435" x="0" y="0.171875" width="343.143" height="126.875" filterUnits="userSpaceOnUse" color-interpolation-filters="sRGB">
<feFlood flood-opacity="0" result="BackgroundImageFix"/>
<feBlend mode="normal" in="SourceGraphic" in2="BackgroundImageFix" result="shape"/>
<feColorMatrix in="SourceAlpha" type="matrix" values="0 0 0 0 0 0 0 0 0 0 0 0 0 0 0 0 0 0 127 0" result="hardAlpha"/>
<feMorphology radius="2" operator="erode" in="SourceAlpha" result="effect1_innerShadow_184_435"/>
<feOffset/>
<feGaussianBlur stdDeviation="2.5"/>
<feComposite in2="hardAlpha" operator="arithmetic" k2="-1" k3="1"/>
<feColorMatrix type="matrix" values="0 0 0 0 0 0 0 0 0 0 0 0 0 0 0 0 0 0 0.25 0"/>
<feBlend mode="normal" in2="shape" result="effect1_innerShadow_184_435"/>
</filter>
<radialGradient id="paint0_radial_184_435" cx="0" cy="0" r="1" gradientUnits="userSpaceOnUse" gradientTransform="translate(263.5 64.5) rotate(90) scale(31.5)">
<stop offset="0.533333"/>
<stop offset="1" stop-color="#EB97F7"/>
</radialGradient>
<linearGradient id="paint1_linear_184_435" x1="491.5" y1="115" x2="491.5" y2="215" gradientUnits="userSpaceOnUse">
<stop/>
</linearGradient>
</defs>
</svg>
