<svg width="343" height="128" viewBox="0 0 343 128" fill="none" xmlns="http://www.w3.org/2000/svg">
<g filter="url(#filter0_i_183_346)">
<rect x="327" y="115" width="327" height="100" rx="50" transform="rotate(-180 327 115)" fill="white"/>
<path d="M81.525 51.125H69.35L72.45 47.425V82H64.725V47.425L67.925 51.125H55.675V45.125H81.525V51.125ZM106.924 82V72.55C106.924 72.2167 106.924 71.7583 106.924 71.175C106.924 70.5917 106.924 70 106.924 69.4C106.924 68.8 106.924 68.3167 106.924 67.95C106.924 65.9167 106.558 64.35 105.824 63.25C105.091 62.1333 103.749 61.575 101.799 61.575C100.533 61.575 99.4659 61.8333 98.5992 62.35C97.7326 62.85 97.0742 63.5583 96.6242 64.475C96.1909 65.3917 95.9742 66.4667 95.9742 67.7L93.7242 66.15C93.7242 63.9333 94.1992 61.9917 95.1492 60.325C96.0992 58.6417 97.4076 57.325 99.0742 56.375C100.758 55.425 102.699 54.95 104.899 54.95C108.149 54.95 110.591 55.9083 112.224 57.825C113.858 59.725 114.674 62.375 114.674 65.775C114.674 66.6417 114.674 67.6833 114.674 68.9C114.674 70.1167 114.674 71.525 114.674 73.125V82H106.924ZM88.2242 82V42.925H95.9742V82H88.2242ZM122.151 82V55.45H129.826V82H122.151ZM125.976 51.125C124.776 51.125 123.726 50.8083 122.826 50.175C121.942 49.5417 121.501 48.65 121.501 47.5C121.501 46.3333 121.942 45.4333 122.826 44.8C123.726 44.1667 124.776 43.85 125.976 43.85C127.192 43.85 128.242 44.1667 129.126 44.8C130.026 45.4333 130.476 46.3333 130.476 47.5C130.476 48.6667 130.026 49.5667 129.126 50.2C128.242 50.8167 127.192 51.125 125.976 51.125ZM156.237 82V70.725C156.237 70.0917 156.237 69.5167 156.237 69C156.237 68.4833 156.237 68.0167 156.237 67.6C156.237 66.5 156.095 65.5 155.812 64.6C155.528 63.6833 155.02 62.95 154.287 62.4C153.553 61.85 152.495 61.575 151.112 61.575C149.912 61.575 148.87 61.85 147.987 62.4C147.12 62.95 146.453 63.7167 145.987 64.7C145.52 65.6833 145.287 66.8167 145.287 68.1L143.137 66.55C143.137 64.25 143.637 62.2333 144.637 60.5C145.637 58.7667 146.987 57.4083 148.687 56.425C150.403 55.4417 152.303 54.95 154.387 54.95C156.57 54.95 158.362 55.3917 159.762 56.275C161.178 57.1417 162.228 58.3583 162.912 59.925C163.612 61.475 163.962 63.2917 163.962 65.375C163.962 66.225 163.962 67.175 163.962 68.225C163.962 69.275 163.962 70.35 163.962 71.45V82H156.237ZM137.537 82V55.45H145.287V82H137.537ZM171.763 82V42.925H179.113V65.3L177.588 64.5L187.713 55.45H197.213L184.063 67.2L185.713 64.25L196.988 82H188.838L180.638 68.325L182.613 68.475L178.313 72.375L179.113 69.05V82H171.763Z" fill="black"/>
<path d="M280.426 8.27835L280.737 0.171823L281.93 0.22255L281.632 7.96635L281.119 7.29491L284.795 7.4513L284.756 8.46256L280.426 8.27835Z" fill="#9E14E0" fill-opacity="0.6"/>
<path d="M297.855 5.37597L298.21 4.42614L302.545 6.22156L302.273 6.43369C302.282 6.41121 302.29 6.38873 302.299 6.36625C302.308 6.34002 302.317 6.31754 302.324 6.2988C302.437 5.99531 302.477 5.68939 302.443 5.38103C302.41 5.06893 302.293 4.78249 302.092 4.52173C301.896 4.25875 301.605 4.04767 301.221 3.88849C300.837 3.7293 300.467 3.67355 300.112 3.72124C299.762 3.76672 299.448 3.9094 299.171 4.14929C298.899 4.38697 298.683 4.71938 298.523 5.14652C298.361 5.58115 298.298 5.98797 298.336 6.36699C298.375 6.74227 298.509 7.07467 298.738 7.36419C298.967 7.65372 299.284 7.88266 299.691 8.05103C299.975 8.16889 300.232 8.24257 300.46 8.27209C300.693 8.29938 300.894 8.29187 301.063 8.24956C301.236 8.20877 301.379 8.14672 301.491 8.06339C301.605 7.97632 301.688 7.87888 301.741 7.77107L302.939 8.26699C302.826 8.50135 302.656 8.71011 302.429 8.89328C302.208 9.07422 301.937 9.21084 301.617 9.30312C301.302 9.39319 300.945 9.42283 300.547 9.39205C300.154 9.35904 299.728 9.24764 299.27 9.05785C298.656 8.80376 298.167 8.44992 297.804 7.99632C297.44 7.54271 297.215 7.03003 297.13 6.45828C297.046 5.88279 297.117 5.29342 297.343 4.69018C297.573 4.0757 297.905 3.59049 298.341 3.23456C298.777 2.87862 299.277 2.66782 299.839 2.60214C300.403 2.53272 300.986 2.62276 301.588 2.87225C302.201 3.12633 302.683 3.47711 303.032 3.9246C303.385 4.37361 303.597 4.87906 303.669 5.44094C303.74 6.00282 303.664 6.58351 303.44 7.183C303.413 7.25419 303.381 7.33585 303.342 7.42799C303.303 7.52013 303.274 7.58153 303.254 7.61219L297.855 5.37597Z" fill="#9E14E0" fill-opacity="0.6"/>
<path d="M316.032 18.8441C315.685 18.5115 315.431 18.1618 315.268 17.7948C315.108 17.4305 315.049 17.0718 315.091 16.7187C315.132 16.3655 315.284 16.0378 315.546 15.7356C315.827 15.4122 316.139 15.2223 316.484 15.1659C316.832 15.1123 317.199 15.1652 317.584 15.3247C317.974 15.484 318.369 15.7214 318.766 16.0371C319.361 16.5034 319.794 16.816 320.063 16.975C320.335 17.1367 320.525 17.1556 320.632 17.0317C320.635 17.0287 320.637 17.0257 320.64 17.0226C320.852 16.7778 320.914 16.4963 320.825 16.1782C320.736 15.8601 320.507 15.5236 320.138 15.1689C319.748 14.7948 319.384 14.5778 319.045 14.5178C318.711 14.4576 318.409 14.5831 318.139 14.8944L317.218 14.0091C317.537 13.6403 317.899 13.4148 318.304 13.3325C318.711 13.2529 319.134 13.3018 319.572 13.4792C320.013 13.6536 320.443 13.9416 320.861 14.3434C321.245 14.712 321.54 15.1093 321.747 15.5352C321.96 15.9609 322.055 16.3848 322.033 16.8067C322.011 17.2286 321.844 17.6194 321.532 17.979C321.477 18.0425 321.422 18.106 321.367 18.1694C321.314 18.2299 321.261 18.2918 321.206 18.3553L319.539 20.2776C319.442 20.3894 319.352 20.5023 319.269 20.6164C319.189 20.7275 319.125 20.8349 319.077 20.9387C319.022 21.0574 318.985 21.1635 318.968 21.2572C318.953 21.3537 318.946 21.4251 318.948 21.4714L318.014 20.5736C318.012 20.5389 318.019 20.4761 318.034 20.3855C318.055 20.2945 318.086 20.1973 318.128 20.0938C318.168 19.9933 318.222 19.8877 318.292 19.7772C318.367 19.6664 318.454 19.5535 318.554 19.4387L318.617 19.7319C318.378 19.824 318.114 19.8506 317.826 19.8115C317.54 19.7752 317.243 19.6756 316.935 19.5126C316.63 19.3523 316.329 19.1295 316.032 18.8441ZM316.934 18.2151C317.202 18.4728 317.484 18.6631 317.779 18.7861C318.08 18.9088 318.375 18.9432 318.665 18.8893C318.957 18.8324 319.224 18.6649 319.465 18.3869L320.157 17.589L320.114 18.1047C319.864 18.0029 319.584 17.8473 319.274 17.638C318.969 17.4284 318.662 17.2029 318.354 16.9616C317.933 16.6237 317.578 16.4135 317.29 16.3309C317.005 16.2452 316.758 16.3232 316.548 16.565C316.346 16.7978 316.275 17.0507 316.335 17.3237C316.399 17.5965 316.599 17.8936 316.934 18.2151Z" fill="#9E14E0" fill-opacity="0.6"/>
<path d="M327.869 32.6681L333.371 29.4533L333.978 30.605L332.222 31.6312L332.194 31.2446C332.432 31.1382 332.677 31.0715 332.929 31.0444C333.181 31.0173 333.427 31.0335 333.666 31.0928C333.91 31.1536 334.139 31.27 334.352 31.442C334.564 31.6139 334.749 31.8485 334.906 32.1457C335.025 32.3721 335.104 32.5645 335.142 32.7226C335.182 32.8843 335.2 32.9872 335.196 33.0311L334.011 33.4045C334.016 33.355 334.009 33.2643 333.989 33.1324C333.971 33.0041 333.912 32.8444 333.811 32.6533C333.658 32.3632 333.481 32.1518 333.28 32.0193C333.079 31.8868 332.866 31.8123 332.641 31.796C332.415 31.7796 332.191 31.8042 331.968 31.8697C331.75 31.9367 331.543 32.0277 331.346 32.1428L328.476 33.8198L327.869 32.6681Z" fill="#9E14E0" fill-opacity="0.6"/>
<path d="M335.327 52.2956L338.213 51.7351C338.382 51.7023 338.525 51.6745 338.643 51.6516C338.76 51.6287 338.87 51.6074 338.972 51.5875C339.279 51.5281 339.539 51.4285 339.755 51.289C339.974 51.1487 340.129 50.9576 340.22 50.7157C340.316 50.4731 340.332 50.1706 340.268 49.8081C340.213 49.4889 340.083 49.2146 339.881 48.9851C339.679 48.7595 339.429 48.5962 339.131 48.4951C338.838 48.3973 338.52 48.3815 338.179 48.4478L338.353 47.8456C338.86 47.7472 339.334 47.7793 339.777 47.9419C340.224 48.1037 340.6 48.3626 340.906 48.7188C341.213 49.0788 341.408 49.4992 341.492 49.9799C341.579 50.4763 341.557 50.9185 341.426 51.3065C341.3 51.6977 341.076 52.0202 340.755 52.274C340.439 52.531 340.038 52.7068 339.551 52.8014C339.37 52.8364 339.17 52.8753 338.95 52.918C338.73 52.9607 338.518 53.0019 338.314 53.0416L335.551 53.578L335.327 52.2956ZM334.544 47.8277L340.799 46.6129L341.023 47.8954L334.768 49.1101L334.544 47.8277Z" fill="#9E14E0" fill-opacity="0.6"/>
<path d="M339.912 89.4689L339.105 91.3429L331.784 87.8486L332.232 86.808L338.799 89.9422L338.776 89.9678L332.974 85.0855L333.622 83.5802L340.945 84.9441L340.947 84.9815L334.37 81.8425L334.821 80.7969L342.142 84.2912L341.335 86.1653L333.988 84.6746L334.01 84.6241L339.912 89.4689Z" fill="#9E14E0" fill-opacity="0.6"/>
<path d="M320.574 105.309C321.052 104.86 321.566 104.57 322.117 104.441C322.665 104.315 323.203 104.344 323.73 104.527C324.258 104.716 324.73 105.056 325.147 105.547C325.562 106.035 325.826 106.562 325.941 107.129C326.055 107.702 326.019 108.265 325.834 108.818C325.648 109.377 325.317 109.881 324.839 110.33C324.361 110.78 323.85 111.07 323.304 111.199C322.759 111.334 322.223 111.308 321.698 111.122C321.173 110.942 320.703 110.608 320.289 110.12C319.872 109.629 319.605 109.096 319.488 108.52C319.371 107.95 319.404 107.384 319.587 106.823C319.767 106.263 320.096 105.759 320.574 105.309ZM321.296 106.16C321.005 106.434 320.807 106.744 320.702 107.09C320.597 107.435 320.589 107.792 320.676 108.16C320.765 108.531 320.954 108.885 321.241 109.224C321.526 109.559 321.836 109.791 322.171 109.92C322.506 110.049 322.841 110.077 323.177 110.002C323.512 109.928 323.825 109.754 324.116 109.48C324.405 109.208 324.604 108.9 324.714 108.555C324.822 108.212 324.833 107.859 324.749 107.494C324.664 107.129 324.48 106.779 324.195 106.444C323.907 106.105 323.594 105.869 323.253 105.733C322.916 105.601 322.578 105.571 322.24 105.642C321.899 105.716 321.585 105.889 321.296 106.16Z" fill="#9E14E0" fill-opacity="0.6"/>
<path d="M306.145 116.595L308.492 122.519L307.3 123.042L306.551 121.151L306.927 121.156C306.997 121.409 307.028 121.666 307.02 121.928C307.011 122.189 306.962 122.44 306.873 122.68C306.781 122.925 306.637 123.15 306.443 123.353C306.248 123.556 305.997 123.726 305.689 123.861C305.455 123.964 305.259 124.028 305.101 124.053C304.94 124.08 304.839 124.09 304.797 124.082L304.599 122.833C304.646 122.843 304.734 122.844 304.864 122.835C304.99 122.828 305.152 122.78 305.35 122.694C305.65 122.562 305.878 122.399 306.033 122.204C306.188 122.009 306.288 121.797 306.335 121.567C306.381 121.337 306.388 121.105 306.356 120.87C306.321 120.641 306.261 120.421 306.177 120.209L304.953 117.118L306.145 116.595Z" fill="#9E14E0" fill-opacity="0.6"/>
<path d="M290.721 122.874L290.789 123.886L286.111 124.235L286.27 123.922C286.271 123.946 286.273 123.97 286.275 123.994C286.277 124.022 286.278 124.046 286.28 124.066C286.301 124.389 286.391 124.681 286.549 124.942C286.707 125.207 286.931 125.411 287.222 125.554C287.508 125.701 287.859 125.759 288.274 125.728C288.689 125.697 289.047 125.58 289.351 125.377C289.65 125.178 289.876 124.908 290.03 124.568C290.179 124.232 290.239 123.837 290.208 123.382C290.177 122.919 290.066 122.526 289.876 122.203C289.687 121.884 289.428 121.647 289.101 121.491C288.774 121.335 288.391 121.273 287.952 121.306C287.645 121.329 287.381 121.379 287.162 121.455C286.939 121.536 286.759 121.634 286.622 121.748C286.482 121.863 286.378 121.983 286.31 122.108C286.243 122.238 286.207 122.363 286.203 122.483L284.911 122.58C284.917 122.319 284.985 122.055 285.116 121.788C285.242 121.526 285.432 121.281 285.686 121.054C285.935 120.831 286.247 120.643 286.622 120.491C286.993 120.343 287.426 120.25 287.92 120.213C288.582 120.164 289.172 120.26 289.69 120.502C290.207 120.744 290.622 121.103 290.935 121.577C291.247 122.055 291.425 122.615 291.469 123.257C291.513 123.912 291.41 124.497 291.16 125.013C290.91 125.529 290.543 125.944 290.059 126.257C289.575 126.573 289.008 126.756 288.358 126.805C287.696 126.854 287.114 126.757 286.613 126.514C286.107 126.271 285.706 125.914 285.41 125.442C285.114 124.971 284.944 124.416 284.901 123.778C284.896 123.702 284.892 123.614 284.889 123.514C284.887 123.414 284.888 123.346 284.894 123.309L290.721 122.874Z" fill="#9E14E0" fill-opacity="0.6"/>
<rect x="231" y="33" width="63" height="63" rx="31.5" fill="url(#paint0_radial_183_346)"/>
<rect x="326.5" y="114.5" width="326" height="99" rx="49.5" transform="rotate(-180 326.5 114.5)" stroke="#AE16F7"/>
</g>
<defs>
<filter id="filter0_i_183_346" x="0" y="0.171875" width="342.143" height="126.875" filterUnits="userSpaceOnUse" color-interpolation-filters="sRGB">
<feFlood flood-opacity="0" result="BackgroundImageFix"/>
<feBlend mode="normal" in="SourceGraphic" in2="BackgroundImageFix" result="shape"/>
<feColorMatrix in="SourceAlpha" type="matrix" values="0 0 0 0 0 0 0 0 0 0 0 0 0 0 0 0 0 0 127 0" result="hardAlpha"/>
<feMorphology radius="2" operator="erode" in="SourceAlpha" result="effect1_innerShadow_183_346"/>
<feOffset/>
<feGaussianBlur stdDeviation="2.5"/>
<feComposite in2="hardAlpha" operator="arithmetic" k2="-1" k3="1"/>
<feColorMatrix type="matrix" values="0 0 0 0 0 0 0 0 0 0 0 0 0 0 0 0 0 0 0.25 0"/>
<feBlend mode="normal" in2="shape" result="effect1_innerShadow_183_346"/>
</filter>
<radialGradient id="paint0_radial_183_346" cx="0" cy="0" r="1" gradientUnits="userSpaceOnUse" gradientTransform="translate(262.5 64.5) rotate(90) scale(31.5)">
<stop offset="0.489583" stop-color="#EB97F7"/>
<stop offset="1" stop-color="white"/>
</radialGradient>
</defs>
</svg>
